<svg width="16" height="16" viewBox="0 0 16 16" fill="none" xmlns="http://www.w3.org/2000/svg">
<path d="M8 1.22559C7.22508 1.22563 6.38552 1.59052 5.47656 2.39453C4.56802 3.19825 3.66297 4.37856 2.78418 5.84375C1.91202 7.29795 1.32997 8.65912 1.09375 9.83008C0.857109 11.0032 0.985147 11.8834 1.38574 12.5049C1.81791 13.1751 2.60195 13.7477 3.75586 14.1543C4.90515 14.5593 6.35438 14.7744 8 14.7744L8.60742 14.7646C10.0031 14.718 11.2384 14.5087 12.2441 14.1543C13.398 13.7477 14.1821 13.1751 14.6143 12.5049C15.0149 11.8834 15.1429 11.0032 14.9062 9.83008C14.67 8.65912 14.088 7.29795 13.2158 5.84375C12.337 4.37855 11.432 3.19827 10.5234 2.39453C9.61448 1.59046 8.77493 1.22559 8 1.22559Z" stroke="#0D0D0F" stroke-width="1.95122"/>
</svg>
