<svg width="24" height="24" viewBox="0 0 24 24" fill="none" xmlns="http://www.w3.org/2000/svg">
<path fill-rule="evenodd" clip-rule="evenodd" d="M12 0C18.6274 0 24 5.37258 24 12C24 18.6274 18.6274 24 12 24C5.37258 24 0 18.6274 0 12C0 5.37258 5.37258 0 12 0ZM12 4.875C10.1487 4.87507 8.42171 6.63635 6.89355 9.20312C5.36544 11.7699 4.73701 14.1934 5.72754 15.7412C6.71815 17.289 9.09338 18.0498 12 18.0498C14.9066 18.0497 17.2819 17.289 18.2725 15.7412C19.263 14.1934 18.6346 11.7699 17.1064 9.20312C15.5783 6.6364 13.8514 4.875 12 4.875Z" fill="#0D0D0F"/>
</svg>
