<svg width="24" height="24" viewBox="0 0 24 24" fill="none" xmlns="http://www.w3.org/2000/svg">
<path d="M14.1828 11.5971L7.88984 5.3041C7.70768 5.1155 7.60689 4.86289 7.60917 4.6007C7.61145 4.3385 7.71662 4.08769 7.90202 3.90228C8.08743 3.71687 8.33824 3.6117 8.60044 3.60942C8.86264 3.60715 9.11524 3.70794 9.30384 3.8901L15.9508 10.5361C16.0902 10.6754 16.2008 10.8408 16.2762 11.0229C16.3517 11.2049 16.3905 11.4 16.3905 11.5971C16.3905 11.7942 16.3517 11.9893 16.2762 12.1713C16.2008 12.3534 16.0902 12.5188 15.9508 12.6581L9.30384 19.3041C9.11524 19.4863 8.86264 19.5871 8.60044 19.5848C8.33824 19.5825 8.08743 19.4773 7.90202 19.2919C7.71662 19.1065 7.61145 18.8557 7.60917 18.5935C7.60689 18.3313 7.70768 18.0787 7.88984 17.8901L14.1828 11.5971Z" fill="#0D0D0F"/>
</svg>
