<svg preserveAspectRatio="none" width="100%" height="100%" overflow="visible" style="display: block;" viewBox="0 0 10.508 12" fill="none" xmlns="http://www.w3.org/2000/svg">
<g id="Group 1077239328">
<g id="Group 1077239110">
<path id="Vector" d="M6.01191 6.02876L10.227 10.3451L10.141 10.4234L10.1047 10.4578C8.92443 11.5106 7.37791 12.0578 5.79817 11.9814C4.21843 11.9051 2.73186 11.2114 1.65861 10.0497C0.585355 8.888 0.0112738 7.35127 0.059998 5.77044C0.108722 4.18961 0.776354 2.69116 1.91911 1.59777C3.09404 0.522555 4.64528 -0.0464647 6.23678 0.0139766C7.82828 0.0744179 9.33189 0.759453 10.4219 1.92068L6.01191 6.02876Z" fill="var(--fill-0, #01B94F)"/>
<path id="Vector_2" d="M1.92293 1.59587C3.09768 0.521602 4.64833 -0.0466703 6.23906 0.0141264C7.82978 0.0749231 9.33254 0.759894 10.4219 1.9207C10.4219 1.9207 6.91567 5.20334 6.84497 5.26066C6.84497 5.26066 6.05966 6.00012 6.0654 6.01158C6.07113 6.02305 10.2193 10.3279 10.2193 10.3279L10.1353 10.4082L10.099 10.4426C7.62264 12.6208 3.82793 12.5215 1.58664 10.0986C0.510298 8.92335 -0.0582556 7.37048 0.00472625 5.77804C0.0677081 4.1856 0.757127 2.68249 1.92293 1.59587V1.59587Z" fill="url(#paint0_radial_108_1488426)"/>
<path id="Vector_3" d="M1.92482 1.5921C3.10051 0.519243 4.65124 -0.0477371 6.24167 0.0137635C7.83211 0.0752642 9.33442 0.760303 10.4238 1.92074C10.4238 1.92074 7.01119 5.13078 6.8717 5.24351C6.8717 5.24351 6.10741 5.97341 6.12079 5.99634C6.14945 6.06513 10.2136 10.3089 10.2136 10.3089L10.1295 10.3891L10.0932 10.4235C7.62262 12.5979 3.826 12.4909 1.59235 10.0758C0.517622 8.9037 -0.0504717 7.35446 0.0117995 5.76547C0.0740707 4.17648 0.761662 2.67646 1.92482 1.5921V1.5921Z" fill="url(#paint1_radial_108_1488426)"/>
<path id="Vector_4" d="M1.92868 1.59018C3.10442 0.51873 4.65447 -0.0471921 6.24398 0.014658C7.83349 0.076508 9.33487 0.761165 10.4238 1.92073C10.4238 1.92073 7.10868 5.05625 6.89467 5.2263C6.89467 5.2263 6.15713 5.94474 6.17051 5.97913C6.21445 6.08231 10.206 10.2917 10.206 10.2917L10.12 10.3719L10.0837 10.4044C7.62075 12.5731 3.82604 12.4623 1.59621 10.0528C0.523218 8.88405 -0.0440111 7.33836 0.0182733 5.75297C0.0805577 4.16759 0.767301 2.67116 1.92868 1.59018V1.59018Z" fill="url(#paint2_radial_108_1488426)"/>
<path id="Vector_5" d="M1.93064 1.58827C3.10654 0.517648 4.65631 -0.0475786 6.24536 0.014625C7.83441 0.0768286 9.33525 0.761472 10.4239 1.92074C10.4239 1.92074 7.20427 4.97791 6.91957 5.20911C6.91957 5.20911 6.20496 5.918 6.22406 5.96385C6.28139 6.10143 10.1984 10.2745 10.1984 10.2745L10.1143 10.3528C10.1143 10.3528 10.078 10.3853 10.078 10.3872C7.62081 12.5482 3.82609 12.4298 1.602 10.0299C0.530728 8.86469 -0.0359924 7.32294 0.0255829 5.74131C0.0871583 4.15969 0.772027 2.66667 1.93064 1.58827V1.58827Z" fill="url(#paint3_radial_108_1488426)"/>
<path id="Vector_6" d="M1.93439 1.58444C3.11058 0.515469 4.6598 -0.0483651 6.24793 0.0145453C7.83606 0.0774557 9.33583 0.76207 10.4238 1.92073C10.4238 1.92073 7.30164 4.90912 6.94433 5.19191C6.94433 5.19191 6.25265 5.88932 6.27558 5.94665C6.34818 6.11861 10.1926 10.2554 10.1907 10.2573L10.1066 10.3356L10.0703 10.37C7.61882 12.5215 3.82602 12.4011 1.60765 10.007C0.538237 8.84474 -0.0276896 7.30648 0.033533 5.7283C0.0947555 4.15011 0.77815 2.66032 1.93439 1.58444V1.58444Z" fill="url(#paint4_radial_108_1488426)"/>
<path id="Vector_7" d="M1.93633 1.58254C3.11266 0.514389 4.66161 -0.0487504 6.24928 0.0145134C7.83696 0.0777772 9.33619 0.762377 10.4238 1.92074C10.4238 1.92074 7.3972 4.83652 6.9692 5.16899C6.9692 5.16899 6.30044 5.85494 6.3291 5.92373C6.41509 6.13008 10.185 10.2305 10.185 10.2305L10.1009 10.328L10.0646 10.3604C7.61694 12.4967 3.82604 12.3725 1.6115 9.98404C0.54405 8.82513 -0.0210336 7.29067 0.0398379 5.71624C0.100709 4.14182 0.782582 2.65557 1.93633 1.58254V1.58254Z" fill="url(#paint5_radial_108_1488426)"/>
<path id="Vector_8" d="M1.94011 1.58063C3.11659 0.513302 4.66527 -0.0491427 6.25248 0.0144745C7.83969 0.0780916 9.33839 0.762678 10.4257 1.92074C10.4257 1.92074 7.49461 4.76391 6.99591 5.16898C6.99591 5.16898 6.34817 5.84347 6.38065 5.92372C6.48957 6.15492 10.1792 10.221 10.1773 10.221L10.0932 10.2993L10.0569 10.3337C7.6169 12.4718 3.826 12.3419 1.61719 9.9611C0.551232 8.80574 -0.0133267 7.27497 0.0471996 5.70415C0.107726 4.13333 0.788403 2.65054 1.94011 1.58063V1.58063Z" fill="url(#paint6_radial_108_1488426)"/>
<path id="Vector_9" d="M1.94198 1.57682C3.11885 0.510557 4.6674 -0.0508583 6.25416 0.0134697C7.84092 0.0777976 9.33894 0.762723 10.4256 1.92075C10.4256 1.92075 7.59011 4.6894 7.02071 5.14224C7.02071 5.14224 6.3959 5.80718 6.43412 5.90654C6.54876 6.18168 10.1715 10.2114 10.1696 10.2114C10.1677 10.2114 10.0913 10.2859 10.0855 10.2898L10.0492 10.3222C7.61495 12.447 3.82406 12.3132 1.62098 9.94583C0.554034 8.79332 -0.011521 7.26426 0.0486752 5.69486C0.108871 4.12546 0.78989 2.64421 1.94198 1.57682V1.57682Z" fill="url(#paint7_radial_108_1488426)"/>
<path id="Vector_10" d="M1.94588 1.57491C3.1228 0.510051 4.67066 -0.0503097 6.25649 0.0143672C7.84233 0.079044 9.33942 0.763591 10.4257 1.92075C10.4257 1.92075 7.68763 4.61679 7.04563 5.12505C7.04563 5.12505 6.44375 5.77852 6.48769 5.88934C6.61571 6.19888 10.1639 10.1923 10.1639 10.1942L10.0799 10.2726L10.0436 10.305C7.61502 12.4298 3.82413 12.2903 1.63634 9.9229C0.57063 8.77472 0.0045572 7.25028 0.0626039 5.68481C0.120651 4.11934 0.798064 2.64101 1.94588 1.57491V1.57491Z" fill="url(#paint8_radial_108_1488426)"/>
<path id="Vector_11" d="M1.94775 1.573C3.12481 0.508967 4.6724 -0.0507004 6.25778 0.0143296C7.84315 0.0793597 9.33971 0.763894 10.4257 1.92075C10.4257 1.92075 7.78313 4.54228 7.06278 5.10786C7.06278 5.10786 6.48956 5.75177 6.5316 5.87215C6.68063 6.21035 10.1582 10.1675 10.1563 10.1694L10.0722 10.2458C10.0722 10.2458 10.0397 10.2764 10.0359 10.2802C7.61307 12.3973 3.82409 12.2521 1.62865 9.89806C1.10295 9.3305 0.694181 8.66493 0.425703 7.93938C0.157225 7.21383 0.0342921 6.4425 0.0639229 5.66944C0.0935537 4.89638 0.275168 4.13672 0.598396 3.43385C0.921624 2.73098 1.38014 2.09866 1.94775 1.573V1.573Z" fill="url(#paint9_radial_108_1488426)"/>
<path id="Vector_12" d="M1.95163 1.5691C3.12898 0.506712 4.67603 -0.0515687 6.26049 0.0141675C7.84494 0.0799038 9.34043 0.764413 10.4257 1.92067C10.4257 1.92067 7.88064 4.46959 7.09532 5.09058C7.09532 5.09058 6.5393 5.72495 6.5928 5.85488C6.74948 6.23702 10.1506 10.1559 10.1506 10.1578L10.0665 10.2343L10.0302 10.2668C7.61122 12.3724 3.82415 12.2234 1.63636 9.87124C0.577429 8.7284 0.0157645 7.21178 0.0748869 5.65489C0.134009 4.098 0.809077 2.62833 1.95163 1.5691V1.5691Z" fill="url(#paint10_radial_108_1488426)"/>
<path id="Vector_13" d="M1.95351 1.56728C3.13133 0.505594 4.67841 -0.0520453 6.26273 0.0140422C7.84704 0.0801298 9.34231 0.764677 10.4276 1.92076C10.4276 1.92076 7.97614 4.40472 7.12014 5.07539C7.12014 5.07539 6.58895 5.69637 6.64436 5.83968C6.81633 6.24667 10.1448 10.1369 10.1429 10.1369L10.0588 10.2153L10.0225 10.2477C7.61119 12.3496 3.82412 12.1967 1.64206 9.85222C1.11801 9.28803 0.710323 8.62607 0.442323 7.90418C0.174323 7.1823 0.0512667 6.41466 0.0801932 5.64518C0.10912 4.8757 0.289461 4.11947 0.610903 3.41974C0.932345 2.72002 1.38858 2.09053 1.95351 1.56728V1.56728Z" fill="url(#paint11_radial_108_1488426)"/>
<path id="Vector_14" d="M1.95733 1.56528C3.13519 0.504998 4.68159 -0.05159 6.26498 0.0148461C7.84838 0.0812822 9.34272 0.765453 10.4276 1.92068C10.4276 1.92068 8.07359 4.32247 7.14498 5.0581C7.14498 5.0581 6.63672 5.66954 6.69786 5.82239C6.88894 6.26951 10.1372 10.1196 10.1372 10.1215L10.0531 10.1999C10.0531 10.1999 10.0206 10.2285 10.0187 10.2324C7.61119 12.3342 3.82603 12.1679 1.64779 9.83111C-0.530445 7.49429 -0.421533 3.7225 1.95733 1.56528Z" fill="url(#paint12_radial_108_1488426)"/>
<path id="Vector_15" d="M1.95921 1.56148C3.13746 0.502262 4.68373 -0.0532994 6.26666 0.0138469C7.8496 0.0809932 9.34327 0.765505 10.4276 1.9207C10.4276 1.9207 8.16909 4.24606 7.17933 5.0371C7.17933 5.0371 6.6921 5.63707 6.75897 5.8014C6.9596 6.2829 10.1371 10.0967 10.1371 10.0986L10.0531 10.1751L10.0168 10.2075C7.60734 12.296 3.81454 12.1336 1.65159 9.80247C-0.511362 7.47138 -0.413915 3.71296 1.95921 1.56148Z" fill="url(#paint13_radial_108_1488426)"/>
<path id="Vector_16" d="M1.96306 1.55958C3.14134 0.501764 4.68692 -0.0527472 6.26894 0.0147475C7.85096 0.0822422 9.3437 0.766379 10.4276 1.92071C10.4276 1.92071 8.26657 4.17537 7.19656 5.02374C7.19656 5.02374 6.73225 5.61416 6.80294 5.78803C7.01886 6.30202 10.12 10.0795 10.12 10.0815L10.0359 10.1579L9.9996 10.1904C7.60736 12.2712 3.81456 12.103 1.65543 9.77955C-0.503701 7.4561 -0.406254 3.70342 1.96306 1.55958Z" fill="url(#paint14_radial_108_1488426)"/>
<path id="Vector_17" d="M1.96493 1.55768C3.14337 0.500685 4.68867 -0.0531346 6.27023 0.0147128C7.85179 0.0825603 9.34399 0.766686 10.4276 1.92072C10.4276 1.92072 8.36207 4.10278 7.22136 5.00655C7.22136 5.00655 6.77998 5.57977 6.85641 5.77085C7.0857 6.31541 10.1199 10.0624 10.1199 10.0643L10.0378 10.1407L10.0015 10.1732C7.60542 12.2387 3.81452 12.0744 1.66113 9.75473C-0.492269 7.4351 -0.400553 3.69579 1.96493 1.55768Z" fill="url(#paint15_radial_108_1488426)"/>
<path id="Vector_18" d="M1.96882 1.55387C3.14806 0.498853 4.69303 -0.0533334 6.27385 0.0152114C7.85466 0.0837563 9.34604 0.7676 10.4295 1.92073C10.4295 1.92073 8.45957 4.02253 7.2539 4.98937C7.2539 4.98937 6.83545 5.56259 6.9157 5.75366C7.15263 6.33834 10.12 10.0433 10.1085 10.0452L10.0245 10.1216C10.0133 10.1334 10.0011 10.1443 9.98816 10.1541C7.60547 12.2215 3.81458 12.0476 1.66692 9.73372C-0.480743 7.41982 -0.389028 3.68625 1.96882 1.55387Z" fill="url(#paint16_radial_108_1488426)"/>
<path id="Vector_19" d="M1.97075 1.55196C3.15141 0.498537 4.69731 -0.0512351 6.27799 0.0201759C7.85868 0.0915869 9.34871 0.778514 10.4296 1.93411C10.4296 1.93411 8.55514 3.95567 7.27112 4.97791C7.27112 4.97791 6.8756 5.53584 6.96159 5.7422C7.21954 6.36319 10.1028 10.0337 10.1009 10.0356C10.099 10.0375 10.0302 10.1025 10.0168 10.1121L9.98245 10.1445C7.60359 12.1967 3.81461 12.0132 1.67077 9.7108C-0.473075 7.40836 -0.389002 3.6767 1.97075 1.55196Z" fill="url(#paint17_radial_108_1488426)"/>
<path id="Vector_20" d="M1.9745 1.55002C3.15473 0.497288 4.69991 -0.0520735 6.27982 0.0193346C7.85972 0.0907428 9.34904 0.777256 10.4295 1.93217C10.4295 1.93217 8.65251 3.88684 7.29589 4.96259C7.29589 4.96259 6.9233 5.50906 7.0131 5.72688C7.28634 6.38226 10.097 10.0165 10.0932 10.0184L10.011 10.0948L9.97474 10.1273C7.60161 12.1718 3.81453 11.9845 1.67642 9.68783C-0.461688 7.39113 -0.379526 3.66711 1.9745 1.55002Z" fill="url(#paint18_radial_108_1488426)"/>
<path id="Vector_21" d="M1.9764 1.53854C3.15675 0.486849 4.7014 -0.0618513 6.2807 0.00954556C7.86 0.0809424 9.34884 0.766782 10.4295 1.92069C10.4295 1.92069 8.74804 3.80276 7.32263 4.93392C7.32263 4.93392 6.97105 5.46892 7.06659 5.69821C7.3532 6.38799 10.0894 9.98781 10.0875 9.98972L10.0034 10.0661L9.96708 10.0967C7.6016 12.1469 3.81452 11.954 1.68024 9.66681C-0.454052 7.37966 -0.37189 3.65755 1.9764 1.53854Z" fill="url(#paint19_radial_108_1488426)"/>
<path id="Vector_22" d="M1.98022 1.53856C3.16015 0.48757 4.70408 -0.0607207 6.2826 0.0106733C7.86112 0.0820673 9.34925 0.767493 10.4295 1.92071C9.47955 2.99781 8.44926 4.00128 7.34747 4.92248C7.34747 4.92248 7.01883 5.44793 7.12009 5.68677C7.42008 6.41094 10.0817 9.97255 10.0798 9.97637L9.99766 10.0509L9.96135 10.0834C7.59969 12.1221 3.81453 11.9253 1.68597 9.6439C-0.442587 7.36248 -0.366157 3.64037 1.98022 1.53856Z" fill="url(#paint20_radial_108_1488426)"/>
<path id="Vector_23" d="M1.98213 1.53855C3.16227 0.488017 4.7061 -0.05997 6.28447 0.0114173C7.86285 0.0828046 9.3509 0.767919 10.4314 1.9207C9.49475 2.99486 8.47233 3.99109 7.37422 4.89953C7.37422 4.89953 7.07041 5.41352 7.18315 5.66382C7.49842 6.42812 10.0875 9.9496 10.0836 9.95151L10.0015 10.0279L9.96517 10.0604C7.59968 12.0954 3.81452 11.8947 1.68979 9.62095C-0.434951 7.34718 -0.358521 3.64036 1.98213 1.53855Z" fill="url(#paint21_radial_108_1488426)"/>
<path id="Vector_24" d="M1.98595 1.53856C3.1661 0.489641 4.709 -0.0573309 6.2863 0.0140404C7.86361 0.0854118 9.3508 0.769492 10.4314 1.92071C9.50948 2.99564 8.49409 3.98673 7.39715 4.88235C7.39715 4.88235 7.11627 5.38678 7.22519 5.64664C7.55383 6.44724 10.0684 9.9458 10.0664 9.9458C10.0645 9.9458 9.99957 10.0089 9.98238 10.0222L9.94798 10.0528C7.59778 12.0705 3.81453 11.8565 1.69552 9.59804C-0.423483 7.33955 -0.352786 3.64037 1.98595 1.53856Z" fill="url(#paint22_radial_108_1488426)"/>
<path id="Vector_25" d="M1.98786 1.53857C3.16791 0.490226 4.71039 -0.0563903 6.28723 0.0149763C7.86408 0.0863429 9.35087 0.770061 10.4314 1.92071C9.52439 2.9976 8.51669 3.98547 7.42199 4.87089C7.42199 4.87089 7.16404 5.36386 7.27677 5.63518C7.62262 6.46253 10.0626 9.91905 10.0588 9.92096L9.97664 9.99548L9.94034 10.028C7.59587 12.0476 3.81452 11.8355 1.70125 9.57512C-0.412018 7.31472 -0.345142 3.62127 1.98786 1.53857Z" fill="url(#paint23_radial_108_1488426)"/>
<path id="Vector_26" d="M1.98981 1.53858C3.16975 0.490811 4.71182 -0.0554497 6.2882 0.0159122C7.86459 0.0872741 9.35099 0.770631 10.4314 1.92072C9.53993 2.9995 8.5391 3.98304 7.44496 4.85561C7.44496 4.85561 7.20994 5.33711 7.3284 5.6199C7.68762 6.48164 10.0531 9.89995 10.0512 9.90377L9.96713 9.97829L9.93082 10.0108C7.5959 12.0209 3.81456 11.8049 1.71275 9.55219C-0.389055 7.29944 -0.337466 3.61172 1.98981 1.53858Z" fill="url(#paint24_radial_108_1488426)"/>
<path id="Vector_27" d="M1.99361 1.53859C3.17335 0.491981 4.71458 -0.0535684 6.29004 0.017784C7.8655 0.0891364 9.35111 0.771771 10.4314 1.92074C9.55662 2.99988 8.56459 3.97845 7.4736 4.83843C7.4736 4.83843 7.25959 5.31038 7.38379 5.60272C7.76594 6.49885 10.0588 9.88276 10.0454 9.88658L9.96328 9.9611L9.92698 9.99167C7.59397 11.996 3.81454 11.7744 1.71273 9.52928C-0.389078 7.28417 -0.331756 3.60218 1.99361 1.53859Z" fill="url(#paint25_radial_108_1488426)"/>
<path id="Vector_28" d="M1.99549 1.53859C3.17534 0.493017 4.71606 -0.0518773 6.29091 0.0194639C7.86577 0.0908051 9.35091 0.772771 10.4314 1.92074C9.57417 3.00222 8.58937 3.97612 7.49841 4.82124C7.49841 4.82124 7.30734 5.28172 7.43536 5.58553C7.8175 6.51606 10.0416 9.86367 10.0378 9.86558C10.034 9.86749 9.97472 9.92481 9.95562 9.9401L9.91931 9.97258C7.59395 11.9712 3.81451 11.7457 1.71271 9.50636C-0.389102 7.26698 -0.324137 3.59263 1.99549 1.53859Z" fill="url(#paint26_radial_108_1488426)"/>
<path id="Vector_29" d="M1.9993 1.52715C3.18049 0.48359 4.72164 -0.0589525 6.29606 0.0145255C7.87049 0.0880034 9.35441 0.771726 10.4333 1.92076C10.4333 1.92076 9.51994 3.22006 7.52323 4.80405C7.52323 4.80405 7.35508 5.25499 7.48883 5.56835C7.89009 6.52371 10.0339 9.84648 10.032 9.84839L9.94795 9.92291L9.91355 9.95539C7.59201 11.9464 3.81449 11.7152 1.71269 9.48344C-0.389116 7.2517 -0.318419 3.58309 1.9993 1.52715Z" fill="url(#paint27_radial_108_1488426)"/>
<path id="Vector_30" d="M2.00125 1.52328C3.18303 0.48124 4.72395 -0.0599839 6.29778 0.0141962C7.87161 0.0883763 9.35479 0.772137 10.4333 1.92071C10.4333 1.92071 9.61744 3.13976 7.54811 4.78682C7.47101 5.03575 7.47101 5.30218 7.54811 5.55111C7.96465 6.55042 10.0321 9.82542 10.0321 9.82924L9.9499 9.90376L9.9136 9.93433C7.59015 11.9215 3.81454 11.6865 1.72611 9.46238C-0.362326 7.23829 -0.310736 3.57541 2.00125 1.52328Z" fill="url(#paint28_radial_108_1488426)"/>
<path id="Vector_31" d="M2.00509 1.52141C3.18648 0.479851 4.72691 -0.0609318 6.30012 0.013609C7.87332 0.0881498 9.35573 0.77216 10.4333 1.92076C10.4333 1.92076 9.71299 3.0672 7.56724 4.76202C7.49973 5.0134 7.50703 5.27902 7.58826 5.52631C8.01817 6.57339 10.0206 9.814 10.0168 9.81782L9.93464 9.89234L9.90024 9.92291C7.59017 11.8967 3.81456 11.6655 1.72994 9.43949C-0.354666 7.21349 -0.303076 3.5659 2.00509 1.52141Z" fill="url(#paint29_radial_108_1488426)"/>
<path id="Vector_32" d="M2.00704 1.51944C3.18856 0.478697 4.72872 -0.0613993 6.30147 0.0134935C7.87422 0.0883862 9.35609 0.772389 10.4334 1.9207C10.4334 1.9207 9.81047 3.00026 7.59784 4.75431C7.54462 5.00873 7.56113 5.2728 7.64561 5.51861C8.09081 6.58671 10.0149 9.791 10.0111 9.79483L9.92894 9.86743L9.89263 9.89992C7.58829 11.8718 3.81459 11.6253 1.73571 9.4165C-0.375645 7.17712 -0.297305 3.55628 2.00704 1.51944Z" fill="url(#paint30_radial_108_1488426)"/>
<path id="Vector_33" d="M2.01079 1.51569C3.19279 0.477027 4.7323 -0.0613981 6.304 0.0141915C7.87569 0.0897812 9.35643 0.773464 10.4333 1.92076C10.4333 1.92076 9.90594 2.92008 7.62261 4.72954C7.58321 4.98667 7.60951 5.24959 7.69904 5.49383C8.15762 6.59633 10.0072 9.76623 10.0034 9.76814L9.92123 9.84266L9.88492 9.87323C7.59204 11.8317 3.81834 11.5929 1.73946 9.38027C-0.339416 7.16764 -0.289736 3.5468 2.01079 1.51569Z" fill="url(#paint31_radial_108_1488426)"/>
<path id="Vector_34" d="M2.01279 1.5137C3.19524 0.47574 4.7348 -0.0620543 6.30635 0.0138852C7.87791 0.0898247 9.35844 0.773554 10.4353 1.92069C10.4353 1.92069 10.0035 2.84548 7.64945 4.71227C7.62367 4.9716 7.65901 5.23336 7.75263 5.47656C8.22458 6.62874 9.99965 9.7547 9.99583 9.76425L9.91367 9.83877L9.87928 9.86934C7.5864 11.8202 3.81461 11.5661 1.74529 9.37255C-0.356518 7.14463 -0.281999 3.53717 2.01279 1.5137Z" fill="url(#paint32_radial_108_1488426)"/>
<path id="Vector_35" d="M2.01658 1.51184C3.19884 0.474813 4.73782 -0.0622419 6.3086 0.0140513C7.87939 0.0903446 9.35907 0.774016 10.4353 1.92074C10.4353 1.92074 10.099 2.78057 7.67426 4.70277C7.66344 4.96383 7.70771 5.22424 7.80419 5.46706C8.29143 6.64598 9.99389 9.74328 9.99007 9.75475L9.90791 9.82736L9.8716 9.85793C7.58445 11.7954 3.81458 11.5375 1.74907 9.34776C-0.347003 7.12749 -0.276305 3.52767 2.01658 1.51184Z" fill="url(#paint33_radial_108_1488426)"/>
<path id="Vector_36" d="M2.01853 1.50798C3.20138 0.472466 4.74012 -0.063274 6.31031 0.0137206C7.8805 0.0907152 9.35944 0.774428 10.4353 1.9207C10.4353 1.9207 10.1965 2.70601 7.69914 4.68553C7.70326 4.95112 7.75705 5.21358 7.85773 5.45938C8.36025 6.66505 9.98629 9.72604 9.98246 9.72987L9.9003 9.80247L9.86591 9.83305C7.58449 11.7705 3.81462 11.5068 1.75485 9.32479C-0.337406 7.11216 -0.26862 3.51807 2.01853 1.50798Z" fill="url(#paint34_radial_108_1488426)"/>
<path id="Vector_37" d="M2.02228 1.5061C3.20579 0.474649 4.74316 -0.0576723 6.31109 0.0210802C7.87901 0.0998326 9.35531 0.783522 10.4295 1.92837C10.4295 1.92837 10.2862 2.63343 7.71818 4.66836C7.74035 4.93482 7.80485 5.19605 7.90925 5.4422C8.42706 6.68418 9.98049 9.70887 9.97666 9.71269L9.8945 9.7853C9.88155 9.79444 9.86941 9.80467 9.8582 9.81587C7.58252 11.7457 3.81455 11.4744 1.76051 9.30189C-0.327921 7.09499 -0.262956 3.51045 2.02228 1.5061Z" fill="url(#paint35_radial_108_1488426)"/>
<path id="Vector_38" d="M2.02415 1.5042C3.2077 0.472539 4.74531 -0.0597474 6.31338 0.0193689C7.88146 0.0984852 9.35769 0.782834 10.4314 1.92838C10.4314 1.92838 10.3855 2.56084 7.74489 4.65118C7.7824 4.91793 7.85433 5.17869 7.95889 5.42694C8.4939 6.69758 9.97281 9.68979 9.96899 9.69361L9.88682 9.76622C9.87536 9.76622 9.86198 9.78914 9.85052 9.79679C7.58057 11.7209 3.81451 11.4477 1.76429 9.27898C-0.318409 7.07972 -0.255355 3.50092 2.02415 1.5042Z" fill="url(#paint36_radial_108_1488426)"/>
<path id="Vector_39" d="M2.02796 1.50035C3.21239 0.470074 4.75009 -0.0609559 6.31788 0.0188592C7.88568 0.0986743 9.3615 0.78312 10.4352 1.92835C10.4352 1.92835 10.4849 2.49393 7.77353 4.63586C7.82906 4.90132 7.91099 5.16056 8.0181 5.40971C8.56266 6.72047 9.96896 9.67256 9.96323 9.67638C9.9575 9.6802 9.90782 9.72797 9.88107 9.74899L9.84667 9.77956C7.58246 11.6998 3.81449 11.4171 1.77001 9.25602C-0.31078 7.06249 -0.247726 3.49133 2.02796 1.50035Z" fill="url(#paint37_radial_108_1488426)"/>
<path id="Vector_40" d="M2.02993 1.49844C3.21464 0.468192 4.75272 -0.0624715 6.32066 0.0180641C7.88861 0.0985998 9.36423 0.784058 10.4371 1.93027C10.4371 1.93027 10.5824 2.41368 7.80034 4.61867C7.87177 4.88304 7.96114 5.14222 8.06784 5.39443C8.62768 6.73194 9.95946 9.65537 9.95564 9.65919L9.87348 9.7318L9.83718 9.76237C7.5806 11.6655 3.81455 11.3865 1.77389 9.23501C-0.301166 7.04531 -0.241933 3.48178 2.02993 1.49844Z" fill="url(#paint38_radial_108_1488426)"/>
<path id="Vector_41" d="M2.03382 1.49656C3.21877 0.466553 4.75699 -0.0637786 6.32495 0.0171136C7.8929 0.0980058 9.36839 0.783817 10.4411 1.9303C10.4411 1.9303 10.678 2.33919 7.82717 4.59577C7.82717 4.59577 7.93226 4.91677 8.12333 5.37153C8.69655 6.75108 9.95381 9.63246 9.94999 9.63628L9.86783 9.70889L9.83344 9.73755C7.57877 11.6464 3.81462 11.3579 1.77969 9.2121C-0.291545 7.02813 -0.234223 3.47226 2.03382 1.49656Z" fill="url(#paint39_radial_108_1488426)"/>
<path id="Vector_42" d="M9.94041 9.62478C7.70868 11.6311 3.8509 11.3655 1.78349 9.18149C-0.283921 6.99752 -0.22851 3.44929 2.03571 1.48506C3.22134 0.455981 4.75975 -0.0733913 6.32757 0.0082068C7.89539 0.0898048 9.37053 0.776019 10.4429 1.92261C10.4429 1.92261 10.7811 2.2589 7.8558 4.57662C7.85007 4.58427 9.94805 9.61905 9.94041 9.62478Z" fill="url(#paint40_radial_108_1488426)"/>
</g>
<path id="Vector_43" d="M7.76593 4.64881C6.85069 5.39973 5.72527 6.2844 4.41642 7.27607C5.38873 8.32756 6.51954 9.22047 7.76785 9.92244C8.83977 10.4957 9.67858 10.6027 10.0894 10.2396C10.5002 9.87658 10.4505 9.03968 9.97283 7.94674C9.40726 6.74269 8.66325 5.63086 7.76593 4.64881V4.64881Z" fill="url(#paint41_linear_108_1488426)"/>
<path id="Vector_44" d="M7.84809 4.5743L7.38952 4.95644C8.22917 5.87945 8.92718 6.92197 9.46075 8.04992C9.92888 9.12758 9.91742 9.66831 9.76647 9.80398C9.61552 9.93964 8.96396 9.97403 7.92261 9.42183C6.76906 8.76764 5.72575 7.93583 4.83104 6.95698L4.31897 7.33913L4.43934 7.45568C6.60803 9.69697 8.95441 10.9733 9.9862 10.509C10.0168 10.4938 10.0473 10.4785 10.076 10.4613H10.0875C10.1274 10.4365 10.1651 10.4084 10.2002 10.3772C10.2374 10.3435 10.2713 10.3064 10.3015 10.2664C10.976 9.3817 9.95181 6.99902 7.91115 4.6641L7.84809 4.5743Z" fill="var(--fill-0, #84EEB1)"/>
</g>
<defs>
<radialGradient id="paint0_radial_108_1488426" cx="0" cy="0" r="1" gradientTransform="matrix(27.4859 -1.09944 0.824577 20.3396 7.53448 0.679792)" gradientUnits="userSpaceOnUse">
<stop stop-color="#03BA50"/>
<stop offset="0.8" stop-color="#01B64E"/>
</radialGradient>
<radialGradient id="paint1_radial_108_1488426" cx="0" cy="0" r="1" gradientTransform="matrix(27.4286 -1.09714 0.822857 20.2972 7.53167 0.67762)" gradientUnits="userSpaceOnUse">
<stop stop-color="#04BC50"/>
<stop offset="0.8" stop-color="#01B34D"/>
</radialGradient>
<radialGradient id="paint2_radial_108_1488426" cx="0" cy="0" r="1" gradientTransform="matrix(27.3713 -1.09485 0.821138 20.2547 7.52516 0.682768)" gradientUnits="userSpaceOnUse">
<stop stop-color="#06BD51"/>
<stop offset="0.72" stop-color="#02B24C"/>
<stop offset="0.8" stop-color="#01B04B"/>
</radialGradient>
<radialGradient id="paint3_radial_108_1488426" cx="0" cy="0" r="1" gradientTransform="matrix(27.3139 -1.09256 0.819418 20.2123 7.5149 0.691409)" gradientUnits="userSpaceOnUse">
<stop stop-color="#08BF52"/>
<stop offset="0.56" stop-color="#04B44D"/>
<stop offset="0.8" stop-color="#01AD4A"/>
</radialGradient>
<radialGradient id="paint4_radial_108_1488426" cx="0" cy="0" r="1" gradientTransform="matrix(27.2566 -1.09026 0.817698 20.1699 7.50456 0.699695)" gradientUnits="userSpaceOnUse">
<stop stop-color="#0AC053"/>
<stop offset="0.48" stop-color="#05B54E"/>
<stop offset="0.8" stop-color="#01AA49"/>
</radialGradient>
<radialGradient id="paint5_radial_108_1488426" cx="0" cy="0" r="1" gradientTransform="matrix(27.1974 -0.815922 0.815921 20.1261 7.49253 0.720357)" gradientUnits="userSpaceOnUse">
<stop stop-color="#0BC253"/>
<stop offset="0.42" stop-color="#07B74E"/>
<stop offset="0.8" stop-color="#01A848"/>
</radialGradient>
<radialGradient id="paint6_radial_108_1488426" cx="0" cy="0" r="1" gradientTransform="matrix(27.1401 -0.814201 0.814202 20.0836 7.47667 0.725573)" gradientUnits="userSpaceOnUse">
<stop stop-color="#0DC354"/>
<stop offset="0.37" stop-color="#08B84F"/>
<stop offset="0.8" stop-color="#01A546"/>
</radialGradient>
<radialGradient id="paint7_radial_108_1488426" cx="0" cy="0" r="1" gradientTransform="matrix(27.0827 -0.812482 0.541654 20.0412 7.67842 0.730916)" gradientUnits="userSpaceOnUse">
<stop stop-color="#0FC555"/>
<stop offset="0.33" stop-color="#0ABA50"/>
<stop offset="0.8" stop-color="#01A245"/>
</radialGradient>
<radialGradient id="paint8_radial_108_1488426" cx="0" cy="0" r="1" gradientTransform="matrix(27.2957 -0.810762 0.540508 19.9988 7.65836 0.740603)" gradientUnits="userSpaceOnUse">
<stop stop-color="#11C656"/>
<stop offset="0.3" stop-color="#0CBB51"/>
<stop offset="0.8" stop-color="#019F44"/>
</radialGradient>
<radialGradient id="paint9_radial_108_1488426" cx="0" cy="0" r="1" gradientTransform="matrix(27.2378 -0.809043 0.539362 19.9564 7.65161 0.750409)" gradientUnits="userSpaceOnUse">
<stop stop-color="#12C856"/>
<stop offset="0.28" stop-color="#0EBD51"/>
<stop offset="0.77" stop-color="#029E44"/>
<stop offset="0.8" stop-color="#019C43"/>
</radialGradient>
<radialGradient id="paint10_radial_108_1488426" cx="0" cy="0" r="1" gradientTransform="matrix(27.1779 -0.807266 0.538177 19.9126 7.64497 0.763572)" gradientUnits="userSpaceOnUse">
<stop stop-color="#14C957"/>
<stop offset="0.26" stop-color="#0FBE52"/>
<stop offset="0.72" stop-color="#049F44"/>
<stop offset="0.8" stop-color="#019941"/>
</radialGradient>
<radialGradient id="paint11_radial_108_1488426" cx="0" cy="0" r="1" gradientTransform="matrix(27.1201 -0.805546 0.537031 19.8701 7.63252 0.779901)" gradientUnits="userSpaceOnUse">
<stop stop-color="#16CB58"/>
<stop offset="0.24" stop-color="#11C053"/>
<stop offset="0.66" stop-color="#06A145"/>
<stop offset="0.8" stop-color="#019640"/>
</radialGradient>
<radialGradient id="paint12_radial_108_1488426" cx="0" cy="0" r="1" gradientTransform="matrix(27.0622 -0.803827 0.535885 19.8277 7.61821 0.797526)" gradientUnits="userSpaceOnUse">
<stop stop-color="#18CC59"/>
<stop offset="0.23" stop-color="#13C154"/>
<stop offset="0.62" stop-color="#07A246"/>
<stop offset="0.8" stop-color="#01933F"/>
</radialGradient>
<radialGradient id="paint13_radial_108_1488426" cx="0" cy="0" r="1" gradientTransform="matrix(27.0023 -0.802049 0.534699 19.7839 7.60386 0.818701)" gradientUnits="userSpaceOnUse">
<stop stop-color="#19CD59"/>
<stop offset="0.21" stop-color="#15C254"/>
<stop offset="0.59" stop-color="#09A347"/>
<stop offset="0.8" stop-color="#01903E"/>
</radialGradient>
<radialGradient id="paint14_radial_108_1488426" cx="0" cy="0" r="1" gradientTransform="matrix(26.9444 -0.80033 0.533553 19.7415 7.58575 0.841394)" gradientUnits="userSpaceOnUse">
<stop stop-color="#1BCF5A"/>
<stop offset="0.2" stop-color="#17C455"/>
<stop offset="0.56" stop-color="#0BA547"/>
<stop offset="0.8" stop-color="#018D3C"/>
</radialGradient>
<radialGradient id="paint15_radial_108_1488426" cx="0" cy="0" r="1" gradientTransform="matrix(26.8865 -0.532407 0.532407 19.699 7.56572 0.758383)" gradientUnits="userSpaceOnUse">
<stop stop-color="#1DD05B"/>
<stop offset="0.19" stop-color="#18C556"/>
<stop offset="0.54" stop-color="#0CA648"/>
<stop offset="0.8" stop-color="#018B3B"/>
</radialGradient>
<radialGradient id="paint16_radial_108_1488426" cx="0" cy="0" r="1" gradientTransform="matrix(26.8267 -0.531222 0.531222 19.6552 7.54385 0.775624)" gradientUnits="userSpaceOnUse">
<stop stop-color="#1ED25B"/>
<stop offset="0.18" stop-color="#1AC756"/>
<stop offset="0.51" stop-color="#0EA848"/>
<stop offset="0.8" stop-color="#01883A"/>
</radialGradient>
<radialGradient id="paint17_radial_108_1488426" cx="0" cy="0" r="1" gradientTransform="matrix(26.7688 -0.530076 0.530075 19.6128 7.52198 0.79241)" gradientUnits="userSpaceOnUse">
<stop stop-color="#20D35C"/>
<stop offset="0.18" stop-color="#1BC857"/>
<stop offset="0.49" stop-color="#0FA949"/>
<stop offset="0.8" stop-color="#018539"/>
</radialGradient>
<radialGradient id="paint18_radial_108_1488426" cx="0" cy="0" r="1" gradientTransform="matrix(26.7109 -0.528929 0.528929 19.5704 7.49621 0.815915)" gradientUnits="userSpaceOnUse">
<stop stop-color="#22D55D"/>
<stop offset="0.17" stop-color="#1DCA58"/>
<stop offset="0.47" stop-color="#11AB4A"/>
<stop offset="0.8" stop-color="#018237"/>
</radialGradient>
<radialGradient id="paint19_radial_108_1488426" cx="0" cy="0" r="1" gradientTransform="matrix(26.6511 -0.527745 0.527744 19.5266 7.46664 0.837607)" gradientUnits="userSpaceOnUse">
<stop stop-color="#24D65E"/>
<stop offset="0.16" stop-color="#1FCB59"/>
<stop offset="0.45" stop-color="#13AC4B"/>
<stop offset="0.8" stop-color="#017F36"/>
</radialGradient>
<radialGradient id="paint20_radial_108_1488426" cx="0" cy="0" r="1" gradientTransform="matrix(26.5932 -0.526598 0.526598 19.4841 7.43521 0.864151)" gradientUnits="userSpaceOnUse">
<stop stop-color="#25D85E"/>
<stop offset="0.15" stop-color="#20CD59"/>
<stop offset="0.43" stop-color="#14AE4B"/>
<stop offset="0.79" stop-color="#017D36"/>
<stop offset="0.8" stop-color="#007C35"/>
</radialGradient>
<radialGradient id="paint21_radial_108_1488426" cx="0" cy="0" r="1" gradientTransform="matrix(26.5353 -0.525452 0.262726 19.4417 8.01353 0.89406)" gradientUnits="userSpaceOnUse">
<stop stop-color="#27D95F"/>
<stop offset="0.15" stop-color="#22CE5A"/>
<stop offset="0.42" stop-color="#16AF4C"/>
<stop offset="0.77" stop-color="#027E36"/>
<stop offset="0.8" stop-color="#007934"/>
</radialGradient>
<radialGradient id="paint22_radial_108_1488426" cx="0" cy="0" r="1" gradientTransform="matrix(26.7376 -0.524268 0.262134 19.3979 7.81587 0.924948)" gradientUnits="userSpaceOnUse">
<stop stop-color="#29DB60"/>
<stop offset="0.14" stop-color="#24D05B"/>
<stop offset="0.4" stop-color="#18B14D"/>
<stop offset="0.74" stop-color="#048037"/>
<stop offset="0.8" stop-color="#007632"/>
</radialGradient>
<radialGradient id="paint23_radial_108_1488426" cx="0" cy="0" r="1" gradientTransform="matrix(26.6792 -0.523121 0.26156 19.3555 7.79254 0.959271)" gradientUnits="userSpaceOnUse">
<stop stop-color="#2BDC61"/>
<stop offset="0.14" stop-color="#26D15C"/>
<stop offset="0.39" stop-color="#1AB24E"/>
<stop offset="0.71" stop-color="#068138"/>
<stop offset="0.8" stop-color="#007331"/>
</radialGradient>
<radialGradient id="paint24_radial_108_1488426" cx="0" cy="0" r="1" gradientTransform="matrix(26.6187 -0.521936 0.260968 19.3116 7.76923 0.996959)" gradientUnits="userSpaceOnUse">
<stop stop-color="#2CDE61"/>
<stop offset="0.13" stop-color="#27D35C"/>
<stop offset="0.37" stop-color="#1BB44E"/>
<stop offset="0.69" stop-color="#088339"/>
<stop offset="0.8" stop-color="#007030"/>
</radialGradient>
<radialGradient id="paint25_radial_108_1488426" cx="0" cy="0" r="1" gradientTransform="matrix(26.5603 -0.260395 0.260395 19.2692 7.74389 0.805673)" gradientUnits="userSpaceOnUse">
<stop stop-color="#2EDF62"/>
<stop offset="0.13" stop-color="#29D45D"/>
<stop offset="0.37" stop-color="#1DB54F"/>
<stop offset="0.67" stop-color="#098439"/>
<stop offset="0.8" stop-color="#006E2F"/>
</radialGradient>
<radialGradient id="paint26_radial_108_1488426" cx="0" cy="0" r="1" gradientTransform="matrix(26.5018 -0.259822 0.259822 19.2268 7.71465 0.835578)" gradientUnits="userSpaceOnUse">
<stop stop-color="#30E163"/>
<stop offset="0.13" stop-color="#2BD65E"/>
<stop offset="0.35" stop-color="#1FB750"/>
<stop offset="0.65" stop-color="#0B8639"/>
<stop offset="0.8" stop-color="#006B2D"/>
</radialGradient>
<radialGradient id="paint27_radial_108_1488426" cx="0" cy="0" r="1" gradientTransform="matrix(26.4414 -0.259229 0.259229 19.183 7.68539 0.868841)" gradientUnits="userSpaceOnUse">
<stop stop-color="#31E263"/>
<stop offset="0.12" stop-color="#2CD75E"/>
<stop offset="0.34" stop-color="#20B850"/>
<stop offset="0.63" stop-color="#0D873A"/>
<stop offset="0.8" stop-color="#00682C"/>
</radialGradient>
<radialGradient id="paint28_radial_108_1488426" cx="0" cy="0" r="1" gradientTransform="matrix(26.3829 -0.258656 0.258656 19.1406 7.65232 0.903497)" gradientUnits="userSpaceOnUse">
<stop stop-color="#33E364"/>
<stop offset="0.12" stop-color="#2ED85F"/>
<stop offset="0.34" stop-color="#22B951"/>
<stop offset="0.62" stop-color="#0E883B"/>
<stop offset="0.8" stop-color="#00652B"/>
</radialGradient>
<radialGradient id="paint29_radial_108_1488426" cx="0" cy="0" r="1" gradientTransform="matrix(26.3225 -0.258064 0.258064 19.0967 7.61728 0.941105)" gradientUnits="userSpaceOnUse">
<stop stop-color="#35E565"/>
<stop offset="0.12" stop-color="#30DA60"/>
<stop offset="0.33" stop-color="#24BB52"/>
<stop offset="0.6" stop-color="#108A3C"/>
<stop offset="0.8" stop-color="#00622A"/>
</radialGradient>
<radialGradient id="paint30_radial_108_1488426" cx="0" cy="0" r="1" gradientTransform="matrix(26.264 -0.25749 0.25749 19.0543 7.58223 0.980042)" gradientUnits="userSpaceOnUse">
<stop stop-color="#37E666"/>
<stop offset="0.11" stop-color="#32DB61"/>
<stop offset="0.32" stop-color="#26BC53"/>
<stop offset="0.59" stop-color="#128B3C"/>
<stop offset="0.8" stop-color="#005F28"/>
</radialGradient>
<radialGradient id="paint31_radial_108_1488426" cx="0" cy="0" r="1" gradientTransform="matrix(26.2036 -0.256898 0.256898 19.0105 7.54317 1.02249)" gradientUnits="userSpaceOnUse">
<stop stop-color="#38E866"/>
<stop offset="0.11" stop-color="#33DD61"/>
<stop offset="0.31" stop-color="#27BE53"/>
<stop offset="0.57" stop-color="#148D3D"/>
<stop offset="0.8" stop-color="#005C27"/>
</radialGradient>
<radialGradient id="paint32_radial_108_1488426" cx="0" cy="0" r="1" gradientTransform="matrix(26.1451 -0.256325 0.256325 18.968 7.50235 1.06764)" gradientUnits="userSpaceOnUse">
<stop stop-color="#3AE967"/>
<stop offset="0.11" stop-color="#35DE62"/>
<stop offset="0.3" stop-color="#29BF54"/>
<stop offset="0.56" stop-color="#158E3E"/>
<stop offset="0.8" stop-color="#005926"/>
</radialGradient>
<radialGradient id="paint33_radial_108_1488426" cx="0" cy="0" r="1" gradientTransform="matrix(26.0867 -0.255752 0.255752 18.9256 7.46135 1.11437)" gradientUnits="userSpaceOnUse">
<stop stop-color="#3CEB68"/>
<stop offset="0.11" stop-color="#37E063"/>
<stop offset="0.29" stop-color="#2BC155"/>
<stop offset="0.54" stop-color="#17903F"/>
<stop offset="0.8" stop-color="#005625"/>
</radialGradient>
<radialGradient id="paint34_radial_108_1488426" cx="0" cy="0" r="1" gradientTransform="matrix(26.0263 -0.255159 0.255159 18.8818 7.41459 1.16439)" gradientUnits="userSpaceOnUse">
<stop stop-color="#3EEC69"/>
<stop offset="0.1" stop-color="#39E164"/>
<stop offset="0.29" stop-color="#2DC256"/>
<stop offset="0.53" stop-color="#19913F"/>
<stop offset="0.8" stop-color="#005323"/>
</radialGradient>
<radialGradient id="paint35_radial_108_1488426" cx="0" cy="0" r="1" gradientTransform="matrix(25.9678 0 0.254586 18.8394 7.36777 0.867108)" gradientUnits="userSpaceOnUse">
<stop stop-color="#3FEE69"/>
<stop offset="0.1" stop-color="#3AE364"/>
<stop offset="0.28" stop-color="#2EC456"/>
<stop offset="0.52" stop-color="#1A9340"/>
<stop offset="0.8" stop-color="#005122"/>
</radialGradient>
<radialGradient id="paint36_radial_108_1488426" cx="0" cy="0" r="1" gradientUnits="userSpaceOnUse" gradientTransform="translate(7.98077 0.90893) scale(26.1614 18.7955)">
<stop stop-color="#41EF6A"/>
<stop offset="0.1" stop-color="#3CE465"/>
<stop offset="0.28" stop-color="#30C557"/>
<stop offset="0.51" stop-color="#1C9441"/>
<stop offset="0.79" stop-color="#015022"/>
<stop offset="0.8" stop-color="#004E21"/>
</radialGradient>
<radialGradient id="paint37_radial_108_1488426" cx="0" cy="0" r="1" gradientUnits="userSpaceOnUse" gradientTransform="translate(7.94297 0.954032) scale(26.1043 18.7545)">
<stop stop-color="#43F16B"/>
<stop offset="0.1" stop-color="#3EE666"/>
<stop offset="0.27" stop-color="#32C758"/>
<stop offset="0.5" stop-color="#1E9642"/>
<stop offset="0.77" stop-color="#035223"/>
<stop offset="0.8" stop-color="#004B20"/>
</radialGradient>
<radialGradient id="paint38_radial_108_1488426" cx="0" cy="0" r="1" gradientUnits="userSpaceOnUse" gradientTransform="translate(7.90717 1.00199) scale(26.0452 18.7121)">
<stop stop-color="#45F26C"/>
<stop offset="0.1" stop-color="#40E767"/>
<stop offset="0.27" stop-color="#34C859"/>
<stop offset="0.49" stop-color="#209742"/>
<stop offset="0.76" stop-color="#055323"/>
<stop offset="0.8" stop-color="#00481E"/>
</radialGradient>
<radialGradient id="paint39_radial_108_1488426" cx="0" cy="0" r="1" gradientUnits="userSpaceOnUse" gradientTransform="translate(7.86935 1.05331) scale(25.9843 18.6683)">
<stop stop-color="#46F46C"/>
<stop offset="0.09" stop-color="#41E967"/>
<stop offset="0.26" stop-color="#35CA59"/>
<stop offset="0.48" stop-color="#229943"/>
<stop offset="0.74" stop-color="#065524"/>
<stop offset="0.8" stop-color="#00451D"/>
</radialGradient>
<radialGradient id="paint40_radial_108_1488426" cx="0" cy="0" r="1" gradientUnits="userSpaceOnUse" gradientTransform="translate(7.83335 1.10738) scale(25.9232 18.6245)">
<stop stop-color="#48F56D"/>
<stop offset="0.09" stop-color="#43EA68"/>
<stop offset="0.25" stop-color="#37CB5A"/>
<stop offset="0.47" stop-color="#239A44"/>
<stop offset="0.73" stop-color="#085625"/>
<stop offset="0.8" stop-color="#00421C"/>
</radialGradient>
<linearGradient id="paint41_linear_108_1488426" x1="8.25508" y1="14.4986" x2="6.01952" y2="-1.53241" gradientUnits="userSpaceOnUse">
<stop offset="0.1" stop-color="#FF8475"/>
<stop offset="0.37" stop-color="#E84E43"/>
<stop offset="0.6" stop-color="#D6261F"/>
<stop offset="0.79" stop-color="#CC0E08"/>
<stop offset="0.9" stop-color="#C80500"/>
</linearGradient>
</defs>
</svg>
