<svg width="24" height="24" viewBox="0 0 24 24" fill="none" xmlns="http://www.w3.org/2000/svg">
<path d="M16.6169 14.4959C17.0075 14.1054 17.6406 14.1054 18.0311 14.4959C18.4217 14.8864 18.4217 15.5196 18.0311 15.9101L14.8492 19.0921C12.1155 21.8258 7.68334 21.8258 4.94967 19.0921C2.216 16.3584 2.216 11.9263 4.94967 9.19261L10.6065 3.53576C12.5591 1.58313 15.725 1.58313 17.6776 3.53576C19.6302 5.48838 19.6302 8.6542 17.6776 10.6068L12.0207 16.2637C10.8492 17.4352 8.94967 17.4352 7.77809 16.2637C6.60652 15.0921 6.60652 13.1926 7.77809 12.021L12.3743 7.42484C12.7648 7.03432 13.398 7.03432 13.7885 7.42484C14.179 7.81537 14.179 8.44853 13.7885 8.83906L9.19231 13.4353C8.80178 13.8258 8.80178 14.4589 9.19231 14.8495C9.58283 15.24 10.216 15.24 10.6065 14.8495L16.2634 9.19261C17.4349 8.02104 17.4349 6.12154 16.2634 4.94997C15.0918 3.7784 13.1923 3.7784 12.0207 4.94997L6.36388 10.6068C4.41126 12.5594 4.41126 15.7253 6.36388 17.6779C8.3165 19.6305 11.4823 19.6305 13.4349 17.6779L16.6169 14.4959Z" fill="#0D0D0F"/>
</svg>
