<svg width="16" height="16" viewBox="0 0 16 16" fill="none" xmlns="http://www.w3.org/2000/svg">
<path d="M13.9995 12.6662C14.3675 12.6664 14.6655 12.9651 14.6655 13.3332C14.6655 13.7013 14.3676 14 13.9995 14.0002H1.99951C1.63132 14.0002 1.33252 13.7014 1.33252 13.3332C1.33253 12.965 1.63133 12.6662 1.99951 12.6662H13.9995ZM2.99951 7.33322C3.3677 7.33322 3.6665 7.63202 3.6665 8.00021V11.3332C3.6665 11.7014 3.3677 12.0002 2.99951 12.0002C2.63151 12 2.3335 11.7013 2.3335 11.3332V8.00021C2.3335 7.63216 2.63151 7.33344 2.99951 7.33322ZM6.33154 7.33322C6.69962 7.33335 6.99755 7.6321 6.99756 8.00021V11.3332C6.99756 11.7013 6.69962 12.0001 6.33154 12.0002C5.96335 12.0002 5.66455 11.7014 5.66455 11.3332V8.00021C5.66456 7.63202 5.96336 7.33322 6.33154 7.33322ZM9.6665 7.33322C10.0345 7.33339 10.3325 7.63213 10.3325 8.00021V11.3332C10.3325 11.7013 10.0345 12 9.6665 12.0002C9.29831 12.0002 8.99951 11.7014 8.99951 11.3332V8.00021C8.99952 7.63202 9.29832 7.33322 9.6665 7.33322ZM12.9976 7.33322C13.3657 7.33322 13.6645 7.63202 13.6646 8.00021V11.3332C13.6646 11.7014 13.3657 12.0002 12.9976 12.0002C12.6294 12.0002 12.3306 11.7014 12.3306 11.3332V8.00021C12.3306 7.63202 12.6294 7.33322 12.9976 7.33322ZM7.3042 0.97677C7.73096 0.716146 8.26812 0.716007 8.69482 0.97677L14.187 4.33419C14.4842 4.51578 14.6654 4.83851 14.6655 5.18673V5.6672C14.6653 6.21931 14.2177 6.6672 13.6655 6.6672H2.33252C1.78036 6.6672 1.33272 6.21931 1.33252 5.6672V5.18673C1.33265 4.83858 1.514 4.5158 1.81104 4.33419L7.3042 0.97677ZM5.31396 3.75607L2.71924 5.00118C2.42274 5.14404 2.53992 5.59107 2.86865 5.57052C2.90704 5.56708 5.52448 5.33321 6.99951 5.33322C7.99918 5.33322 7.99962 5.3332 8.99951 5.33322C10.4855 5.33326 13.1304 5.57052 13.1304 5.57052C13.459 5.59085 13.5756 5.14386 13.2788 5.00118L10.6841 3.75607L7.99951 2.11446L5.31396 3.75607Z" fill="#0D0D0F"/>
</svg>
