<svg width="24" height="24" viewBox="0 0 24 24" fill="none" xmlns="http://www.w3.org/2000/svg">
<path fill-rule="evenodd" clip-rule="evenodd" d="M13 2H11L10.6408 4.1555C8.35687 4.68662 6.54016 6.5291 6.10557 8.91935L5.35777 13.0323C5.13255 14.271 4.33726 15.3314 3.21115 15.8944L3 16V18C3 18.7903 5.0645 19.4773 8.08112 19.8015C8.23702 20.5637 8.61325 21.2701 9.17157 21.8284C9.92172 22.5786 10.9391 23 12 23C13.0609 23 14.0783 22.5786 14.8284 21.8284C15.3868 21.2701 15.763 20.5637 15.9189 19.8015C18.9355 19.4773 21 18.7903 21 18V16L20.7889 15.8944C19.6627 15.3314 18.8675 14.271 18.6422 13.0323L17.8944 8.91935C17.4598 6.52911 15.6431 4.68663 13.3593 4.1555L13 2ZM13.7533 19.9623C13.1868 19.987 12.6006 20 12 20C11.3994 20 10.8132 19.987 10.2467 19.9623C10.337 20.1268 10.4507 20.2791 10.5858 20.4142C10.9609 20.7893 11.4696 21 12 21C12.5304 21 13.0391 20.7893 13.4142 20.4142C13.5493 20.2791 13.663 20.1268 13.7533 19.9623Z" fill="#0D0D0F"/>
</svg>
