<svg width="24" height="24" viewBox="0 0 24 24" fill="none" xmlns="http://www.w3.org/2000/svg">
<path fill-rule="evenodd" clip-rule="evenodd" d="M13 2H11L10.6408 4.1555C8.35687 4.68662 6.54016 6.5291 6.10557 8.91935L5.35777 13.0323C5.13255 14.271 4.33726 15.3314 3.21115 15.8944L3 16V18C3 18.7903 5.0645 19.4773 8.08112 19.8015C8.23702 20.5637 8.61325 21.2701 9.17157 21.8284C9.92172 22.5786 10.9391 23 12 23C13.0609 23 14.0783 22.5786 14.8284 21.8284C15.3868 21.2701 15.763 20.5637 15.9189 19.8015C18.9355 19.4773 21 18.7903 21 18V16L20.7889 15.8944C19.6627 15.3314 18.8675 14.271 18.6422 13.0323L17.8944 8.91935C17.4598 6.52911 15.6431 4.68663 13.3593 4.1555L13 2ZM13.7533 19.9623C13.1868 19.987 12.6006 20 12 20C11.3994 20 10.8132 19.987 10.2467 19.9623C10.337 20.1268 10.4507 20.2791 10.5858 20.4142C10.9609 20.7893 11.4696 21 12 21C12.5304 21 13.0391 20.7893 13.4142 20.4142C13.5493 20.2791 13.663 20.1268 13.7533 19.9623ZM7.32551 13.39L8.07331 9.27712C8.41835 7.37941 10.0712 6 12 6C13.9288 6 15.5816 7.37941 15.9267 9.27712L16.6745 13.39C16.9491 14.9001 17.7884 16.2336 19 17.1334V17.163C18.7458 17.2553 18.3959 17.3587 17.9395 17.4605C16.4959 17.7825 14.399 18 12 18C9.60099 18 7.50406 17.7825 6.06045 17.4605C5.60409 17.3587 5.25416 17.2553 5 17.163V17.1334C6.21156 16.2336 7.05094 14.9001 7.32551 13.39Z" fill="#0D0D0F"/>
</svg>
