<svg width="24" height="24" viewBox="0 0 24 24" fill="none" xmlns="http://www.w3.org/2000/svg">
<path fill-rule="evenodd" clip-rule="evenodd" d="M12.6833 1.3548C12.3626 0.881733 11.6374 0.881734 11.3167 1.3548L9.71854 3.71222C9.50924 4.02095 9.10184 4.14731 8.74241 4.01498L5.99782 3.00449C5.44706 2.80171 4.86044 3.20855 4.89228 3.77121L5.05093 6.57512C5.07171 6.94232 4.81992 7.27313 4.44765 7.36774L1.605 8.09016C1.03457 8.23513 0.810501 8.8934 1.18273 9.33074L3.03763 11.5101C3.28055 11.7956 3.28055 12.2044 3.03763 12.4899L1.18273 14.6693C0.810501 15.1066 1.03457 15.7649 1.605 15.9098L4.44765 16.6323C4.81992 16.7269 5.07171 17.0577 5.05093 17.4249L4.89228 20.2288C4.86044 20.7914 5.44706 21.1983 5.99782 20.9955L8.74241 19.985C9.10184 19.8527 9.50924 19.979 9.71854 20.2878L11.3167 22.6452C11.6374 23.1183 12.3626 23.1183 12.6833 22.6452L14.2815 20.2878C14.4908 19.979 14.8982 19.8527 15.2576 19.985L18.0022 20.9955C18.5529 21.1983 19.1396 20.7914 19.1077 20.2288L18.9491 17.4249C18.9283 17.0577 19.1801 16.7269 19.5524 16.6323L22.395 15.9098C22.9654 15.7649 23.1895 15.1066 22.8173 14.6693L20.9624 12.4899C20.7195 12.2044 20.7195 11.7956 20.9624 11.5101L22.8173 9.33074C23.1895 8.8934 22.9654 8.23513 22.395 8.09016L19.5524 7.36774C19.1801 7.27313 18.9283 6.94232 18.9491 6.57512L19.1077 3.77121C19.1396 3.20855 18.5529 2.80171 18.0022 3.00449L15.2576 4.01498C14.8982 4.14731 14.4908 4.02095 14.2815 3.71222L12.6833 1.3548ZM9.31 15.876H10.916L15.283 8H13.677L9.31 15.876ZM11.235 11.443C11.433 11.1057 11.532 10.695 11.532 10.211C11.532 9.727 11.433 9.32 11.235 8.99C11.037 8.66 10.7657 8.41433 10.421 8.253C10.0763 8.08433 9.69133 8 9.266 8C8.606 8 8.06333 8.19433 7.638 8.583C7.21267 8.97167 7 9.529 7 10.255C7 10.981 7.21267 11.531 7.638 11.905C8.06333 12.279 8.606 12.466 9.266 12.466C9.69133 12.466 10.0763 12.3817 10.421 12.213C10.7657 12.037 11.037 11.7803 11.235 11.443ZM8.826 11.025C8.72333 10.871 8.672 10.607 8.672 10.233C8.672 9.86633 8.72333 9.606 8.826 9.452C8.92867 9.298 9.07533 9.221 9.266 9.221C9.442 9.221 9.58133 9.298 9.684 9.452C9.794 9.606 9.849 9.86633 9.849 10.233C9.849 10.607 9.79767 10.871 9.695 11.025C9.59233 11.179 9.44933 11.256 9.266 11.256C9.07533 11.256 8.92867 11.179 8.826 11.025ZM17.296 14.853C17.5013 14.5157 17.604 14.105 17.604 13.621C17.604 13.137 17.5013 12.73 17.296 12.4C17.098 12.07 16.8267 11.8243 16.482 11.663C16.1447 11.4943 15.7633 11.41 15.338 11.41C14.6707 11.41 14.1207 11.6043 13.688 11.993C13.2627 12.3817 13.05 12.939 13.05 13.665C13.05 14.391 13.2627 14.941 13.688 15.315C14.1207 15.689 14.6707 15.876 15.338 15.876C15.7633 15.876 16.1447 15.788 16.482 15.612C16.8267 15.436 17.098 15.183 17.296 14.853ZM14.898 12.862C15.0007 12.7007 15.1473 12.62 15.338 12.62C15.5213 12.62 15.6643 12.7007 15.767 12.862C15.8697 13.016 15.921 13.2763 15.921 13.643C15.921 14.0097 15.8697 14.2737 15.767 14.435C15.6643 14.589 15.5213 14.666 15.338 14.666C15.1473 14.666 15.0007 14.589 14.898 14.435C14.7953 14.2737 14.744 14.0097 14.744 13.643C14.744 13.2763 14.7953 13.016 14.898 12.862Z" fill="#0D0D0F"/>
</svg>
