<svg width="24" height="24" viewBox="0 0 24 24" fill="none" xmlns="http://www.w3.org/2000/svg">
<path fill-rule="evenodd" clip-rule="evenodd" d="M13 21C15.2767 19.634 18.5811 18.9977 22 18.9977H23V4.1144L22.1235 4.00531C18.2276 3.52041 14.7188 4.37061 12.0528 6.21276C9.64012 4.32563 5.67809 3.53145 1.87643 4.00486L1 4.114V18.9972H2C5.90427 18.9972 8.71524 19.6291 11 21H13ZM3 17.0083V5.90541C6.29552 5.68261 9.34431 6.52616 11 7.93465V18.8443C8.67994 17.5725 6.30389 17.0853 3 17.0083ZM13 18.8478C15.3484 17.5855 18.0383 17.0969 21 17.0116V5.9055C17.8104 5.68866 15.0536 6.50322 13 7.99259V18.8478Z" fill="#0D0D0F"/>
</svg>
