<svg width="24" height="24" viewBox="0 0 24 24" fill="none" xmlns="http://www.w3.org/2000/svg">
<path fill-rule="evenodd" clip-rule="evenodd" d="M7 4C7 2.34315 8.34315 1 10 1H14C15.6569 1 17 2.34315 17 4V5H19C20.6569 5 22 6.34315 22 8V18C22 19.6569 20.6569 21 19 21H5C3.34315 21 2 19.6569 2 18V8C2 6.34315 3.34315 5 5 5H7V4ZM15 4V5H9V4C9 3.44772 9.44772 3 10 3H14C14.5523 3 15 3.44772 15 4ZM5 7H7H9H15H17H19C19.5523 7 20 7.44772 20 8V11.9414C18.1913 12.6936 15.4479 13.5001 11.9999 13.5001C8.32602 13.5001 5.68457 12.6237 4 11.7898V8C4 7.44772 4.44772 7 5 7ZM4 13.9884V18C4 18.5523 4.44772 19 5 19H19C19.5523 19 20 18.5523 20 18V14.0898C18.0302 14.8199 15.3077 15.5001 11.9999 15.5001C8.56112 15.5001 5.90685 14.7938 4 13.9884ZM11 9C10.4477 9 10 9.44771 10 10C10 10.5523 10.4477 11 11 11H13C13.5523 11 14 10.5523 14 10C14 9.44771 13.5523 9 13 9H11Z" fill="#0D0D0F"/>
</svg>
