<svg width="24" height="24" viewBox="0 0 24 24" fill="none" xmlns="http://www.w3.org/2000/svg">
<path d="M21 6V5.18C21 4.351 20.482 3.6 19.713 3.311C18.41 2.821 15.675 2 12 2C8.325 2 5.59 2.821 4.288 3.311C3.518 3.599 3 4.351 3 5.18V6.001C2.172 6.001 1.5 6.672 1.5 7.5V11H3V22H5.31L6 20H18L18.69 22H21V11H22.5V7.5C22.5 6.672 21.829 6 21 6ZM7.998 17H5V15H6.998C7.548 15 7.998 15.45 7.998 16V17ZM19 17H16.011V16C16.011 15.448 16.459 15 17.011 15H19V17ZM19 10.818C17.926 11.22 15.398 12 12 12C8.602 12 6.073 11.219 5 10.818V5.18C5.469 5.004 6.149 4.783 7 4.578C7 5.275 7.47 5.934 8.143 6.095C8.774 6.246 10.113 6.5 12 6.5C13.889 6.5 15.227 6.246 15.854 6.096C16.529 5.936 17 5.276 17 4.578C17.854 4.783 18.535 5.005 19 5.18V10.818Z" fill="#0D0D0F"/>
</svg>
