<svg width="24" height="24" viewBox="0 0 24 24" fill="none" xmlns="http://www.w3.org/2000/svg">
<path d="M8.998 15V16H6V14H7.998C8.551 14 8.998 14.448 8.998 15ZM15.011 15V16H18V14H16.011C15.459 14 15.011 14.448 15.011 15ZM22.5 7.5V10H21V22H19L18.25 20H5.75L5 22H3V10H1.5V7.5C1.5 6.672 2.172 6 3 6V5.446C3 4.296 3.78 3.292 4.898 3.019C6.719 2.575 9.547 2 12 2C14.453 2 17.281 2.575 19.102 3.02C20.22 3.293 21 4.296 21 5.446V6C21.828 6 22.5 6.672 22.5 7.5ZM4.5 5.446V9.549C6.771 10.555 9.406 10.985 11.991 11C14.581 10.987 17.228 10.558 19.5 9.55V5.446C19.5 4.983 19.19 4.585 18.747 4.476C18.214 4.346 17.606 4.209 16.962 4.08C16.874 4.534 16.552 4.919 16.097 5.05C15.628 5.186 14.292 5.5 12 5.5C9.708 5.5 8.372 5.186 7.903 5.051C7.448 4.92 7.126 4.535 7.038 4.081C6.394 4.21 5.786 4.347 5.253 4.477C4.81 4.585 4.5 4.984 4.5 5.446ZM19.5 18.5V11.181C17.121 12.116 14.539 12.483 11.99 12.5C9.448 12.482 6.873 12.113 4.5 11.181V18.5H19.5Z" fill="#0D0D0F"/>
</svg>
