<svg width="24" height="24" viewBox="0 0 24 24" fill="none" xmlns="http://www.w3.org/2000/svg">
<path fill-rule="evenodd" clip-rule="evenodd" d="M8 3C8.55228 3 9 3.44772 9 4V5.0001L9.4 5H14.6L15 5.0001V4C15 3.44772 15.4477 3 16 3C16.5523 3 17 3.44772 17 4V5.03838C17.7844 5.08627 18.3409 5.19394 18.816 5.43597C19.5686 5.81947 20.1805 6.43139 20.564 7.18404C21 8.03969 21 9.15979 21 11.4V12V14.6V15C21 15.0051 21 15.0101 20.9999 15.0152C20.9982 16.982 20.9722 18.0149 20.564 18.816C20.1805 19.5686 19.5686 20.1805 18.816 20.564C17.9603 21 16.8402 21 14.6 21H9.4C7.15979 21 6.03969 21 5.18404 20.564C4.43139 20.1805 3.81947 19.5686 3.43597 18.816C3.02781 18.0149 3.00177 16.982 3.00011 15.0152C3.00004 15.0101 3 15.0051 3 15V14.6V12V11.4C3 9.15979 3 8.03969 3.43597 7.18404C3.81947 6.43139 4.43139 5.81947 5.18404 5.43597C5.65905 5.19394 6.21558 5.08627 7 5.03838V4C7 3.44772 7.44772 3 8 3ZM5 12V14.6C5 15.7531 5.00156 16.4977 5.04785 17.0643C5.09225 17.6077 5.1676 17.8091 5.21799 17.908C5.40973 18.2843 5.71569 18.5903 6.09202 18.782C6.19091 18.8324 6.39235 18.9078 6.93567 18.9521C7.50235 18.9984 8.24689 19 9.4 19H14.6C15.7531 19 16.4977 18.9984 17.0643 18.9521C17.6077 18.9078 17.8091 18.8324 17.908 18.782C18.2843 18.5903 18.5903 18.2843 18.782 17.908C18.8324 17.8091 18.9078 17.6077 18.9521 17.0643C18.9984 16.4977 19 15.7531 19 14.6V12C19 11.4477 18.5523 11 18 11H6C5.44772 11 5 11.4477 5 12ZM18.9676 9.15948C18.6641 9.05609 18.3386 9 18 9H6C5.66143 9 5.33595 9.05609 5.03236 9.15948C5.03687 9.08173 5.042 9.00728 5.04785 8.93567C5.09225 8.39235 5.1676 8.19091 5.21799 8.09202C5.40973 7.71569 5.71569 7.40973 6.09202 7.21799C6.19091 7.1676 6.39235 7.09225 6.93567 7.04785C7.50235 7.00156 8.24689 7 9.4 7H14.6C15.7531 7 16.4977 7.00156 17.0643 7.04785C17.6077 7.09225 17.8091 7.1676 17.908 7.21799C18.2843 7.40973 18.5903 7.71569 18.782 8.09202C18.8324 8.19091 18.9078 8.39235 18.9521 8.93567C18.958 9.00728 18.9631 9.08173 18.9676 9.15948ZM15 13C14.4477 13 14 13.4477 14 14V15C14 15.5523 14.4477 16 15 16H16C16.5523 16 17 15.5523 17 15V14C17 13.4477 16.5523 13 16 13H15Z" fill="#0D0D0F"/>
</svg>
