<svg width="24" height="24" viewBox="0 0 24 24" fill="none" xmlns="http://www.w3.org/2000/svg">
<path d="M10.5097 3H13.4903C14.2836 3 14.5674 3.04528 14.8751 3.14449C15.1827 3.2437 15.4494 3.39685 15.6901 3.6126C15.9308 3.82834 16.1129 4.05074 16.5126 4.73594L17.25 6H18.7951C19.9095 6 20.3137 6.11603 20.7211 6.33392C21.1285 6.5518 21.4482 6.87154 21.6661 7.27894C21.884 7.68635 22 8.09046 22 9.20486V16.7951C22 17.9095 21.884 18.3136 21.6661 18.7211C21.4482 19.1285 21.1285 19.4482 20.7211 19.6661C20.3137 19.884 19.9095 20 18.7951 20H5.20486C4.09046 20 3.68635 19.884 3.27894 19.6661C2.87154 19.4482 2.5518 19.1285 2.33392 18.7211C2.11603 18.3136 2 17.9095 2 16.7951V9.20486C2 8.09046 2.11603 7.68635 2.33392 7.27894C2.5518 6.87154 2.87154 6.5518 3.27894 6.33392C3.68635 6.11603 4.09046 6 5.20486 6H6.75L7.48737 4.73594C7.88707 4.05074 8.06922 3.82834 8.30993 3.6126C8.55064 3.39685 8.81728 3.2437 9.12492 3.14449C9.43256 3.04528 9.71645 3 10.5097 3ZM10.5097 5C9.96388 5 9.84586 5.01342 9.73878 5.04795C9.69783 5.06116 9.67684 5.07322 9.6448 5.10193C9.56101 5.17703 9.48995 5.27221 9.21493 5.74368L8.47756 7.00774C8.11914 7.62218 7.46133 8 6.75 8H5.20486C4.77844 8 4.51125 8.01899 4.35599 8.04897C4.29517 8.06072 4.28173 8.06567 4.22214 8.09754C4.16327 8.12903 4.12903 8.16327 4.09754 8.22214C4.06567 8.28173 4.06072 8.29517 4.04897 8.35599C4.01899 8.51125 4 8.77844 4 9.20486V16.7951C4 17.2216 4.01899 17.4887 4.04897 17.644C4.06072 17.7048 4.06567 17.7183 4.09754 17.7779C4.12903 17.8367 4.16327 17.871 4.22214 17.9025C4.28173 17.9343 4.29517 17.9393 4.35599 17.951C4.51125 17.981 4.77844 18 5.20486 18H18.7951C19.2216 18 19.4887 17.981 19.644 17.951C19.7048 17.9393 19.7183 17.9343 19.7779 17.9025C19.8367 17.871 19.871 17.8367 19.9025 17.7779C19.9343 17.7183 19.9393 17.7048 19.951 17.644C19.981 17.4887 20 17.2216 20 16.7951V9.20486C20 8.77844 19.981 8.51125 19.951 8.35599C19.9393 8.29517 19.9343 8.28173 19.9025 8.22214C19.871 8.16327 19.8367 8.12903 19.7779 8.09754C19.7183 8.06567 19.7048 8.06072 19.644 8.04897C19.4887 8.01899 19.2216 8 18.7951 8H17.25C16.5387 8 15.8809 7.62218 15.5224 7.00774L14.7851 5.74368C14.51 5.27221 14.439 5.17703 14.3552 5.10193C14.3232 5.07322 14.3022 5.06116 14.2612 5.04795C14.1541 5.01342 14.0361 5 13.4903 5H10.5097ZM12 16C9.79086 16 8 14.2091 8 12C8 9.79086 9.79086 8 12 8C14.2091 8 16 9.79086 16 12C16 14.2091 14.2091 16 12 16ZM12 14C13.1046 14 14 13.1046 14 12C14 10.8954 13.1046 10 12 10C10.8954 10 10 10.8954 10 12C10 13.1046 10.8954 14 12 14Z" fill="#0D0D0F"/>
</svg>
