<svg width="16" height="16" viewBox="0 0 16 16" fill="none" xmlns="http://www.w3.org/2000/svg">
  <path d="M3 10H2.5C2.22386 10 2 9.77614 2 9.5V7.5C2 7.22386 2.22386 7 2.5 7H3L4 4H12L13 7H13.5C13.7761 7 14 7.22386 14 7.5V9.5C14 9.77614 13.7761 10 13.5 10H13" stroke="currentColor" stroke-width="1.5" stroke-linecap="round" stroke-linejoin="round"/>
  <path d="M3 10V11.5C3 11.7761 3.22386 12 3.5 12H5C5.27614 12 5.5 11.7761 5.5 11.5V10" stroke="currentColor" stroke-width="1.5"/>
  <path d="M10.5 10V11.5C10.5 11.7761 10.7239 12 11 12H12.5C12.7761 12 13 11.7761 13 11.5V10" stroke="currentColor" stroke-width="1.5"/>
  <path d="M3 7H13" stroke="currentColor" stroke-width="1.5"/>
  <circle cx="5" cy="8.5" r="0.5" fill="currentColor"/>
  <circle cx="11" cy="8.5" r="0.5" fill="currentColor"/>
</svg>
