<svg width="24" height="24" viewBox="0 0 24 24" fill="none" xmlns="http://www.w3.org/2000/svg">
<path d="M21.496 4.056C19.744 3.614 16.509 3 12.052 3H12C7.519 3.006 4.267 3.618 2.507 4.059C1.617 4.282 1 5.081 1 5.998V19.998C1 20.582 1.477 21 2 21C2.164 21 2.333 20.959 2.492 20.869L5 19.449C6.79 19.745 9.14 19.998 12 20C16.457 20.002 19.744 19.386 21.496 18.944C22.385 18.719 23 17.922 23 17.005V5.995C23 5.078 22.385 4.28 21.496 4.056ZM21.2 17.005C21.2 17.099 21.142 17.177 21.056 17.198C19.574 17.572 16.384 18.202 12.002 18.199C8.248 18.197 5.767 17.751 4.667 17.569L2.8 18.627V5.998C2.8 5.904 2.858 5.826 2.944 5.805C4.434 5.432 7.593 4.805 12.002 4.8H12.052C16.434 4.8 19.574 5.427 21.056 5.801C21.142 5.823 21.2 5.901 21.2 5.995V17.005ZM15 9C15 9.909 14.553 10.761 13.805 11.277L13.234 11.672C12.962 11.86 12.8 12.169 12.8 12.5H11C11 11.577 11.453 10.715 12.211 10.19L12.782 9.796C13.044 9.616 13.2 9.318 13.2 9C13.2 8.614 12.886 8.301 12.5 8.301H11.49C11.11 8.301 10.8 8.61 10.8 8.99H9C9 7.617 10.117 6.5 11.49 6.5H12.5C13.878 6.5 15 7.622 15 9ZM13.2 15.2C13.2 15.86 12.66 16.4 12 16.4C11.34 16.4 10.8 15.86 10.8 15.2C10.8 14.54 11.34 14 12 14C12.66 14 13.2 14.54 13.2 15.2Z" fill="#0D0D0F"/>
</svg>
