<svg width="12" height="12" viewBox="0 0 12 12" fill="none" xmlns="http://www.w3.org/2000/svg">
<path d="M6.72706 5.59755L6.89855 5.42606L6.12215 4.98302C5.75896 4.77578 5.42513 4.52095 5.12947 4.22529C4.81127 3.90709 4.83658 3.45752 5.13005 3.16405C5.42294 2.87116 5.89782 2.87116 6.19071 3.16405L8.57719 5.55054C8.87009 5.84344 8.87009 6.3183 8.57719 6.6112L6.18831 9.00008C5.89542 9.29297 5.42056 9.29298 5.12765 9.00008C4.83475 8.70718 4.81091 8.25616 5.12765 7.93942C5.42428 7.64279 5.75919 7.38711 6.12346 7.17908L6.89792 6.73692L6.72773 6.56674L5.39412 6.75718C5.04241 6.80744 4.68752 6.83258 4.33224 6.83254L1.06064 6.83183C0.646427 6.83175 0.31069 6.4959 0.310791 6.08168C0.31087 5.66747 0.646724 5.33174 1.06093 5.33182L4.33391 5.33253C4.68664 5.33262 5.03888 5.35755 5.38806 5.40718L6.72706 5.59755Z" fill="#0D0D0F"/>
<path fill-rule="evenodd" clip-rule="evenodd" d="M3.7501 0.75C3.7501 0.335786 4.08589 0 4.5001 0H11.2501C11.6643 0 12.0001 0.335786 12.0001 0.75V11.25C12.0001 11.6642 11.6643 12 11.2501 12H4.5001C4.08589 12 3.7501 11.6642 3.7501 11.25C3.7501 10.8358 4.08589 10.5 4.5001 10.5H10.5001V1.5H4.5001C4.08589 1.5 3.7501 1.16421 3.7501 0.75Z" fill="#0D0D0F"/>
</svg>
