<svg width="12" height="12" viewBox="0 0 12 12" fill="none" xmlns="http://www.w3.org/2000/svg">
<path d="M9.62003 5.43506L9.79152 5.26357L9.01512 4.82053C8.65194 4.61329 8.3181 4.35846 8.02244 4.0628C7.70424 3.7446 7.72955 3.29503 8.02302 3.00156C8.31592 2.70867 8.79079 2.70867 9.08368 3.00156L11.4702 5.38805C11.7631 5.68095 11.7631 6.15582 11.4702 6.44871L9.08129 8.83759C8.7884 9.13048 8.31353 9.13049 8.02063 8.83759C7.72773 8.54469 7.70388 8.09367 8.02063 7.77693C8.31725 7.4803 8.65217 7.22462 9.01643 7.01659L9.79089 6.57444L9.62071 6.40425L8.28709 6.59469C7.93539 6.64495 7.58049 6.67009 7.22521 6.67005L3.95361 6.66934C3.5394 6.66926 3.20366 6.33341 3.20376 5.91919C3.20384 5.50498 3.5397 5.16925 3.95391 5.16933L7.22689 5.17004C7.57962 5.17013 7.93186 5.19506 8.28104 5.24469L9.62003 5.43506Z" fill="#0D0D0F"/>
<path fill-rule="evenodd" clip-rule="evenodd" d="M8.25 11.25C8.25 11.6642 7.91422 12 7.5 12L0.750003 12C0.33579 12 2.9569e-06 11.6642 2.92069e-06 11.25L2.00275e-06 0.750002C1.96654e-06 0.335787 0.335789 1.57999e-06 0.750002 1.54378e-06L7.5 9.53675e-07C7.91422 9.17463e-07 8.25 0.335787 8.25 0.750001C8.25 1.16421 7.91422 1.5 7.5 1.5L1.5 1.5L1.5 10.5H7.5C7.91422 10.5 8.25 10.8358 8.25 11.25Z" fill="#0D0D0F"/>
</svg>
