<svg width="24" height="24" viewBox="0 0 24 24" fill="none" xmlns="http://www.w3.org/2000/svg">
<path d="M8.25 11.5C7.562 11.5 7 10.938 7 10.25C7 9.562 7.562 9 8.25 9C8.938 9 9.5 9.562 9.5 10.25C9.5 10.938 8.938 11.5 8.25 11.5ZM15.75 9C15.062 9 14.5 9.562 14.5 10.25C14.5 10.938 15.062 11.5 15.75 11.5C16.438 11.5 17 10.938 17 10.25C17 9.562 16.438 9 15.75 9ZM24 12C24 13.617 22.897 14.965 21.407 15.366C20.023 19.23 16.34 22 12 22C7.66 22 3.977 19.23 2.593 15.366C1.103 14.965 0 13.617 0 12C0 10.383 1.103 9.035 2.593 8.634C3.976 4.771 7.66 2.002 11.997 2C16.337 2 20.023 4.77 21.406 8.634C22.897 9.035 24 10.383 24 12ZM22.5 12C22.5 11.106 21.89 10.317 21.017 10.082L20.259 9.878L19.995 9.139C18.787 5.766 15.574 3.5 12 3.5L11.987 3.501C11.165 3.507 10.497 4.176 10.497 5C10.497 5.827 11.17 6.5 11.997 6.5V8C10.343 8 8.997 6.654 8.997 5C8.997 4.648 9.069 4.315 9.181 4.002C6.821 4.841 4.882 6.692 4.006 9.14L3.741 9.878L2.983 10.082C2.11 10.317 1.5 11.106 1.5 12C1.5 12.894 2.11 13.683 2.983 13.918L3.741 14.122L4.006 14.861C5.213 18.234 8.426 20.5 12 20.5C15.574 20.5 18.787 18.234 19.995 14.861L20.259 14.122L21.017 13.918C21.89 13.683 22.5 12.894 22.5 12ZM12 15.5C11.035 15.5 10.16 15.107 9.526 14.474L8.466 15.534C9.372 16.439 10.622 17 12 17C13.378 17 14.628 16.439 15.534 15.534L14.474 14.474C13.84 15.107 12.965 15.5 12 15.5Z" fill="#0D0D0F"/>
</svg>
