<svg width="18" height="18" viewBox="0 0 18 18" fill="none" xmlns="http://www.w3.org/2000/svg">
<path fill-rule="evenodd" clip-rule="evenodd" d="M9 18C13.9706 18 18 13.9706 18 9C18 4.02943 13.9706 0 9 0C4.02943 0 0 4.02943 0 9C0 13.9706 4.02943 18 9 18ZM11.7047 4.70432C12.144 4.26499 12.8564 4.26499 13.2957 4.70432C13.735 5.14367 13.735 5.85597 13.2957 6.29532L10.591 9L13.2957 11.7047C13.735 12.144 13.735 12.8564 13.2957 13.2957C12.8564 13.735 12.144 13.735 11.7047 13.2957L9 10.591L6.29532 13.2957C5.85597 13.735 5.14367 13.735 4.70432 13.2957C4.26499 12.8564 4.26499 12.144 4.70432 11.7047L7.40901 9L4.70432 6.29532C4.26499 5.85597 4.26499 5.14367 4.70432 4.70432C5.14367 4.26499 5.85597 4.26499 6.29532 4.70432L9 7.40901L11.7047 4.70432Z" fill="#9D9B98"/>
</svg>
