<svg preserveAspectRatio="none" width="100%" height="100%" overflow="visible" style="display: block;" viewBox="0 0 23.4014 19.0487" fill="none" xmlns="http://www.w3.org/2000/svg">
<path id="Intersect" fill-rule="evenodd" clip-rule="evenodd" d="M2.84948 18.3814C2.35349 17.3097 2.60413 16.4665 2.82916 15.7094C2.99525 15.1507 3.14739 14.6389 2.97505 14.1168C2.81268 13.6256 2.30228 13.4538 1.74124 13.2649C1.05535 13.0341 0.29378 12.7777 0 11.8812C0.276922 14.3524 1.30445 16.597 2.84948 18.3814ZM19.5941 1.30068C21.3679 2.77636 22.7097 4.75381 23.4014 7.01544C22.8875 5.77182 22.4066 5.55795 21.959 5.55795C21.6982 5.55795 21.4585 5.70276 21.3329 5.93109C21.0184 6.50186 20.8488 7.16284 20.7023 7.73396C20.54 8.36654 20.406 8.88887 20.1347 9.05623C19.7984 9.26383 19.0736 9.0801 18.437 8.91876C17.9294 8.7901 17.478 8.67567 17.3245 8.78524C17.0853 8.95683 17.507 9.48912 17.9289 10.0218C18.2768 10.461 18.6248 10.9004 18.6031 11.1383C18.5751 11.4601 18.1689 11.8244 17.7735 12.179C17.4476 12.4713 17.1291 12.757 17.0354 13.007C16.9736 13.1717 16.975 13.4535 16.9766 13.7839C16.9793 14.3402 16.9826 15.0343 16.6863 15.5402C16.3492 16.1123 14.1951 19.0547 13.4068 19.0487C12.6425 19.0432 12.1125 16.5138 11.6855 14.4757C11.4183 13.2003 11.1914 12.1174 10.9726 11.9657C10.717 11.7897 10.2097 11.9088 9.67689 12.0338C9.21791 12.1415 8.74 12.2537 8.38769 12.1856C7.66243 12.0444 5.86643 10.2658 5.9145 9.3843C5.95415 8.626 7.44312 6.51694 8.09927 6.22192C8.63825 5.97796 10.7323 5.5207 11.1024 5.78568C11.2728 5.9079 11.4252 6.15408 11.5791 6.40275C11.7922 6.74701 12.0082 7.09603 12.2789 7.12743C12.5962 7.1644 13.0418 6.97294 13.4509 6.7972C13.7398 6.67305 14.0105 6.55676 14.2047 6.53437C14.6307 6.48649 15.1562 6.78112 15.6386 7.05156C16.1007 7.31061 16.5231 7.54748 16.7807 7.43988C17.271 7.23499 17.3647 5.76045 16.5457 4.84892C15.9953 3.97405 12.6941 3.67242 11.8066 3.81663C11.404 3.88158 11.0553 4.15483 10.7279 4.41137C10.3284 4.72443 9.9607 5.01259 9.5654 4.86695C9.11414 4.69871 8.32459 3.76555 8.48983 3.22116C8.54004 3.05812 8.86589 2.90266 9.26369 2.71287C9.78952 2.462 10.4411 2.15115 10.7479 1.68353C10.8492 1.52922 10.9139 1.37267 10.9766 1.22076C11.1549 0.789446 11.3176 0.395606 12.2579 0.196973C14.7523 -0.329468 17.3775 0.253774 19.5941 1.30068ZM17.7938 16.0937C17.914 15.7415 18.3322 14.809 18.6933 14.9021L18.6939 14.9051C19.0064 14.9832 18.9403 15.8737 18.8502 16.1838C18.7324 16.581 18.185 17.6037 17.7938 17.4624C17.4718 17.3453 17.6857 16.4187 17.7938 16.0937Z" fill="var(--fill-0, #FEE14A)"/>
</svg>
