<svg width="24" height="24" viewBox="0 0 24 24" fill="none" xmlns="http://www.w3.org/2000/svg">
<path d="M15 16.9999C15.5523 16.9999 16 17.4476 16 17.9998V19.5027C16 20.3312 15.3284 21.0027 14.5 21.0027H4.5C3.67157 21.0027 3 20.3312 3 19.5027V9.50275C3 8.67432 3.67157 8.00275 4.5 8.00275H6C6.55228 8.00275 7 8.45046 7 9.00275C7 9.55503 6.55228 10.0027 6 10.0027L5 10V19.0027H14V17.9998C14 17.4476 14.4477 16.9999 15 16.9999Z" fill="#0D0D0F"/>
<path fill-rule="evenodd" clip-rule="evenodd" d="M10 5V14H19V5H10ZM9.5 3C8.67157 3 8 3.67157 8 4.5V14.5C8 15.3284 8.67157 16 9.5 16H19.5C20.3284 16 21 15.3284 21 14.5V4.5C21 3.67157 20.3284 3 19.5 3H9.5Z" fill="#0D0D0F"/>
</svg>
