<svg width="24" height="24" viewBox="0 0 24 24" fill="none" xmlns="http://www.w3.org/2000/svg">
<path d="M22.074 8.04L13.074 2.313C12.746 2.104 12.373 2 12 2C11.627 2 11.254 2.104 10.926 2.313L1.926 8.04C1.349 8.407 1 9.043 1 9.727V12H3V20C3 21.105 3.895 22 5 22H19C20.105 22 21 21.105 21 20V12H23V9.727C23 9.043 22.651 8.407 22.074 8.04ZM21.5 10.5H19.5V20C19.5 20.276 19.276 20.5 19 20.5H5C4.724 20.5 4.5 20.276 4.5 20V10.5H2.5V9.727C2.5 9.555 2.587 9.397 2.732 9.305L11.732 3.578C11.812 3.527 11.905 3.5 12 3.5C12.095 3.5 12.188 3.527 12.268 3.578L21.268 9.305C21.413 9.397 21.5 9.555 21.5 9.727V10.5ZM14.146 9.711C13.672 9.237 13.05 9 12.429 9C11.808 9 11.186 9.237 10.712 9.711C9.764 10.659 9.764 12.197 10.712 13.146L10.753 13.187L7 16.939L8.061 18L9.5 16.561L10.939 18L12 16.939L10.56 15.5L11.813 14.247L11.854 14.288C12.328 14.763 12.95 15 13.571 15C14.192 15 14.814 14.763 15.288 14.289C16.236 13.341 16.236 11.803 15.288 10.854L14.146 9.711ZM14.228 13.228C14.053 13.403 13.819 13.5 13.571 13.5C13.323 13.5 13.09 13.403 12.914 13.228L11.771 12.085C11.596 11.91 11.499 11.676 11.499 11.428C11.499 11.18 11.596 10.947 11.771 10.771C11.946 10.595 12.18 10.499 12.428 10.499C12.676 10.499 12.909 10.596 13.085 10.771L14.228 11.914C14.403 12.089 14.5 12.323 14.5 12.571C14.5 12.819 14.403 13.053 14.228 13.228Z" fill="#0D0D0F"/>
</svg>
