<svg width="16" height="16" viewBox="0 0 16 16" fill="none" xmlns="http://www.w3.org/2000/svg">
<path d="M15.323 4.512L8.823 0.246C8.573 0.082 8.287 0 8 0C7.713 0 7.427 0.082 7.177 0.246L0.677 4.512C0.255 4.789 0 5.261 0 5.766V8H1V13.5C1 14.328 1.672 15 2.5 15H13.5C14.328 15 15 14.328 15 13.5V8H16V5.766C16 5.261 15.745 4.789 15.323 4.512ZM14.8 6.8H13.8V13.5C13.8 13.665 13.665 13.8 13.5 13.8H2.5C2.335 13.8 2.2 13.665 2.2 13.5V6.8H1.2V5.766C1.2 5.665 1.251 5.571 1.335 5.515L7.835 1.249C7.897 1.209 7.959 1.2 8 1.2C8.041 1.2 8.103 1.209 8.165 1.25L14.665 5.516C14.749 5.571 14.8 5.665 14.8 5.766V6.8ZM9.455 5.593C9.06 5.198 8.542 5 8.024 5C7.506 5 6.988 5.198 6.593 5.593C5.803 6.383 5.803 7.665 6.593 8.455L6.645 8.507L4 11.151L4.849 12L5.75 11.099L6.651 12L7.5 11.151L6.599 10.25L7.494 9.355L7.546 9.407C7.94 9.802 8.458 10 8.976 10C9.494 10 10.012 9.802 10.407 9.407C11.197 8.617 11.197 7.335 10.407 6.545L9.455 5.593ZM9.559 8.559C9.403 8.714 9.196 8.8 8.976 8.8C8.756 8.8 8.549 8.714 8.394 8.559L7.441 7.606C7.286 7.451 7.2 7.244 7.2 7.024C7.2 6.804 7.286 6.597 7.441 6.441C7.597 6.286 7.804 6.2 8.024 6.2C8.244 6.2 8.451 6.286 8.607 6.441L9.559 7.393C9.88 7.715 9.88 8.237 9.559 8.559Z" fill="#0D0D0F"/>
</svg>
