<svg width="24" height="24" viewBox="0 0 24 24" fill="none" xmlns="http://www.w3.org/2000/svg">
<path d="M22.074 8.03975L13.074 2.31275C12.419 1.89575 11.582 1.89575 10.927 2.31275L1.927 8.03975C1.349 8.40675 1 9.04275 1 9.72675V11.9998H3V19.9998C3 21.1047 3.895 21.9998 5 21.9998H19C20.105 21.9998 21 21.1047 21 19.9998V11.9998H23V9.72675C23 9.04275 22.651 8.40675 22.074 8.03975ZM15.289 14.2887C14.814 14.7627 14.193 14.9998 13.571 14.9998C12.949 14.9998 12.328 14.7627 11.854 14.2887L11.813 14.2478L10.561 15.4998L12 16.9387L10.939 17.9998L9.5 16.5608L8.061 17.9998L7 16.9387L10.753 13.1858L10.712 13.1448C9.764 12.1968 9.764 10.6588 10.712 9.70975C11.186 9.23675 11.807 8.99975 12.429 8.99975C13.051 8.99975 13.672 9.23675 14.146 9.71075L15.289 10.8538C16.237 11.8028 16.237 13.3397 15.289 14.2887ZM14.228 11.9148C14.403 12.0898 14.5 12.3237 14.5 12.5717C14.5 12.8197 14.403 13.0528 14.228 13.2288C14.053 13.4038 13.819 13.5008 13.571 13.5008C13.323 13.5008 13.09 13.4038 12.914 13.2288L11.771 12.0858C11.409 11.7238 11.409 11.1348 11.771 10.7727C11.946 10.5977 12.18 10.5008 12.428 10.5008C12.676 10.5008 12.909 10.5977 13.085 10.7727L14.228 11.9148Z" fill="#0D0D0F"/>
</svg>
