<svg width="16" height="16" viewBox="0 0 16 16" fill="none" xmlns="http://www.w3.org/2000/svg">
<path fill-rule="evenodd" clip-rule="evenodd" d="M4.26638 14V10.7273H7.46724V14H4.26638ZM4.26638 9.63636V6.36364H7.46617V9.63636H4.26638ZM0 14V10.7273H3.19979V14H0ZM0 9.63636V6.36255H3.19979V9.63636H0ZM8.53276 9.63636V6.36364H11.7326V9.63636H8.53276ZM8.53276 14V10.7273H11.7326V14H8.53276ZM8.53276 5.27273V2H11.7326V5.27273H8.53276ZM12.7991 9.63636V6.36255H16V9.63636H12.7991ZM12.7991 5.27273V2H16V5.27273H12.7991ZM4.26638 5.27273V2H7.46724V5.27273H4.26638Z" fill="#0D0D0F"/>
</svg>
