<svg width="24" height="24" viewBox="0 0 24 24" fill="none" xmlns="http://www.w3.org/2000/svg">
<circle cx="12" cy="12" r="10" fill="#0D0D0F"/>
<mask id="path-2-outside-1_15583_18" maskUnits="userSpaceOnUse" x="3.49722" y="5.52508" width="17.1126" height="13.615" fill="black">
<rect fill="white" x="3.49722" y="5.52508" width="17.1126" height="13.615"/>
<path fill-rule="evenodd" clip-rule="evenodd" d="M9.78702 11.7044L13.5125 9.52394L13.5137 9.52324C13.6918 9.42064 13.8977 9.39458 14.0922 9.44798C14.2889 9.50201 14.4547 9.62926 14.5528 9.8112L14.5586 9.8219L16.4677 14.6979L17.1456 12.2291C17.2578 11.8206 17.6751 11.573 18.0817 11.6847C18.4892 11.7966 18.7194 12.2269 18.6085 12.6308L17.398 17.0391C17.2855 17.4489 16.8681 17.6936 16.4597 17.5869L16.4573 17.5863L12.1487 16.4031C11.7412 16.2912 11.511 15.8609 11.6219 15.457C11.7341 15.0485 12.1514 14.8009 12.558 14.9125L15.1688 15.6295L13.5654 11.2621L9.8459 13.4391L9.8447 13.4398C9.66658 13.5424 9.46068 13.5684 9.2662 13.515C9.06746 13.4605 8.90765 13.3334 8.80726 13.1549L8.80142 13.1445L6.69497 8.06701C6.62918 7.94046 6.57352 7.74181 6.64314 7.48827C6.69669 7.29329 6.81293 7.13052 6.99053 7.02833M9.78702 11.7044L8.03443 7.3247L8.02798 7.31322C7.92758 7.13467 7.76777 7.00765 7.56903 6.95308C7.37459 6.89968 7.16863 6.92579 6.99053 7.02833"/>
</mask>
<path fill-rule="evenodd" clip-rule="evenodd" d="M9.78702 11.7044L13.5125 9.52394L13.5137 9.52324C13.6918 9.42064 13.8977 9.39458 14.0922 9.44798C14.2889 9.50201 14.4547 9.62926 14.5528 9.8112L14.5586 9.8219L16.4677 14.6979L17.1456 12.2291C17.2578 11.8206 17.6751 11.573 18.0817 11.6847C18.4892 11.7966 18.7194 12.2269 18.6085 12.6308L17.398 17.0391C17.2855 17.4489 16.8681 17.6936 16.4597 17.5869L16.4573 17.5863L12.1487 16.4031C11.7412 16.2912 11.511 15.8609 11.6219 15.457C11.7341 15.0485 12.1514 14.8009 12.558 14.9125L15.1688 15.6295L13.5654 11.2621L9.8459 13.4391L9.8447 13.4398C9.66658 13.5424 9.46068 13.5684 9.2662 13.515C9.06746 13.4605 8.90765 13.3334 8.80726 13.1549L8.80142 13.1445L6.69497 8.06701C6.62918 7.94046 6.57352 7.74181 6.64314 7.48827C6.69669 7.29329 6.81293 7.13052 6.99053 7.02833M9.78702 11.7044L8.03443 7.3247L8.02798 7.31322C7.92758 7.13467 7.76777 7.00765 7.56903 6.95308C7.37459 6.89968 7.16863 6.92579 6.99053 7.02833" fill="white"/>
<path d="M13.5125 9.52394L13.412 9.35098L13.4114 9.35133L13.5125 9.52394ZM9.78702 11.7044L9.60134 11.7787L9.68762 11.9943L9.88805 11.877L9.78702 11.7044ZM13.5137 9.52324L13.4138 9.34993L13.4132 9.35028L13.5137 9.52324ZM14.5528 9.8112L14.3768 9.90615L14.3768 9.90615L14.5528 9.8112ZM14.5586 9.8219L14.7448 9.74898L14.7404 9.73766L14.7346 9.72695L14.5586 9.8219ZM16.4677 14.6979L16.2815 14.7708L16.5011 15.3316L16.6606 14.7508L16.4677 14.6979ZM16.4597 17.5869L16.4092 17.7804L16.4092 17.7804L16.4597 17.5869ZM16.4573 17.5863L16.4043 17.7792L16.4067 17.7798L16.4573 17.5863ZM12.1487 16.4031L12.2016 16.2102L12.2016 16.2102L12.1487 16.4031ZM15.1688 15.6295L15.1158 15.8223L15.4904 15.9252L15.3565 15.5605L15.1688 15.6295ZM13.5654 11.2621L13.7531 11.1931L13.6707 10.9687L13.4644 11.0895L13.5654 11.2621ZM9.8459 13.4391L9.9463 13.6121L9.94693 13.6117L9.8459 13.4391ZM9.8447 13.4398L9.94452 13.6131L9.94509 13.6128L9.8447 13.4398ZM8.80726 13.1549L8.98159 13.0569L8.98159 13.0569L8.80726 13.1549ZM8.80142 13.1445L8.61668 13.2212L8.62125 13.2322L8.62709 13.2425L8.80142 13.1445ZM6.69497 8.06701L6.87971 7.99037L6.8764 7.98241L6.87242 7.97476L6.69497 8.06701ZM6.99053 7.02833L7.09028 7.20169L7.09033 7.20166L6.99053 7.02833ZM8.03443 7.3247L8.22012 7.2504L8.21522 7.23817L8.20877 7.22668L8.03443 7.3247ZM8.02798 7.31322L7.85364 7.41124L7.85364 7.41124L8.02798 7.31322ZM13.4114 9.35133L9.686 11.5318L9.88805 11.877L13.6135 9.69655L13.4114 9.35133ZM13.4132 9.35028L13.412 9.35098L13.6129 9.69689L13.6141 9.6962L13.4132 9.35028ZM14.1451 9.25512C13.8988 9.18748 13.6379 9.22085 13.4138 9.34993L13.6135 9.69655C13.7456 9.62043 13.8965 9.60167 14.0392 9.64084L14.1451 9.25512ZM14.7288 9.71624C14.6037 9.48427 14.3924 9.32301 14.1451 9.25512L14.0392 9.64084C14.1855 9.68101 14.3056 9.77424 14.3768 9.90615L14.7288 9.71624ZM14.7346 9.72695L14.7288 9.71624L14.3768 9.90615L14.3825 9.91685L14.7346 9.72695ZM16.9528 12.1762L16.2748 14.6449L16.6606 14.7508L17.3385 12.2821L16.9528 12.1762ZM18.1347 11.4918C17.6172 11.3497 17.093 11.6656 16.9528 12.1762L17.3385 12.2821C17.4226 11.9757 17.733 11.7964 18.0288 11.8776L18.1347 11.4918ZM18.8014 12.6838C18.9401 12.1787 18.6539 11.6344 18.1347 11.4918L18.0288 11.8776C18.3244 11.9587 18.4988 12.2751 18.4157 12.5779L18.8014 12.6838ZM17.5909 17.092L18.8014 12.6838L18.4157 12.5779L17.2051 16.9861L17.5909 17.092ZM16.4092 17.7804C16.9254 17.9153 17.4499 17.6055 17.5909 17.092L17.2051 16.9861C17.1211 17.2923 16.8108 17.4719 16.5103 17.3934L16.4092 17.7804ZM16.4067 17.7798L16.4092 17.7804L16.5103 17.3934L16.5079 17.3928L16.4067 17.7798ZM12.0957 16.596L16.4043 17.7791L16.5103 17.3934L12.2016 16.2102L12.0957 16.596ZM11.429 15.404C11.2903 15.9091 11.5765 16.4534 12.0957 16.596L12.2016 16.2102C11.906 16.129 11.7316 15.8126 11.8147 15.5099L11.429 15.404ZM12.6109 14.7197C12.0935 14.5776 11.5692 14.8934 11.429 15.404L11.8147 15.5099C11.8989 15.2035 12.2093 15.0242 12.505 15.1054L12.6109 14.7197ZM15.2217 15.4366L12.6109 14.7197L12.505 15.1054L15.1158 15.8223L15.2217 15.4366ZM13.3777 11.331L14.981 15.6984L15.3565 15.5605L13.7531 11.1931L13.3777 11.331ZM9.94693 13.6117L13.6664 11.4347L13.4644 11.0895L9.74487 13.2665L9.94693 13.6117ZM9.94509 13.6128L9.9463 13.6121L9.74551 13.2661L9.7443 13.2668L9.94509 13.6128ZM9.21324 13.7079C9.45954 13.7755 9.72042 13.7422 9.94452 13.6131L9.74487 13.2665C9.61273 13.3426 9.46182 13.3614 9.31916 13.3222L9.21324 13.7079ZM8.63292 13.2529C8.75897 13.4771 8.96198 13.6389 9.21324 13.7079L9.31916 13.3222C9.17293 13.282 9.05633 13.1898 8.98159 13.0569L8.63292 13.2529ZM8.62709 13.2425L8.63293 13.2529L8.98159 13.0569L8.97575 13.0465L8.62709 13.2425ZM6.45028 7.43531C6.36501 7.74586 6.43283 7.99636 6.51752 8.15927L6.87242 7.97476C6.82554 7.88456 6.78204 7.73775 6.836 7.54123L6.45028 7.43531ZM6.89079 6.85498C6.66301 6.98604 6.51635 7.19471 6.45028 7.43531L6.836 7.54123C6.87702 7.39187 6.96285 7.27501 7.09028 7.20169L6.89079 6.85498ZM8.20877 7.22668L8.20231 7.2152L7.85364 7.41124L7.8601 7.42273L8.20877 7.22668ZM8.20231 7.2152C8.07626 6.99103 7.87325 6.82921 7.62199 6.76022L7.51607 7.14594C7.6623 7.18609 7.7789 7.27831 7.85364 7.41124L8.20231 7.2152ZM7.62199 6.76022C7.3757 6.69258 7.11478 6.72601 6.89074 6.85501L7.09033 7.20166C7.22248 7.12557 7.37347 7.10678 7.51607 7.14594L7.62199 6.76022ZM16.6539 14.625L14.7448 9.74898L14.3723 9.89482L16.2815 14.7708L16.6539 14.625ZM6.51024 8.14365L8.61668 13.2212L8.98615 13.0679L6.87971 7.99037L6.51024 8.14365ZM9.97271 11.6301L8.22012 7.2504L7.84875 7.39901L9.60134 11.7787L9.97271 11.6301Z" fill="white" mask="url(#path-2-outside-1_15583_18)"/>
</svg>
