<svg width="24" height="24" viewBox="0 0 24 24" fill="none" xmlns="http://www.w3.org/2000/svg">
<path d="M5.44752 19.4666C5.92148 19.4989 6.54075 19.5 7.5 19.5L15.5 19.5C16.4592 19.5 17.0785 19.4989 17.5525 19.4666C18.0085 19.4355 18.1821 19.3822 18.2654 19.3478C18.7554 19.1448 19.1448 18.7554 19.3478 18.2654C19.3822 18.1821 19.4355 18.0085 19.4666 17.5525C19.4989 17.0785 19.5 16.4592 19.5 15.5L19.5 10.5L21.5 10.5L21.5 15.5C21.5 17.3638 21.5 18.2956 21.1955 19.0307C20.7895 20.0108 20.0108 20.7895 19.0307 21.1955C18.2956 21.5 17.3638 21.5 15.5 21.5L7.5 21.5C5.63623 21.5 4.70435 21.5 3.96927 21.1955C2.98915 20.7895 2.21046 20.0108 1.80448 19.0307C1.5 18.2956 1.5 17.3638 1.5 15.5L1.5 10.5L3.5 10.5L3.5 15.5C3.5 16.4592 3.50108 17.0785 3.53342 17.5525C3.56453 18.0085 3.61777 18.1821 3.65224 18.2654C3.85523 18.7554 4.24458 19.1448 4.73463 19.3478C4.81786 19.3822 4.99152 19.4355 5.44752 19.4666Z" fill="#0D0D0F"/>
<path d="M14.7929 9.40931L16.2071 10.8235L11.5 15.5306L6.79291 10.8235L8.20712 9.40931L10.5 11.7022L10.5 2.5L12.5 2.5L12.5 11.7022L14.7929 9.40931Z" fill="#0D0D0F"/>
</svg>
