<svg width="24" height="24" viewBox="0 0 24 24" fill="none" xmlns="http://www.w3.org/2000/svg">
<path fill-rule="evenodd" clip-rule="evenodd" d="M7.17228 6.07558C6.81268 6.23155 6.51706 6.39744 6.28348 6.56036L18.7916 11.0667V11.8704L14.844 13.3508L17.2928 15.7995C17.7636 16.2703 17.7636 17.0336 17.2928 17.5044L15.5878 19.2094C15.117 19.6802 14.3537 19.6802 13.8829 19.2094L11.4328 16.7592L9.95074 20.7112H9.14704L4.33779 7.35513C4.19926 7.04081 4.15548 6.65424 4.19881 6.52981C4.21729 6.47653 4.24255 6.4254 4.27429 6.3778C4.70858 5.5963 5.60559 5.00299 6.53269 4.6009C7.53394 4.16664 8.74158 3.88026 9.92186 3.8338C11.636 3.76631 12.7289 4.26712 13.5788 4.65654C13.806 4.76068 14.0159 4.85685 14.2156 4.93205C14.6869 5.10954 15.1813 5.22278 15.8672 5.17011C16.5734 5.11589 17.5201 4.88258 18.8795 4.3C19.2875 4.12515 19.76 4.31414 19.9348 4.72213C20.1097 5.13011 19.9207 5.60259 19.5127 5.77744C18.0591 6.40042 16.9331 6.70041 15.9903 6.77281C15.0272 6.84676 14.2961 6.67997 13.6492 6.43635C13.3218 6.31307 13.0367 6.18377 12.765 6.06058C11.9663 5.69836 11.2837 5.38884 9.9851 5.43996C9.00557 5.47853 7.99319 5.71954 7.17228 6.07558ZM10.8042 13.8573L9.50312 17.3269L6.57441 8.49243L15.4079 11.4226L11.9423 12.7222L15.872 16.652L14.7354 17.7886L10.8042 13.8573Z" fill="#0D0D0F"/>
</svg>
