<svg width="24" height="24" viewBox="0 0 24 24" fill="none" xmlns="http://www.w3.org/2000/svg">
<path fill-rule="evenodd" clip-rule="evenodd" d="M0 12C0 18.6274 5.37258 24 12 24C18.6274 24 24 18.6274 24 12C24 5.37258 18.6274 0 12 0C5.37258 0 0 5.37258 0 12ZM12 2.57143C10.1026 2.57143 8.33619 3.13186 6.85714 4.09623V5.48571C6.85714 6.24313 7.47115 6.85714 8.22857 6.85714H14.0571C14.8146 6.85714 15.4286 7.47115 15.4286 8.22857V9.71765C15.4286 10.0814 15.5731 10.4302 15.8303 10.6874L16.4439 11.301C16.8613 11.7185 17.499 11.8219 18.027 11.5579L19.8133 10.6648C20.2779 10.4325 20.5714 9.95758 20.5714 9.43812V8.0666C19.0807 4.82336 15.8033 2.57143 12 2.57143ZM9.92354 21.1992C10.5916 21.3493 11.2866 21.4286 12 21.4286C12.2218 21.4286 12.4419 21.4209 12.6599 21.4058L16.4292 16.3801C16.8387 15.8341 16.7844 15.0701 16.3018 14.5875L12.4017 10.6874C12.1445 10.4302 11.7957 10.2857 11.4319 10.2857H6.13133C5.54102 10.2857 5.01695 10.6634 4.83028 11.2235L3.86226 14.1275C3.62274 14.8461 4.01107 15.6227 4.72962 15.8623L7.9209 16.926C8.33042 17.0625 8.65177 17.3839 8.78827 17.7934L9.92354 21.1992Z" fill="#0D0D0F"/>
</svg>
