<svg width="24" height="24" viewBox="0 0 24 24" fill="none" xmlns="http://www.w3.org/2000/svg">
<path fill-rule="evenodd" clip-rule="evenodd" d="M20.4657 5.90918L18.0615 3.50501C17.1633 2.60681 15.707 2.60681 14.8088 3.50501L4.10414 14.2097C3.72984 14.584 3.4961 15.076 3.44236 15.6026L3.16916 18.2799C3.02126 19.7294 4.24126 20.9494 5.69076 20.8015L8.36813 20.5283C8.89474 20.4746 9.38669 20.2409 9.76099 19.8666L20.4657 9.16187C21.3639 8.26366 21.3639 6.80738 20.4657 5.90918ZM5.43203 15.8056L5.32876 16.8177L5.15883 18.483C5.13954 18.672 5.29867 18.8311 5.48774 18.8119L7.15299 18.6419L8.1651 18.5387C8.23379 18.5316 8.29796 18.5012 8.34678 18.4523L15.7282 11.0709L12.8998 8.2425L5.51835 15.6239C5.46953 15.6727 5.43904 15.7369 5.43203 15.8056ZM14.314 6.82828L17.1424 9.65671L19.0515 7.74766C19.1686 7.6305 19.1686 7.44055 19.0515 7.32339L16.6473 4.91923C16.5301 4.80207 16.3402 4.80207 16.223 4.91923L14.314 6.82828Z" fill="#0D0D0F"/>
</svg>
