<svg width="16" height="16" viewBox="0 0 16 16" fill="none" xmlns="http://www.w3.org/2000/svg">
<path d="M8.36364 4.78353C8.36364 6.93275 6.9091 8.36556 5.45456 8.36556C4.00001 8.36556 2.54545 6.93275 2.54545 4.78353C2.54545 2.39551 4.29092 1.5 5.45456 1.5C6.61819 1.5 8.36364 2.39551 8.36364 4.78353Z" fill="#0D0D0F"/>
<path d="M0 12.7017C0 10.6037 1.82045 9.44117 5.45455 9.44117C9.08864 9.44117 10.9091 10.6037 10.9091 12.7017C10.9091 13.6968 8.46818 14.5 5.45455 14.5C2.44091 14.5 0 13.6968 0 12.7017Z" fill="#0D0D0F"/>
<path d="M14.1818 5.74272C14.1818 7.33719 13.0909 8.36556 12 8.36556C10.9091 8.36556 9.81818 7.33719 9.81818 5.74272C9.81818 3.97109 11.1273 3.30672 12 3.30672C12.8727 3.30672 14.1818 3.97109 14.1818 5.74272Z" fill="#0D0D0F"/>
<path d="M12 13.7857C11.8743 13.7857 11.7499 13.7835 11.6271 13.7791C11.8408 13.4939 12 13.135 12 12.7017C12 11.4138 11.4679 10.3374 10.4542 9.58813C10.9069 9.49643 11.4222 9.44959 12 9.44959C14.665 9.44959 16 10.446 16 12.2443C16 13.0972 14.21 13.7857 12 13.7857Z" fill="#0D0D0F"/>
</svg>
