<svg width="16" height="16" viewBox="0 0 16 16" fill="none" xmlns="http://www.w3.org/2000/svg">
<path fill-rule="evenodd" clip-rule="evenodd" d="M5.66676 2C5.05218 2 4.30999 2.22387 3.71263 2.74331C3.09525 3.28016 2.66675 4.10377 2.66675 5.21739C2.66675 7.1862 4.06654 8.66667 5.66676 8.66667C7.26698 8.66667 8.66675 7.18619 8.66675 5.21739C8.66675 4.10377 8.23826 3.28016 7.62087 2.74331C7.02352 2.22387 6.28133 2 5.66676 2ZM4.00008 5.21739C4.00008 4.47594 4.27159 4.02419 4.58754 3.74945C4.92352 3.45729 5.348 3.33333 5.66676 3.33333C5.98551 3.33333 6.40999 3.45729 6.74597 3.74945C7.06191 4.02418 7.33342 4.47594 7.33342 5.21739C7.33342 6.58772 6.39987 7.33333 5.66676 7.33333C4.93364 7.33333 4.00008 6.58771 4.00008 5.21739Z" fill="#0D0D0F"/>
<path fill-rule="evenodd" clip-rule="evenodd" d="M0.666748 12.3411C0.666748 10.4057 2.3355 9.33333 5.66675 9.33333C8.998 9.33333 10.6667 10.4057 10.6667 12.3411C10.6667 13.259 8.42925 14 5.66675 14C2.90425 14 0.666748 13.259 0.666748 12.3411ZM2.55046 12.2492C2.31217 12.1702 2.14174 12.0934 2.02715 12.0307C2.09147 11.6964 2.27402 11.4564 2.61339 11.2488C3.1431 10.9247 4.1055 10.6667 5.66675 10.6667C7.22799 10.6667 8.19039 10.9247 8.7201 11.2488C9.05948 11.4564 9.24203 11.6964 9.30634 12.0307C9.19176 12.0934 9.02133 12.1702 8.78304 12.2492C8.04712 12.4932 6.94547 12.6667 5.66675 12.6667C4.38803 12.6667 3.28637 12.4932 2.55046 12.2492ZM9.47245 11.9207C9.47547 11.9175 9.47733 11.916 9.47733 11.916L9.47245 11.9207Z" fill="#0D0D0F"/>
<path fill-rule="evenodd" clip-rule="evenodd" d="M10.1322 3.94696C10.5949 3.52164 11.1751 3.33333 11.6668 3.33333C12.1585 3.33333 12.7386 3.52164 13.2013 3.94696C13.6814 4.38838 14.0001 5.0525 14.0001 5.92613C14.0001 7.46176 12.9551 8.66667 11.6667 8.66667C10.3784 8.66667 9.33342 7.46176 9.33342 5.92613C9.33342 5.0525 9.65207 4.38838 10.1322 3.94696ZM11.0346 4.92855C10.8481 5.1 10.6667 5.39895 10.6667 5.92613C10.6667 6.91199 11.2884 7.33333 11.6667 7.33333C12.045 7.33333 12.6667 6.91199 12.6667 5.92613C12.6667 5.39894 12.4854 5.09999 12.2989 4.92855C12.0949 4.74101 11.8417 4.66667 11.6668 4.66667C11.4918 4.66667 11.2386 4.74101 11.0346 4.92855Z" fill="#0D0D0F"/>
<path d="M11.6667 13.3333C11.5534 13.3333 11.4413 13.3313 11.3306 13.3275C11.5235 13.0655 11.6667 12.737 11.6667 12.3411C11.6667 12.2255 11.6621 12.1118 11.6529 12L11.6667 12C12.5581 12 13.3039 11.8579 13.7779 11.6742C13.8556 11.6441 13.919 11.6155 13.9701 11.59C13.9173 11.3422 13.7983 11.1976 13.6406 11.0848C13.3508 10.8776 12.756 10.6667 11.6667 10.6667C11.5321 10.6667 11.4051 10.6699 11.2852 10.6759C11.0461 10.2079 10.6964 9.79935 10.2415 9.46282C10.6585 9.37712 11.1336 9.33333 11.6667 9.33333C14.1097 9.33333 15.3334 10.2525 15.3334 11.9114C15.3334 12.6982 13.6926 13.3333 11.6667 13.3333Z" fill="#0D0D0F"/>
</svg>
