<svg width="24" height="24" viewBox="0 0 24 24" fill="none" xmlns="http://www.w3.org/2000/svg">
<path fill-rule="evenodd" clip-rule="evenodd" d="M15 11C14.1131 10.9999 13.2514 10.7052 12.5502 10.1622C11.849 9.61918 11.3481 8.85864 11.126 8.00002H3C2.73478 8.00002 2.48043 7.89466 2.29289 7.70713C2.10536 7.51959 2 7.26524 2 7.00002C2 6.7348 2.10536 6.48045 2.29289 6.29291C2.48043 6.10538 2.73478 6.00002 3 6.00002H11.126C11.3484 5.14178 11.8496 4.3817 12.5507 3.83909C13.2519 3.29649 14.1134 3.00208 15 3.00208C15.8866 3.00208 16.7481 3.29649 17.4493 3.83909C18.1504 4.3817 18.6516 5.14178 18.874 6.00002H21C21.2652 6.00002 21.5196 6.10538 21.7071 6.29291C21.8946 6.48045 22 6.7348 22 7.00002C22 7.26524 21.8946 7.51959 21.7071 7.70713C21.5196 7.89466 21.2652 8.00002 21 8.00002H18.874C18.652 8.85864 18.151 9.61918 17.4498 10.1622C16.7486 10.7052 15.8869 10.9999 15 11ZM3 16C2.73478 16 2.48043 16.1054 2.29289 16.2929C2.10536 16.4804 2 16.7348 2 17C2 17.2652 2.10536 17.5196 2.29289 17.7071C2.48043 17.8947 2.73478 18 3 18H5.126C5.34844 18.8583 5.84957 19.6183 6.55074 20.1609C7.2519 20.7036 8.1134 20.998 9 20.998C9.8866 20.998 10.7481 20.7036 11.4493 20.1609C12.1504 19.6183 12.6516 18.8583 12.874 18H21C21.2652 18 21.5196 17.8947 21.7071 17.7071C21.8946 17.5196 22 17.2652 22 17C22 16.7348 21.8946 16.4804 21.7071 16.2929C21.5196 16.1054 21.2652 16 21 16H12.874C12.6516 15.1418 12.1504 14.3817 11.4493 13.8391C10.7481 13.2965 9.8866 13.0021 9 13.0021C8.1134 13.0021 7.2519 13.2965 6.55074 13.8391C5.84957 14.3817 5.34844 15.1418 5.126 16H3ZM15 9.00002C15.5304 9.00002 16.0391 8.78931 16.4142 8.41423C16.7893 8.03916 17 7.53045 17 7.00002C17 6.46959 16.7893 5.96088 16.4142 5.58581C16.0391 5.21073 15.5304 5.00002 15 5.00002C14.4696 5.00002 13.9609 5.21073 13.5858 5.58581C13.2107 5.96088 13 6.46959 13 7.00002C13 7.53045 13.2107 8.03916 13.5858 8.41423C13.9609 8.78931 14.4696 9.00002 15 9.00002ZM11 17C11 17.5305 10.7893 18.0392 10.4142 18.4142C10.0391 18.7893 9.53043 19 9 19C8.46957 19 7.96086 18.7893 7.58579 18.4142C7.21071 18.0392 7 17.5305 7 17C7 16.4696 7.21071 15.9609 7.58579 15.5858C7.96086 15.2107 8.46957 15 9 15C9.53043 15 10.0391 15.2107 10.4142 15.5858C10.7893 15.9609 11 16.4696 11 17Z" fill="#0D0D0F"/>
</svg>
