<svg width="24" height="24" viewBox="0 0 24 24" fill="none" xmlns="http://www.w3.org/2000/svg">
<path fill-rule="evenodd" clip-rule="evenodd" d="M8.34267 3.63796C8.25276 5.48702 7.96106 6.21103 5.12624 10.339C2.9069 13.5707 2.84934 17.8612 6.05408 20.5037C6.98972 21.2765 8.13917 21.7466 9.28 22C10.4853 22.2676 11.1265 20.9465 10.2945 20.1525C8.96601 18.885 9.09855 17.5467 10.1793 16.3063C10.9909 15.3748 11.5115 14.3394 11.7335 13.2916C14.5004 14.9921 15.8518 18.2074 13.6791 20.0881C12.7477 20.8944 13.4572 22.3433 14.7268 21.9497C20.3614 20.2026 21.2789 15.4495 20.7984 12.0144C20.4129 9.25783 19.0532 6.53456 17.5444 5.37207C16.3767 4.33526 15.3433 4.89546 15.1808 6.45704C15.1477 6.77512 15.0366 7.19976 15.0366 7.19976C14.2049 4.92737 12.3931 3.04957 10.4138 2.18635C9.29488 1.69832 8.41792 2.09031 8.34267 3.63796ZM9.87317 12.1706C9.91454 13.2081 9.49225 14.0504 8.6714 14.9925C7.64969 16.165 6.7783 18.0461 7.90165 19.8823C4.94196 17.3622 5.1002 13.9416 6.7783 11.4662C6.84932 11.3628 6.92718 11.2504 7.01193 11.1289C7.12203 10.9711 7.4564 10.4956 7.57606 10.3255C7.6005 10.2907 7.61599 10.2687 7.61878 10.2647C7.86189 9.91808 8.0444 9.65363 8.21836 9.39404C9.48616 7.50227 10.0351 5.57795 10.1726 3.87291C11.884 4.92316 13.4017 7.33258 13.858 9.23944C14.0365 9.9856 14.9541 10.2611 15.5141 9.73662C16.1281 9.1616 16.6197 7.92821 16.7408 7.04105C17.5974 8.09223 18.5573 10.4289 18.8177 12.2914C19.3113 15.8204 17.9525 18.1128 16.05 19.7061C17.4851 16.3228 15.0333 12.5415 11.6261 11.0908C10.4497 10.59 9.83721 11.2688 9.87317 12.1706Z" fill="#0D0D0F"/>
</svg>
