<svg width="24" height="24" viewBox="0 0 24 24" fill="none" xmlns="http://www.w3.org/2000/svg">
<path d="M21.733 4.988C22.538 3.557 21.399 2 19.999 2C19.677 2 19.341 2.082 19.012 2.267C17.312 3.217 15.74 4.156 15.001 4.737C14.567 5.079 13.963 5.631 13.324 6.237L5.989 4.043C5.8 3.987 5.607 3.959 5.416 3.959C4.821 3.959 4.245 4.225 3.859 4.703L2.04 6.958L8.609 11.158C8.054 11.889 7.516 12.643 7.241 13.029L3.717 12.466C3.638 12.453 3.558 12.447 3.479 12.447C2.968 12.447 2.485 12.708 2.208 13.15L1 14.929L6.021 17.979L9.071 23L10.888 21.768C11.404 21.445 11.673 20.842 11.57 20.242L10.972 16.759C11.358 16.484 12.112 15.946 12.843 15.391L17.043 21.96L19.298 20.141C19.93 19.631 20.191 18.789 19.958 18.011L17.764 10.676C18.37 10.037 18.922 9.433 19.264 8.999C19.844 8.26 20.782 6.688 21.733 4.988ZM4.26 6.597L5.027 5.646C5.123 5.527 5.265 5.46 5.417 5.46C5.465 5.46 5.513 5.467 5.56 5.481L12.088 7.434C11.166 8.34 10.327 9.187 9.962 9.539C9.843 9.653 9.702 9.809 9.553 9.981L4.26 6.597ZM16.674 9.643L16.076 10.273L18.519 18.441C18.577 18.636 18.513 18.846 18.354 18.974L17.403 19.741L13.229 13.213C11.721 14.358 11.411 14.604 10.1 15.538L9.332 16.085L10.089 20.498L9.532 20.874L7.11 16.888L3.125 14.467L3.478 13.948C7.616 14.609 6.732 14.469 7.923 14.654L8.463 13.896C9.722 12.129 10.575 11.027 10.999 10.62C11.188 10.439 11.498 10.129 11.881 9.748C13.037 8.597 14.971 6.67 15.928 5.917C16.268 5.65 17.217 4.994 19.746 3.576C20.193 3.325 20.67 3.813 20.421 4.257C19.005 6.782 18.349 7.731 18.082 8.071C17.816 8.41 17.342 8.939 16.674 9.643Z" fill="#0D0D0F"/>
</svg>
