<svg width="24" height="24" viewBox="0 0 24 24" fill="none" xmlns="http://www.w3.org/2000/svg">
<path d="M21.806 4.236C21.188 5.358 20.653 6.317 20.492 6.576C19.646 7.932 17.86 9.594 17.503 9.997C17.51 10.004 19.273 15.594 20.093 18.195C20.341 18.983 20.078 19.837 19.433 20.353L18.003 21.497L13.503 13.997L10.003 16.497L10.441 21.412C10.474 21.777 10.304 22.13 10 22.333L9 23L5.976 18.024L1 15L1.667 14C1.87 13.695 2.224 13.526 2.589 13.559L7.504 13.997C7.504 13.997 9.331 11.335 10.004 10.497C11.639 8.461 16.472 4.103 17.425 3.508C17.684 3.347 18.643 2.812 19.765 2.194C21.082 1.468 22.532 2.918 21.806 4.236ZM12.313 5.96L5.8 3.91C5.01 3.66 4.16 3.93 3.64 4.57L2.5 6L8.705 9.723L12.313 5.96Z" fill="#0D0D0F"/>
</svg>
