<svg width="24" height="24" viewBox="0 0 24 24" fill="none" xmlns="http://www.w3.org/2000/svg">
<path d="M14.8346 10.226L13.7736 9.165L19.9386 3L20.9996 4.061L14.8346 10.226ZM12.0596 7.001C13.7136 5.347 13.7136 2.654 12.0596 1L10.9986 2.061C12.0676 3.13 12.0676 4.872 10.9986 5.941L10.7736 6.166L11.8346 7.227L12.0596 7.001ZM16.9986 11.94L16.7736 12.165L17.8346 13.226L18.0596 13.001C19.1306 11.931 20.8706 11.932 21.9396 13.001L22.9996 11.94C21.3466 10.287 18.6536 10.285 16.9986 11.94ZM7.48859 5L18.9996 16.511L4.70059 21.869C4.46159 21.959 4.22359 22 3.99259 22C2.67959 22 1.61959 20.661 2.12959 19.299L7.48859 5ZM8.10459 18.992L5.00759 15.895L3.53459 19.826C3.36759 20.27 3.82659 20.595 4.17359 20.465L8.10459 18.992ZM12.4326 17.37L6.62959 11.567L5.58559 14.352L9.64759 18.414L12.4326 17.37ZM8.07559 7.708L7.20759 10.024L13.9746 16.791L16.2906 15.923L8.07559 7.708Z" fill="#0D0D0F"/>
</svg>
