<svg width="24" height="24" viewBox="0 0 24 24" fill="none" xmlns="http://www.w3.org/2000/svg">
<path fill-rule="evenodd" clip-rule="evenodd" d="M18.1235 23.0607L0.123535 5.06066L1.1842 4L19.1842 22L18.1235 23.0607Z" fill="#0D0D0F"/>
<path d="M13.7736 9.165L14.8346 10.226L20.9996 4.061L19.9386 3L13.7736 9.165Z" fill="#0D0D0F"/>
<path d="M12.0596 1C13.7136 2.654 13.7136 5.347 12.0596 7.001L11.8346 7.227L10.7736 6.166L10.9986 5.941C12.0676 4.872 12.0676 3.13 10.9986 2.061L12.0596 1Z" fill="#0D0D0F"/>
<path d="M16.7736 12.165L16.9986 11.94C18.6536 10.285 21.3466 10.287 22.9996 11.94L21.9396 13.001C20.8706 11.932 19.1306 11.931 18.0596 13.001L17.8346 13.226L16.7736 12.165Z" fill="#0D0D0F"/>
<path d="M18.9996 16.511L7.48859 5L6.61024 7.34362L7.77545 8.50883L8.07559 7.708L16.2906 15.923L15.4898 16.2231L16.6558 17.3892L18.9996 16.511Z" fill="#0D0D0F"/>
<path fill-rule="evenodd" clip-rule="evenodd" d="M12.0679 19.1084L10.903 17.9434L9.64759 18.414L5.58559 14.352L6.05619 13.0966L4.89087 11.9313L2.12959 19.299C1.61959 20.661 2.67959 22 3.99259 22C4.22359 22 4.46159 21.959 4.70059 21.869L12.0679 19.1084ZM5.00759 15.895L8.10459 18.992L4.17359 20.465C3.82659 20.595 3.36759 20.27 3.53459 19.826L5.00759 15.895Z" fill="#0D0D0F"/>
</svg>
