<svg preserveAspectRatio="none" width="100%" height="100%" overflow="visible" style="display: block;" viewBox="0 0 20 15.9989" fill="none" xmlns="http://www.w3.org/2000/svg">
<g id="Group 2951">
<path id="Subtract" d="M14.9004 15.9989H5.09961V4.14927H14.9004V15.9989ZM16.0996 4.15123C18.2627 4.2041 20 5.97344 20 8.14927V11.9989C20 14.1747 18.2627 15.9431 16.0996 15.996V4.15123ZM3.90039 15.996C1.7373 15.9431 1.11478e-08 14.1747 0 11.9989V8.14927C5.0783e-06 5.97345 1.73729 4.20411 3.90039 4.15123V15.996Z" fill="var(--fill-0, #009900)"/>
<path id="Vector" d="M9.89666 0.100447C10.7828 0.100523 11.5994 0.331114 12.214 0.782087C12.8308 1.23467 13.239 1.90595 13.3068 2.7733L13.3156 2.88072H12.3693L12.3595 2.79088C12.2354 1.58855 11.1918 0.891619 9.89666 0.891462C8.60065 0.891462 7.55749 1.58882 7.45135 2.7899L7.44353 2.88072H6.49724L6.50408 2.77427C6.56222 1.90663 6.96571 1.23488 7.58025 0.782087C8.19271 0.330906 9.01044 0.100447 9.89666 0.100447Z" fill="var(--fill-0, #009900)" stroke="var(--stroke-0, #009900)" stroke-width="0.2"/>
</g>
</svg>
