<svg width="24" height="24" viewBox="0 0 24 24" fill="none" xmlns="http://www.w3.org/2000/svg">
<path fill-rule="evenodd" clip-rule="evenodd" d="M3.60539 4.48039C4.64893 3.43686 6.05338 3 7.5 3C9.60324 3 11.0827 4.12267 11.9999 5.66661C12.9116 4.12453 14.3814 3 16.5 3C17.9466 3 19.3511 3.43686 20.3946 4.48039C21.4416 5.52736 22 7.05948 22 9C22 11.7743 20.3217 14.3542 18.4093 16.3632C16.4722 18.3982 14.1311 20.133 12.4606 21H11.5394C9.86887 20.133 7.52781 18.3982 5.59069 16.3632C3.67833 14.3542 2 11.7743 2 9C2 7.05948 2.55843 5.52736 3.60539 4.48039ZM5.01961 5.89461C4.44157 6.47264 4 7.44052 4 9C4 10.9957 5.24167 13.0958 7.03931 14.9843C8.63682 16.6625 10.5478 18.1782 12 19C13.4522 18.1782 15.3632 16.6625 16.9607 14.9843C18.7583 13.0958 20 10.9957 20 9C20 7.44052 19.5584 6.47264 18.9804 5.89461C18.3989 5.31314 17.5534 5 16.5 5C14.6772 5 13.5 6.5 13 8.5L11.0381 8.49622C10.5 6.5 9.30723 5 7.5 5C6.44662 5 5.60107 5.31314 5.01961 5.89461Z" fill="#0D0D0F"/>
</svg>
