<svg width="24" height="24" viewBox="0 0 24 24" fill="none" xmlns="http://www.w3.org/2000/svg">
<path fill-rule="evenodd" clip-rule="evenodd" d="M21 8.63895C21 3.75134 14.8854 2.22699 12.9842 6.50503C12.6021 7.36458 11.4049 7.36458 11.0227 6.50503C9.12153 2.22699 3 3.75024 3 8.63895C3 12.2066 6.20837 16.3984 12.0035 20C17.7997 16.3995 21 12.2054 21 8.63895Z" fill="#0D0D0F"/>
<path d="M12.3877 5.41748C15.3535 1.7773 21.5 3.48715 21.5 8.99854C21.4999 12.9348 18.4942 16.7382 12.2549 20.4253C12.0979 20.5181 11.9021 20.5181 11.7451 20.4253C5.50576 16.7382 2.50015 12.9348 2.5 8.99854C2.5 3.48715 8.64643 1.77729 11.6123 5.41748L12 5.89307L12.3877 5.41748ZM17.2207 4.58057C15.4365 4.20444 13.4335 5.04367 12.4551 7.20459C12.2778 7.59615 11.7222 7.59615 11.5449 7.20459C10.5665 5.04368 8.56349 4.20445 6.7793 4.58057C4.98832 4.95831 3.5 6.54195 3.5 8.99854C3.50015 12.534 6.33336 15.9581 11.7393 19.2554L12 19.4146L12.2607 19.2554C17.6667 15.9581 20.4998 12.534 20.5 8.99854C20.5 6.54195 19.0117 4.95831 17.2207 4.58057Z" fill="white" stroke="white"/>
</svg>
