<svg width="24" height="24" viewBox="0 0 24 24" fill="none" xmlns="http://www.w3.org/2000/svg">
<path d="M4 9.142C3.208 9.47 2.539 9.8 2 10.091V6.319C2 5.081 2.771 3.957 3.918 3.521C5.407 2.953 8.439 2 12 2C15.561 2 18.593 2.953 20.083 3.521C21.229 3.957 22 5.081 22 6.319V10.091C21.461 9.8 20.792 9.47 20 9.141V7.405C20 7.022 19.781 6.673 19.437 6.506C19.329 6.454 18.341 6 16.5 6C14.659 6 13.671 6.454 13.563 6.506C13.219 6.673 13 7.022 13 7.405V7.53C12.671 7.513 12.339 7.5 12 7.5C11.661 7.5 11.329 7.513 11 7.53V7.405C11 7.022 10.781 6.673 10.437 6.506C10.329 6.454 9.341 6 7.5 6C5.659 6 4.671 6.454 4.563 6.506C4.219 6.673 4 7.022 4 7.405V9.142ZM22.573 12.181C22.387 12.051 17.954 9 12 9C6.046 9 1.613 12.051 1.427 12.181C1.159 12.367 1 12.674 1 13V22H3.31L4 20H20L20.69 22H23V13C23 12.674 22.841 12.367 22.573 12.181Z" fill="#0D0D0F"/>
</svg>
