<svg width="24" height="24" viewBox="0 0 24 24" fill="none" xmlns="http://www.w3.org/2000/svg">
<path d="M22.374 11.547C22.261 11.47 22.135 11.389 22 11.306V6.319C22 5.081 21.229 3.957 20.083 3.521C18.593 2.953 15.561 2 12 2C8.439 2 5.407 2.953 3.918 3.521C2.771 3.957 2 5.081 2 6.319V11.301C1.868 11.382 1.745 11.462 1.635 11.537C1.23 11.815 1 12.276 1 12.766V22H3L3.75 20H20.25L21 22H23V12.766C23 12.283 22.774 11.82 22.374 11.547ZM3.5 6.319C3.5 5.7 3.882 5.139 4.453 4.923C5.845 4.391 8.677 3.5 12 3.5C15.321 3.5 18.155 4.392 19.55 4.924C20.118 5.139 20.5 5.7 20.5 6.319V10.503C19.909 10.223 19.237 9.942 18.5 9.681V8.619C18.5 7.909 18.007 7.28 17.309 7.15C16.897 7.073 16.378 7.012 15.75 7C14.874 6.984 14.208 7.097 13.751 7.22C13.309 7.34 13 7.733 13 8.191V8.533C12.669 8.513 12.336 8.5 12 8.5C11.664 8.5 11.331 8.513 11 8.533V8.191C11 7.733 10.691 7.34 10.249 7.221C9.792 7.098 9.126 6.985 8.25 7.001C7.623 7.012 7.104 7.074 6.691 7.151C5.993 7.28 5.5 7.909 5.5 8.619V9.677C4.764 9.937 4.091 10.217 3.5 10.497V6.319ZM2.489 18.5V12.776C4.119 11.66 7.992 10 12 10C15.996 10 19.888 11.666 21.5 12.766V18.5H2.489Z" fill="#0D0D0F"/>
</svg>
