<svg preserveAspectRatio="none" width="100%" height="100%" overflow="visible" style="display: block;" viewBox="0 0 12.9998 12.9998" fill="none" xmlns="http://www.w3.org/2000/svg">
<path id="Path" d="M11.2929 0.292893C11.6834 -0.0976311 12.3164 -0.0976311 12.707 0.292893C13.0975 0.683417 13.0975 1.31643 12.707 1.70696L7.91399 6.49992L12.707 11.2929C13.0975 11.6834 13.0975 12.3164 12.707 12.707C12.3164 13.0975 11.6834 13.0975 11.2929 12.707L6.49992 7.91399L1.70696 12.707C1.31643 13.0975 0.683417 13.0975 0.292893 12.707C-0.0976311 12.3164 -0.0976311 11.6834 0.292893 11.2929L5.08586 6.49992L0.292893 1.70696C-0.097631 1.31643 -0.0976311 0.683418 0.292893 0.292893C0.683418 -0.0976311 1.31643 -0.097631 1.70696 0.292893L6.49992 5.08586L11.2929 0.292893Z" fill="var(--fill-0, #9D9B98)"/>
</svg>
