<svg preserveAspectRatio="none" width="100%" height="100%" overflow="visible" style="display: block;" viewBox="0 0 20 20" fill="none" xmlns="http://www.w3.org/2000/svg">
<path id="Union" d="M12 0C13.6569 0 15 1.34315 15 3V4H17C18.6569 4 20 5.34315 20 7V17C20 18.6569 18.6569 20 17 20H3C1.34315 20 0 18.6569 0 17V7C0 5.34315 1.34315 4 3 4H5V3C5 1.34315 6.34315 0 8 0H12ZM2 17C2 17.5523 2.44772 18 3 18H17C17.5523 18 18 17.5523 18 17V13.0879C16.0302 13.8181 13.3081 14.5 10 14.5C6.56055 14.5 3.90693 13.791 2 12.9854V17ZM3 6C2.44772 6 2 6.44772 2 7V10.7871C3.68452 11.6211 6.32532 12.5 10 12.5C13.4481 12.5 16.1913 11.6927 18 10.9404V7C18 6.44772 17.5523 6 17 6H3ZM11 8C11.5523 8 12 8.44772 12 9C12 9.55228 11.5523 10 11 10H9C8.44772 10 8 9.55228 8 9C8 8.44772 8.44772 8 9 8H11ZM8 2C7.44772 2 7 2.44772 7 3V4H13V3C13 2.44772 12.5523 2 12 2H8Z" fill="var(--fill-0, #0D0D0F)"/>
</svg>
