<svg preserveAspectRatio="none" width="100%" height="100%" overflow="visible" style="display: block;" viewBox="0 0 16 16" fill="none" xmlns="http://www.w3.org/2000/svg">
<path id="Vector" fill-rule="evenodd" clip-rule="evenodd" d="M11.8 0.106667C11.7257 0.047239 11.6374 0.0110502 11.5449 0.00215526C11.4524 -0.00673967 11.3594 0.0120113 11.2764 0.0563057C11.1933 0.100601 11.1235 0.16869 11.0747 0.252944C11.0259 0.337198 11 0.434288 11 0.533332V2.66667H1C0.734784 2.66667 0.48043 2.77905 0.292893 2.97909C0.105357 3.17913 0 3.45044 0 3.73333C0 4.01623 0.105357 4.28754 0.292893 4.48758C0.48043 4.68763 0.734784 4.8 1 4.8H11V6.93334C11 7.03239 11.0259 7.12947 11.0747 7.21373C11.1235 7.29799 11.1933 7.36607 11.2764 7.41037C11.3594 7.45466 11.4524 7.47341 11.5449 7.46451C11.6374 7.45562 11.7257 7.41944 11.8 7.36L15.797 4.16C15.8591 4.11033 15.9095 4.04591 15.9442 3.97185C15.9789 3.89779 15.997 3.81613 15.997 3.73333C15.997 3.65054 15.9789 3.56887 15.9442 3.49483C15.9095 3.42077 15.8591 3.35635 15.797 3.30667L11.8 0.106667ZM5 13.3334V15.4667C5 15.5657 4.97414 15.6628 4.92533 15.747C4.87651 15.8313 4.80666 15.8994 4.72361 15.9437C4.64055 15.988 4.54758 16.0068 4.4551 15.9978C4.36262 15.989 4.27428 15.9528 4.2 15.8934L0.203 12.6934C0.140902 12.6437 0.0905003 12.5793 0.0557864 12.5052C0.0210725 12.4311 0.003 12.3495 0.003 12.2667C0.003 12.1838 0.0210725 12.1022 0.0557864 12.0281C0.0905003 11.9541 0.140902 11.8897 0.203 11.8401L4.2 8.64C4.27428 8.58058 4.36262 8.54439 4.4551 8.53549C4.54758 8.52659 4.64055 8.54535 4.72361 8.58964C4.80666 8.63394 4.87651 8.70203 4.92533 8.78628C4.97414 8.87053 5 8.96763 5 9.06667V11.2001H15C15.2652 11.2001 15.5196 11.3124 15.7071 11.5124C15.8946 11.7125 16 11.9837 16 12.2667C16 12.5496 15.8946 12.8209 15.7071 13.021C15.5196 13.221 15.2652 13.3334 15 13.3334H5Z" fill="var(--fill-0, #9D9B98)"/>
</svg>
