<svg width="12" height="12" viewBox="0 0 12 12" fill="none" xmlns="http://www.w3.org/2000/svg">
<path fill-rule="evenodd" clip-rule="evenodd" d="M7.5 2.95455C7.5 3.54534 7.271 4.08536 6.93382 4.47056C6.58402 4.87018 6.21892 5 6.00001 5C5.78109 5 5.41599 4.87018 5.06618 4.47055C4.72901 4.08535 4.5 3.54534 4.5 2.95455C4.5 2.23351 4.75434 1.95387 4.96039 1.80401C5.24263 1.59875 5.65412 1.5 6.00001 1.5C6.3459 1.5 6.75739 1.59875 7.03962 1.80401C7.24566 1.95386 7.5 2.2335 7.5 2.95455ZM6.00001 6.5C7.50001 6.5 9 4.90455 9 2.95455C9 0.590909 7.12501 0 6.00001 0C4.87501 0 3 0.590909 3 2.95455C3 4.90455 4.50001 6.5 6.00001 6.5ZM2.98323 10.0289C2.79246 9.95849 2.64562 9.89091 2.53712 9.83296C2.58834 9.60756 2.68988 9.51035 2.82481 9.42153C3.19093 9.1805 4.06411 8.8999 6 8.8999C7.93589 8.8999 8.80907 9.1805 9.17519 9.42153C9.31012 9.51035 9.41166 9.60756 9.46288 9.83297C9.35438 9.89091 9.20754 9.95849 9.01677 10.0289C8.30104 10.2929 7.23005 10.4999 6 10.4999C4.76995 10.4999 3.69896 10.2929 2.98323 10.0289ZM6 7.3999C2 7.3999 1 8.4999 1 10.2499C1 11.0799 3.2375 11.9999 6 11.9999C8.7625 11.9999 11 11.0799 11 10.2499C11 8.4999 10 7.3999 6 7.3999Z" fill="#0D0D0F"/>
</svg>
