<svg width="24" height="24" viewBox="0 0 24 24" fill="none" xmlns="http://www.w3.org/2000/svg">
<path d="M6.86841 2C4.22641 2 2.86841 6.079 2.86841 8.5C2.86841 10.639 4.26841 12.506 6.11841 12.912V22H7.61841V12.912C9.46841 12.506 10.8684 10.639 10.8684 8.5C10.8684 6.079 9.51041 2 6.86841 2ZM8.57141 10.667C8.09841 11.204 7.49341 11.5 6.86841 11.5C5.51341 11.5 4.36841 10.126 4.36841 8.5C4.36841 7.402 4.70141 6.036 5.21541 5.02C5.50341 4.452 6.10041 3.5 6.86841 3.5C8.24841 3.5 9.36841 6.526 9.36841 8.5C9.36841 9.301 9.07741 10.091 8.57141 10.667ZM20.8684 2V8.211C20.8684 9.634 20.0764 10.915 18.8014 11.555L18.3074 11.804C17.8814 12.017 17.6174 12.446 17.6174 12.921V22H16.1174V12.921C16.1174 12.446 15.8534 12.017 15.4294 11.805L14.9334 11.555C13.6604 10.915 12.8684 9.634 12.8684 8.211V2H14.3684V8.211C14.3684 9.063 14.8434 9.831 15.6084 10.214L16.1044 10.464L16.1194 10.474V2H17.6194V10.474L17.6344 10.463L18.1284 10.214C18.8934 9.831 19.3684 9.063 19.3684 8.211V2H20.8684Z" fill="#0D0D0F"/>
</svg>
