<svg width="24" height="24" viewBox="0 0 24 24" fill="none" xmlns="http://www.w3.org/2000/svg">
<path fill-rule="evenodd" clip-rule="evenodd" d="M10.943 23.0002H13.0791C13.8015 21.1374 15.613 19.6774 17.115 18.5075C17.759 18.0059 18.3557 17.5411 18.8033 17.102C20.1503 15.7833 21.0678 14.1022 21.4398 12.2715C21.8117 10.4408 21.6214 8.54303 20.8928 6.81858C20.1642 5.09414 18.9301 3.62063 17.347 2.58476C15.7639 1.54888 13.903 0.997256 12 0.999764C10.097 0.997256 8.23601 1.54888 6.65291 2.58476C5.0698 3.62063 3.83577 5.09414 3.10718 6.81858C2.37858 8.54303 2.1882 10.4408 2.56017 12.2715C2.93213 14.1022 3.84969 15.7833 5.1966 17.102C5.64496 17.5445 6.24607 18.0131 6.89532 18.5191C8.39317 19.6866 10.2112 21.2773 10.943 23.0002ZM9.93426 7.4215C10.549 7.01859 11.2717 6.80354 12.011 6.80354C13.0024 6.80354 13.9533 7.18986 14.6543 7.8775C15.3553 8.56515 15.7492 9.4978 15.7492 10.4703C15.7492 11.1955 15.5299 11.9044 15.1192 12.5074C14.7084 13.1104 14.1246 13.5804 13.4416 13.8579C12.7585 14.1354 12.0069 14.2081 11.2818 14.0666C10.5566 13.9251 9.89058 13.5759 9.36779 13.0631C8.84501 12.5503 8.48899 11.8969 8.34475 11.1856C8.20052 10.4744 8.27454 9.73709 8.55747 9.06708C8.8404 8.39707 9.31953 7.8244 9.93426 7.4215Z" fill="#0D0D0F"/>
</svg>
