<svg width="16" height="16" viewBox="0 0 16 16" fill="none" xmlns="http://www.w3.org/2000/svg">
<path fill-rule="evenodd" clip-rule="evenodd" d="M8 0.666748C5.79086 0.666748 4 2.45761 4 4.66675V5.33342H3.33333C2.59695 5.33342 2 5.93037 2 6.66675V12.0001C2 13.841 3.49238 15.3334 5.33333 15.3334H10.6667C12.5076 15.3334 14 13.841 14 12.0001V6.66675C14 5.93037 13.403 5.33342 12.6667 5.33342H12V4.66675C12 2.45761 10.2091 0.666748 8 0.666748ZM10.6667 5.33342H5.33333V4.66675C5.33333 3.19399 6.52724 2.00008 8 2.00008C9.47276 2.00008 10.6667 3.19399 10.6667 4.66675V5.33342ZM6.54639 9.39353C6.54639 8.59074 7.19718 7.93994 7.99997 7.93994C8.80277 7.93994 9.45356 8.59074 9.45356 9.39353C9.45356 9.92112 9.17248 10.3831 8.7519 10.6378C8.6624 10.692 8.59998 10.7851 8.59998 10.8897V12.2602C8.59998 12.3339 8.54029 12.3936 8.46665 12.3936H7.53332C7.45968 12.3936 7.39998 12.3339 7.39998 12.2602V10.8897C7.39998 10.7851 7.33757 10.692 7.24806 10.6378C6.82747 10.3831 6.54639 9.92113 6.54639 9.39353Z" fill="#0D0D0F"/>
</svg>
