<svg width="24" height="24" viewBox="0 0 24 24" fill="none" xmlns="http://www.w3.org/2000/svg">
<path d="M18.9666 18.0525C18.9989 17.5785 19 16.9592 19 16V8C19 7.04075 18.9989 6.42148 18.9666 5.94752C18.9355 5.49152 18.8822 5.31786 18.8478 5.23463C18.6448 4.74458 18.2554 4.35523 17.7654 4.15224C17.6821 4.11777 17.5085 4.06453 17.0525 4.03342C16.5785 4.00108 15.9592 4 15 4L10 4V2H15C16.8638 2 17.7956 2 18.5307 2.30448C19.5108 2.71046 20.2895 3.48915 20.6955 4.46927C21 5.20435 21 6.13623 21 8V16C21 17.8638 21 18.7956 20.6955 19.5307C20.2895 20.5108 19.5108 21.2895 18.5307 21.6955C17.7956 22 16.8638 22 15 22H10V20H15C15.9592 20 16.5785 19.9989 17.0525 19.9666C17.5085 19.9355 17.6821 19.8822 17.7654 19.8478C18.2554 19.6448 18.6448 19.2554 18.8478 18.7654C18.8822 18.6821 18.9355 18.5085 18.9666 18.0525Z" fill="#0D0D0F"/>
<path d="M8.90931 8.70709L10.3235 7.29288L15.0306 12L10.3235 16.7071L8.90931 15.2929L11.2022 13H2V11H11.2022L8.90931 8.70709Z" fill="#0D0D0F"/>
</svg>
