<svg width="24" height="24" viewBox="0 0 24 24" fill="none" xmlns="http://www.w3.org/2000/svg">
<path fill-rule="evenodd" clip-rule="evenodd" d="M5 2C3.34315 2 2 3.34315 2 5V19C2 20.6569 3.34315 22 5 22H6C6.55228 22 7 21.5523 7 21C7 20.4477 6.55228 20 6 20H5C4.44772 20 4 19.5523 4 19V5C4 4.44772 4.44772 4 5 4H11C11.5523 4 12 4.44772 12 5V8.5C12 9.05228 12.4477 9.5 13 9.5C13.5523 9.5 14 9.05228 14 8.5V5C14 3.34315 12.6569 2 11 2H5ZM20 11H11C9.34315 11 8 12.3431 8 14V19C8 20.6569 9.34315 22 11 22H20C21.6569 22 23 20.6569 23 19V14C23 12.3431 21.6569 11 20 11ZM11 13H14H20C20.2595 13 20.496 13.0989 20.6737 13.261L15.5 15.4167L14 14.7917L10.3263 13.261C10.504 13.0989 10.7405 13 11 13ZM14.7308 17.2628L13.9999 16.9583L10 15.2917V19C10 19.5523 10.4477 20 11 20H20C20.5523 20 21 19.5523 21 19V15.2917L16.2692 17.2628C15.7769 17.468 15.2231 17.468 14.7308 17.2628Z" fill="#0D0D0F"/>
</svg>
