<svg width="24" height="24" viewBox="0 0 24 24" fill="none" xmlns="http://www.w3.org/2000/svg">
<path fill-rule="evenodd" clip-rule="evenodd" d="M11.0117 23H13.009C13.6845 21.2219 15.3783 19.8283 16.7828 18.7116C17.3849 18.2328 17.9429 17.7892 18.3615 17.37C19.6209 16.1113 20.4788 14.5066 20.8266 12.7591C21.1744 11.0117 20.9964 9.20024 20.3152 7.55422C19.6339 5.90819 18.48 4.50169 16.9997 3.51293C15.5195 2.52416 13.7794 1.99761 12 2.00001C10.2206 1.99761 8.48054 2.52416 7.00026 3.51293C5.51998 4.50169 4.36611 5.90819 3.68484 7.55422C3.00358 9.20024 2.82556 11.0117 3.17337 12.7591C3.52117 14.5066 4.37913 16.1113 5.63855 17.37C6.05778 17.7924 6.61985 18.2396 7.22693 18.7227C8.62748 19.8371 10.3275 21.3554 11.0117 23ZM10.0685 8.12971C10.6433 7.74513 11.319 7.53986 12.0104 7.53986C12.9374 7.53986 13.8264 7.9086 14.4819 8.56498C15.1374 9.22136 15.5057 10.1116 15.5057 11.0399C15.5057 11.7321 15.3007 12.4088 14.9166 12.9844C14.5325 13.5599 13.9866 14.0085 13.3479 14.2734C12.7093 14.5383 12.0065 14.6077 11.3285 14.4726C10.6504 14.3376 10.0276 14.0042 9.5388 13.5147C9.04997 13.0252 8.71708 12.4016 8.58221 11.7227C8.44734 11.0437 8.51656 10.34 8.78111 9.70046C9.04566 9.06092 9.49367 8.5143 10.0685 8.12971Z" fill="#0D0D0F"/>
</svg>
