<svg width="24" height="24" viewBox="0 0 24 24" fill="none" xmlns="http://www.w3.org/2000/svg">
<path fill-rule="evenodd" clip-rule="evenodd" d="M17.3162 11.6758V15.5256H19.3858V13.2595H21.7314C22.7187 13.2519 23.5573 12.5938 23.8735 11.6758H17.3162Z" fill="#0D0D0F"/>
<path fill-rule="evenodd" clip-rule="evenodd" d="M17.0403 8.47266C17.1608 10.0616 18.6014 11.3162 20.3608 11.3162C20.3666 11.3162 23.9595 11.3162 23.9595 11.3162C23.9861 11.1705 24 11.0201 24 10.8663C24 9.55003 22.9823 8.48239 21.7234 8.47272L17.0403 8.47266Z" fill="#0D0D0F"/>
<path fill-rule="evenodd" clip-rule="evenodd" d="M13.9776 11.2784L13.9792 11.2748C14.0004 11.235 14.0413 11.2082 14.088 11.2082C14.1554 11.2082 14.2103 11.2643 14.2121 11.3342L14.2122 15.5275H16.2818V8.47266H14.2122C13.9497 8.48177 13.6532 8.68274 13.5429 8.92943L11.8959 12.6151C11.8918 12.6302 11.8855 12.6443 11.8772 12.6569L11.8767 12.6581C11.8518 12.6955 11.81 12.72 11.7631 12.72C11.6869 12.72 11.6251 12.6555 11.6251 12.576V8.47266H9.55542V15.5275H11.6251V15.5267C11.8847 15.5126 12.1742 15.3139 12.2829 15.0707L13.9734 11.2879C13.9746 11.2847 13.9761 11.2815 13.9776 11.2784Z" fill="#0D0D0F"/>
<path fill-rule="evenodd" clip-rule="evenodd" d="M6.24878 11.399L5.03915 15.5275H3.55028L2.33992 11.3965C2.32824 11.3303 2.27269 11.2802 2.20592 11.2802C2.13067 11.2802 2.06967 11.3439 2.06967 11.4224C2.06967 11.423 2.06967 11.4236 2.06968 11.4242L2.06967 15.5275H0V8.47266H1.77646H2.30553C2.68636 8.47266 3.08543 8.78105 3.19672 9.16088L4.20397 12.5987C4.25409 12.7697 4.3354 12.7696 4.38546 12.5987L5.39271 9.16088C5.50407 8.78078 5.90303 8.47266 6.2839 8.47266L6.81281 8.47266H8.58912V15.5275H6.51945V11.4242C6.51944 11.4236 6.51945 11.423 6.51945 11.4224C6.51945 11.3439 6.45845 11.2802 6.3832 11.2802C6.31558 11.2802 6.25947 11.3316 6.24878 11.399Z" fill="#0D0D0F"/>
</svg>
