<svg width="24" height="24" viewBox="0 0 24 24" fill="none" xmlns="http://www.w3.org/2000/svg">
<path fill-rule="evenodd" clip-rule="evenodd" d="M23.7 17.7L17.7 7.4C17.4 6.9 16.9 6.7 16.4 6.7H16C15.5 6.7 15 7 14.7 7.4L13.5 9.4L10.8 4.5C10.5 3.9 9.8 3.5 9.1 3.5C8.4 3.5 7.7 3.9 7.4 4.5L0.5 17C-0.2 18.3 0.7 20 2.2 20H9.9H22.3C23.5 19.9 24.3 18.7 23.7 17.7ZM15.6 8.7C15.9 8.3 16.5 8.3 16.7 8.7L19.5 13.4C19.1 13.9 18.5 14.4 17.7 14.7C17.3 14.8 17 14.9 16.6 14.9L14.3 10.8L15.6 8.7ZM8.4 6.1C8.7 5.6 9.5 5.6 9.8 6.1L12.5 11L13.3 12.5L14.6 14.9C14.6 14.9 14.8 15.2698 14.8 15.5C14.5 15.5 14.2 15.5 13.8 15.5C11.3 15.4 10.2 14.3 9 13.1C8.1 12.3 7.2 11.4 5.7 11L8.4 6.1Z" fill="#0D0D0F"/>
</svg>
