<svg width="12" height="12" viewBox="0 0 12 12" fill="none" xmlns="http://www.w3.org/2000/svg">
<path fill-rule="evenodd" clip-rule="evenodd" d="M8.75289 3.24706C8.42347 2.91765 7.88938 2.91765 7.55996 3.24706L6.00008 4.80694L4.44025 3.24711C4.11083 2.91769 3.57674 2.91769 3.24732 3.24711C2.9179 3.57653 2.9179 4.11062 3.24732 4.44004L4.80715 5.99987L3.24706 7.55996C2.91765 7.88938 2.91765 8.42347 3.24706 8.75289C3.57648 9.08231 4.11057 9.08231 4.43999 8.75289L6.00008 7.1928L7.56021 8.75294C7.88963 9.08236 8.42373 9.08236 8.75314 8.75294C9.08256 8.42352 9.08256 7.88943 8.75314 7.56001L7.19301 5.99987L8.75289 4.43999C9.08231 4.11057 9.08231 3.57648 8.75289 3.24706Z" fill="#0D0D0F"/>
</svg>
