<svg preserveAspectRatio="none" width="100%" height="100%" overflow="visible" style="display: block;" viewBox="0 0 18 23" fill="none" xmlns="http://www.w3.org/2000/svg">
<path id="Vector" fill-rule="evenodd" clip-rule="evenodd" d="M10.56 8.17044e-07H7.44C7.0195 -0.000379183 6.60954 0.131801 6.26845 0.377741C5.92735 0.623691 5.67246 0.970891 5.53999 1.37L5.22308 2.32663C4.42003 2.46658 3.62442 2.65121 2.84 2.88C2.01823 3.12901 1.2984 3.63586 0.78696 4.32559C0.27551 5.01533 -0.000409544 5.85133 4.56265e-07 6.71V16.29C-0.000409544 17.1487 0.27551 17.9847 0.78696 18.6744C1.2984 19.3641 2.01823 19.871 2.84 20.12L3.45 20.29L4.63185 18.5439C4.76126 18.4079 4.91216 18.2931 5.0791 18.2044C5.33182 18.0702 5.61358 18 5.89971 18H12.02C12.3122 18.0009 12.5995 18.0744 12.8562 18.2141C13.1128 18.3538 13.3306 18.5551 13.49 18.8L14.49 20.3C14.72 20.25 14.94 20.19 15.16 20.12C15.9818 19.871 16.7016 19.3641 17.213 18.6744C17.7245 17.9847 18.0004 17.1487 18 16.29V6.71C18.0004 5.85133 17.7245 5.01533 17.213 4.32559C16.7016 3.63586 15.9818 3.12901 15.16 2.88C14.3756 2.65121 13.58 2.46658 12.7769 2.32663L12.46 1.37C12.3275 0.970891 12.0726 0.623691 11.7316 0.377741C11.3905 0.131801 10.9805 -0.000379183 10.56 8.17044e-07ZM16 9.5512V6.71C16.0005 6.28404 15.8649 5.86907 15.6131 5.52552C15.3613 5.18197 15.0063 4.92779 14.6 4.8C12.7807 4.26936 10.8951 4 9 4C7.1049 4 5.21933 4.26936 3.39999 4.8C2.99366 4.92779 2.63874 5.18197 2.38692 5.52552C2.1351 5.86907 1.99955 6.28404 2 6.71V9.5512C2.44225 9.8119 3.08008 10 4 10H14C14.9199 10 15.5578 9.8119 16 9.5512ZM2 13V15H6C6 14.4696 5.78929 13.9609 5.41422 13.5858C5.03914 13.2107 4.53043 13 4 13H2ZM16 15V13H14C13.4696 13 12.9609 13.2107 12.5858 13.5858C12.2107 13.9609 12 14.4696 12 15H16ZM10 19H11.31C11.5178 19.0004 11.7214 19.0586 11.898 19.1681C12.0746 19.2776 12.2172 19.4341 12.31 19.62L14 23H11L10 19ZM6.69 19H8L7 23H4L5.69 19.62C5.78277 19.4341 5.92542 19.2776 6.10202 19.1681C6.27862 19.0586 6.48221 19.0004 6.69 19Z" fill="var(--fill-0, #0D0D0D)"/>
</svg>
