<svg preserveAspectRatio="none" width="100%" height="100%" overflow="visible" style="display: block;" viewBox="0 0 21.6246 21.6246" fill="none" xmlns="http://www.w3.org/2000/svg">
<path id="Vector" fill-rule="evenodd" clip-rule="evenodd" d="M19.9999 0.194728C20.7399 -0.035272 21.3099 -0.0652721 21.4999 0.124728C21.6899 0.314728 21.6599 0.884718 21.4299 1.62472C20.9369 3.12655 20.1055 4.49506 18.9999 5.6247L16.9999 7.62469L17.9999 20.6246L16.9999 21.6246L12.6231 11.9955C11.8067 12.7794 10.9296 13.4981 9.9999 14.1446C9.4417 14.576 8.85336 14.9642 8.24026 15.3067L8.99996 20.6246L7.99996 21.6246L4.99998 16.6246L0 13.6246L0.999995 12.6246L6.32419 13.3852C6.6657 12.7726 7.05178 12.184 7.47997 11.6246C8.22995 10.5524 9.0732 9.54854 9.9999 8.62464L15.9999 2.62471C17.1296 1.51908 18.4981 0.687698 19.9999 0.194728ZM0.999995 3.62471L0 4.62471L8.38995 8.43469C9.5479 7.01762 10.8187 5.69664 12.1899 4.48471L0.999995 3.62471Z" fill="var(--fill-0, #E50F4F)"/>
</svg>
