<svg preserveAspectRatio="none" width="100%" height="100%" overflow="visible" style="display: block;" viewBox="0 0 23.1505 20.3969" fill="none" xmlns="http://www.w3.org/2000/svg">
<path id="Vector" fill-rule="evenodd" clip-rule="evenodd" d="M4.34388 2.11721C6.21098 0.83127 8.40417 0.10054 10.6694 0.00964996C12.9347 -0.08124 15.1794 0.47143 17.1435 1.60365C19.1077 2.73588 20.7109 4.40133 21.7675 6.40714C22.8241 8.41296 23.2909 10.6771 23.1139 12.9373C23.108 13.0526 23.0785 13.1819 23.0722 13.2028C22.5513 14.1499 18.3542 12.6612 13.477 9.93536L10.9179 14.3989H8.5974L11.7554 8.93716C7.00747 6.08028 3.68538 3.1812 4.19388 2.27721C4.23475 2.216 4.28543 2.16194 4.34388 2.11721ZM13.5039 7.92721C14.9432 8.77026 16.4289 9.53146 17.9539 10.2073C18.8239 6.90721 18.4839 3.69721 16.5739 2.59721C14.6639 1.49721 11.7139 2.80721 9.29388 5.20721C10.6485 6.18709 12.0538 7.09502 13.5039 7.92721ZM22.84 5.2869C22.8382 5.31353 22.8382 5.34026 22.84 5.3669C22.8418 5.34026 22.8418 5.31353 22.84 5.2869ZM5 11.3969L8 15.3969H17C17.5304 15.3969 18.0391 15.6077 18.4142 15.9827C18.7893 16.3578 19 16.8665 19 17.3969V20.3969H17L15 18.3969H6L4 20.3969H2L4 17.0269L0 11.3969H5Z" fill="var(--fill-0, #0D0D0D)"/>
</svg>
