<svg preserveAspectRatio="none" width="100%" height="100%" overflow="visible" style="display: block;" viewBox="0 0 18 20" fill="none" xmlns="http://www.w3.org/2000/svg">
<path id="Vector" fill-rule="evenodd" clip-rule="evenodd" d="M12.5627 2.31989C13.2489 2.44411 13.929 2.60428 14.6 2.8C15.0063 2.92779 15.3613 3.18197 15.6131 3.52552C15.8649 3.86907 16.0005 4.28404 16 4.71V9C16 9 16 11 13 11H5C2.01625 11 2.00009 9.0216 2 9.0002V4.71C1.99955 4.28404 2.1351 3.86907 2.38692 3.52552C2.63874 3.18197 2.99367 2.92779 3.4 2.8C4.07103 2.60428 4.75107 2.44411 5.43726 2.31989L5.54 2.63C5.67246 3.02911 5.92735 3.37631 6.26845 3.62226C6.60954 3.86821 7.0195 4.00038 7.44 4H10.56C10.9805 4.00038 11.3905 3.86821 11.7316 3.62226C12.0726 3.37631 12.3275 3.02911 12.46 2.63L12.5627 2.31989ZM9 0C6.91535 0 4.84127 0.2963 2.84 0.88C2.01823 1.12901 1.29841 1.63586 0.78696 2.32559C0.27551 3.01533 -0.000409544 3.85133 4.56265e-07 4.71V20H3.94L4.94 18H13.08L14.08 20H18V4.71C18.0004 3.85133 17.7245 3.01533 17.213 2.32559C16.7016 1.63586 15.9818 1.12901 15.16 0.88C13.1587 0.2963 11.0847 0 9 0ZM2 13V15H6C6 14.4696 5.78929 13.9609 5.41422 13.5858C5.03914 13.2107 4.53043 13 4 13H2ZM16 15V13H14C13.4696 13 12.9609 13.2107 12.5858 13.5858C12.2107 13.9609 12 14.4696 12 15H16Z" fill="var(--fill-0, #0D0D0D)"/>
</svg>
