<svg preserveAspectRatio="none" width="100%" height="100%" overflow="visible" style="display: block;" viewBox="0 0 20.0051 20" fill="none" xmlns="http://www.w3.org/2000/svg">
<path id="Vector" fill-rule="evenodd" clip-rule="evenodd" d="M2.00252 7.23198C1.47297 7.5043 1.01435 7.90225 0.668984 8.3947C0.206804 9.0536 -0.0272356 9.8457 0.00252442 10.65V20H3.00252L4.00252 18H16.0025L17.0025 20H20.0025V10.65C20.0323 9.8457 19.7982 9.0536 19.336 8.3947C18.9907 7.90225 18.532 7.5043 18.0025 7.23198V4.5C18.0025 3.10218 18.0025 2.40326 17.7741 1.85195C17.4696 1.11687 16.8856 0.53284 16.1505 0.22836C15.5992 -5.96046e-08 14.9003 0 13.5025 0H6.50252C5.1047 0 4.40579 -5.96046e-08 3.85447 0.22836C3.11939 0.53284 2.53537 1.11687 2.23089 1.85195C2.00252 2.40326 2.00252 3.10217 2.00252 4.5V7.23198ZM14.5025 6.3357C11.5235 5.83464 8.48144 5.83464 5.50252 6.3357V3.76C5.50057 3.66512 5.51822 3.57086 5.55435 3.48311C5.59048 3.39535 5.64433 3.316 5.71252 3.25C5.84816 3.1229 6.02665 3.0515 6.21252 3.05H6.36252C7.56012 3.30762 8.77824 3.45821 10.0025 3.5C11.2265 3.4615 12.4446 3.31425 13.6425 3.06H13.7925C13.9784 3.0615 14.1569 3.1329 14.2925 3.26C14.3607 3.326 14.4145 3.40535 14.4507 3.4931C14.4868 3.58086 14.5044 3.67512 14.5025 3.77V6.3357ZM2.00252 10.65V12H18.0025V10.65C18.0119 10.2924 17.9088 9.9408 17.7079 9.6448C17.507 9.3488 17.2183 9.1233 16.8825 9C12.3851 7.71982 7.61986 7.71982 3.12252 9C2.7867 9.1233 2.49801 9.3488 2.2971 9.6448C2.09618 9.9408 1.99315 10.2924 2.00252 10.65Z" fill="var(--fill-0, #0D0D0D)"/>
</svg>
