<svg preserveAspectRatio="none" width="100%" height="100%" overflow="visible" style="display: block;" viewBox="0 0 32 32" fill="none" xmlns="http://www.w3.org/2000/svg">
<g id="96a4b95a6b41e60e056a.svg" clip-path="url(#clip0_3596_181508)">
<path id="Vector" d="M16 32C24.8366 32 32 24.8366 32 16C32 7.16344 24.8366 0 16 0C7.16344 0 0 7.16344 0 16C0 24.8366 7.16344 32 16 32Z" fill="var(--fill-0, #FFCC00)"/>
<path id="Vector_2" d="M22.0486 20.9362L17.2687 13.0854L12.4365 16.0262L8.14258 8.29248" stroke="var(--stroke-0, #333333)" stroke-width="2" stroke-linecap="round" stroke-linejoin="round"/>
<path id="Vector_3" d="M22.3738 23.9187C24.0205 23.736 25.2074 22.253 25.0247 20.6062C24.842 18.9595 23.3589 17.7726 21.7122 17.9553C20.0654 18.138 18.8786 19.6211 19.0613 21.2678C19.244 22.9146 20.727 24.1014 22.3738 23.9187Z" fill="var(--fill-0, white)" stroke="var(--stroke-0, #333333)" stroke-width="2"/>
</g>
<defs>
<clipPath id="clip0_3596_181508">
<rect width="32" height="32" fill="white"/>
</clipPath>
</defs>
</svg>
