<svg width="24" height="24" viewBox="0 0 24 24" fill="none" xmlns="http://www.w3.org/2000/svg">
<path fill-rule="evenodd" clip-rule="evenodd" d="M3.32096 17.9463C5.63933 20.9649 10.0498 22.4796 13.7491 21.4181C18.845 19.9559 21.9122 14.5181 20.5997 9.27249C19.6468 5.4639 16.1584 2.31513 12.4435 1.77239C11.6682 1.65911 11.0833 2.51334 11.4488 3.22497C13.2168 6.6662 13.3367 9.62531 11.875 12.2166C10.4133 14.8079 7.84909 16.1823 4.05242 16.3383C3.26722 16.3705 2.83704 17.3162 3.32096 17.9463ZM18.7543 9.80679C19.8043 14.0033 17.3506 18.3535 13.2738 19.5233C10.9495 20.1902 7.80679 19.582 5.83706 18.1091C9.15158 17.5279 12.0016 15.8749 13.516 13.1902C15.0304 10.5054 14.9961 7.16022 13.8293 3.93317C16.0614 4.9407 18.1555 7.41362 18.7543 9.80679Z" fill="#0D0D0F"/>
</svg>
