<svg width="24" height="24" viewBox="0 0 24 24" fill="none" xmlns="http://www.w3.org/2000/svg">
<path fill-rule="evenodd" clip-rule="evenodd" d="M10.2679 5.00017C10.6252 5.61901 11.2855 6.00023 12 6.00023C13.1046 6.00023 14 5.10475 14 4.00011C14 2.89548 13.1046 2 12 2C11.2855 2 10.6252 2.38122 10.2679 3.00006C9.91068 3.61889 9.91068 4.38133 10.2679 5.00017ZM12.0622 13.1207L12.4211 16.712V16.7109L13.5667 17.2842C13.6597 17.3304 13.7699 17.3252 13.8582 17.2704C13.9464 17.2157 14.0001 17.1192 14 17.0153V12.8095C14.0003 12.6203 14.1073 12.4474 14.2767 12.3628L14.7233 12.1384C14.8927 12.0538 14.9997 11.881 15 11.6917V9.08154C15 8.43595 14.5867 7.86258 13.9744 7.65813L10.3167 6.43917C10.0116 6.33733 9.67623 6.38841 9.41533 6.57644C9.15444 6.76447 8.99989 7.06651 9 7.38811V9.7938C9.00012 9.92638 9.05287 10.0535 9.14667 10.1472L9.85333 10.8539C9.94713 10.9475 9.99988 11.0746 10 11.2072V15.1919C10.0003 15.3812 10.1073 15.554 10.2767 15.6386L11.2 16.1008L11.8644 13.1095C11.8741 13.0606 11.9183 13.0262 11.9682 13.029C12.018 13.0318 12.0581 13.0709 12.0622 13.1207ZM4 15.9999C4 15.1465 5.54667 14.2976 8 13.842V11.8008C4.40556 12.3908 2 13.8331 2 16.001C2 18.2011 4.43889 19.6357 8.13444 20.2146L8.00111 21.7691C7.98802 21.8822 8.06826 21.9847 8.18111 21.9991C8.21487 22.0027 8.24897 21.9974 8.28 21.9836L13.3778 19.9224C13.4806 19.8732 13.527 19.7521 13.4833 19.6468C13.4667 19.6046 13.4367 19.569 13.4 19.5468L8.74 16.5288C8.64333 16.471 8.52 16.5044 8.46444 16.6044C8.45022 16.6305 8.44153 16.6592 8.43889 16.6888L8.30778 18.2134C5.63111 17.7645 4 16.8555 4 15.9999ZM15.9996 13.842V11.8008C19.5962 12.3919 21.9996 13.8376 21.9996 16.0144C21.9996 18.1634 19.7084 19.5546 16.1596 20.1679C15.6232 20.2464 15.1219 19.8832 15.0295 19.349C14.937 18.8149 15.2869 18.3043 15.8184 18.1978C18.5007 17.7333 19.9996 16.8233 19.9996 16.0144C19.9996 15.151 18.4551 14.2987 15.9996 13.842Z" fill="#0D0D0F"/>
</svg>
