<svg width="12" height="12" viewBox="0 0 12 12" fill="none" xmlns="http://www.w3.org/2000/svg">
<path fill-rule="evenodd" clip-rule="evenodd" d="M12 6C12 9.31371 9.31371 12 6 12C2.68629 12 0 9.31371 0 6C0 2.68629 2.68629 0 6 0C9.31371 0 12 2.68629 12 6ZM3.56689 4.15192L4.43292 4.65192L2.43292 8.11602L1.56689 7.61602L3.56689 4.15192ZM6.43292 4.65192L5.56689 4.15192L3.56689 7.61602L4.43292 8.11602L6.43292 4.65192ZM7.56689 4.15192L8.43292 4.65192L6.43292 8.11602L5.56689 7.61602L7.56689 4.15192ZM10.4329 4.65192L9.56689 4.15192L7.56689 7.61602L8.43292 8.11602L10.4329 4.65192Z" fill="#0D0D0F"/>
</svg>
