<svg width="24" height="24" viewBox="0 0 24 24" fill="none" xmlns="http://www.w3.org/2000/svg">
<path d="M7 16.9997V13.4997L14.7195 5.78018L18.2195 9.28018L10.5 16.9997H7Z" fill="#0D0D0F"/>
<path d="M19.2802 8.21952L15.7802 4.71952L16.75 3.7497C17.062 3.4377 17.218 3.28166 17.3725 3.17623C18.0525 2.71209 18.9475 2.71209 19.6275 3.17623C19.782 3.28166 19.938 3.43767 20.25 3.74967C20.562 4.06169 20.718 4.21773 20.8235 4.3722C21.2876 5.05222 21.2876 5.94718 20.8235 6.62719C20.718 6.78165 20.562 6.93766 20.2501 7.24963L19.2802 8.21952Z" fill="#0D0D0F"/>
<path d="M11 4H8C6.13623 4 5.20435 4 4.46927 4.30448C3.48915 4.71046 2.71046 5.48915 2.30448 6.46927C2 7.20435 2 8.13623 2 10V16C2 17.8638 2 18.7957 2.30448 19.5307C2.71046 20.5108 3.48915 21.2895 4.46927 21.6955C5.20435 22 6.13623 22 8 22H14C15.8638 22 16.7956 22 17.5307 21.6955C18.5108 21.2895 19.2895 20.5108 19.6955 19.5307C20 18.7957 20 17.8638 20 16V13H18V16C18 16.9592 17.9989 17.5785 17.9666 18.0525C17.9355 18.5085 17.8822 18.6821 17.8478 18.7654C17.6448 19.2554 17.2554 19.6448 16.7654 19.8478C16.6821 19.8822 16.5085 19.9355 16.0525 19.9666C15.5785 19.9989 14.9592 20 14 20H8C7.04075 20 6.42148 19.9989 5.94752 19.9666C5.49152 19.9355 5.31786 19.8822 5.23463 19.8478C4.74458 19.6448 4.35523 19.2554 4.15224 18.7654C4.11777 18.6821 4.06453 18.5085 4.03342 18.0525C4.00108 17.5785 4 16.9592 4 16V10C4 9.04075 4.00108 8.42148 4.03342 7.94752C4.06453 7.49152 4.11777 7.31786 4.15224 7.23463C4.35523 6.74458 4.74458 6.35523 5.23463 6.15224C5.31786 6.11777 5.49152 6.06453 5.94752 6.03342C6.42148 6.00108 7.04075 6 8 6H11V4Z" fill="#0D0D0F"/>
</svg>
