<svg width="12" height="12" viewBox="0 0 12 12" fill="none" xmlns="http://www.w3.org/2000/svg">
<path d="M2.53251 9.9779L8.14242 2H9.47988L3.86997 9.9779H2.53251ZM5.65325 4.0221C5.65325 4.67772 5.48813 5.18232 5.15789 5.53591C4.83591 5.8895 4.39422 6.0663 3.83282 6.0663C3.27141 6.0663 2.82559 5.90055 2.49536 5.56906C2.16512 5.2302 2 4.72928 2 4.0663C2 3.39595 2.16512 2.88766 2.49536 2.54144C2.82559 2.18785 3.27141 2.01105 3.83282 2.01105C4.39422 2.01105 4.83591 2.18048 5.15789 2.51934C5.48813 2.85083 5.65325 3.35175 5.65325 4.0221ZM3.28793 4.0442C3.28793 4.45672 3.33333 4.7477 3.42415 4.91713C3.51496 5.07919 3.65119 5.16022 3.83282 5.16022C4.01445 5.16022 4.15067 5.07919 4.24149 4.91713C4.3323 4.7477 4.37771 4.45672 4.37771 4.0442C4.37771 3.62431 4.3323 3.33333 4.24149 3.17127C4.15893 3.00921 4.0227 2.92818 3.83282 2.92818C3.64293 2.92818 3.50258 3.00921 3.41176 3.17127C3.32921 3.33333 3.28793 3.62431 3.28793 4.0442ZM10 7.9558C10 8.61142 9.83488 9.11602 9.50464 9.46961C9.18266 9.8232 8.74097 10 8.17957 10C7.62642 10 7.1806 9.83057 6.84211 9.49171C6.51187 9.15285 6.34675 8.65562 6.34675 8C6.34675 7.32965 6.51187 6.82136 6.84211 6.47514C7.1806 6.12155 7.62642 5.94475 8.17957 5.94475C8.74097 5.94475 9.18266 6.11418 9.50464 6.45304C9.83488 6.78453 10 7.28545 10 7.9558ZM7.63468 7.9779C7.63468 8.39042 7.68008 8.67772 7.7709 8.83978C7.86997 9.00184 8.00619 9.08287 8.17957 9.08287C8.36945 9.08287 8.5098 9.00184 8.60062 8.83978C8.69143 8.67772 8.73684 8.39042 8.73684 7.9779C8.73684 7.56538 8.69143 7.27809 8.60062 7.11602C8.5098 6.94659 8.36945 6.86188 8.17957 6.86188C7.99794 6.86188 7.86171 6.94659 7.7709 7.11602C7.68008 7.27809 7.63468 7.56538 7.63468 7.9779Z" fill="#0D0D0F"/>
</svg>
