<svg width="24" height="24" viewBox="0 0 24 24" fill="none" xmlns="http://www.w3.org/2000/svg">
<path d="M19.1708 3.89803L17.3148 2.30103C16.8628 1.91303 16.1968 1.89903 15.7278 2.26703L10.9718 5.99703H7.98275C7.24875 5.99703 6.55775 6.28303 6.03775 6.80303L3.99975 8.84103L3.87875 8.96303C2.70475 10.137 2.70775 12.04 3.88375 13.211L3.99975 13.327V22H5.49975V20.5H14.5008V22H16.0008V15.058L19.4618 11.588C20.4938 10.557 21.0528 9.12803 20.9958 7.66803C20.9388 6.21503 20.2728 4.83903 19.1708 3.89803ZM4.94175 12.148C4.35275 11.562 4.35175 10.611 4.93975 10.024L6.53275 8.43003C6.75775 8.20503 7.04875 8.30603 7.17175 8.42803L9.40575 10.631C10.3928 11.604 10.4018 13.194 9.41975 14.177L8.20375 15.396L4.94175 12.148ZM18.4008 10.528L14.5018 14.439V18.999H5.49975V14.82L7.49975 16.811C7.88875 17.198 8.52175 17.201 8.91375 16.809L10.4828 15.237C12.0498 13.667 12.0398 11.121 10.4598 9.56303L8.36575 7.49703H11.4898L15.3088 4.50103C15.5828 4.80303 15.9758 4.99603 16.4158 4.99603C16.8678 4.99603 17.2678 4.79203 17.5428 4.47603L18.1938 5.03603C18.9928 5.71903 19.4548 6.67403 19.4958 7.72603C19.5378 8.78503 19.1488 9.77903 18.4008 10.528Z" fill="#0D0D0F"/>
</svg>
