<svg width="16" height="16" viewBox="0 0 16 16" fill="none" xmlns="http://www.w3.org/2000/svg">
<path fill-rule="evenodd" clip-rule="evenodd" d="M8 16C12.4183 16 16 12.4183 16 8C16 3.58172 12.4183 0 8 0C3.58172 0 0 3.58172 0 8C0 12.4183 3.58172 16 8 16ZM6.00001 3V7.38085H5V8.33321H6.00001V9.48965H5V10.442H6.00001L6.00011 13H7.279L7.2789 10.442H10V9.48965H7.2789V8.33321H8.19044C8.68929 8.33321 9.1428 8.28333 9.55095 8.18356C9.95911 8.07472 10.3083 7.91599 10.5985 7.70738C10.8979 7.48969 11.1246 7.21306 11.2788 6.87746C11.4421 6.54187 11.5237 6.14279 11.5237 5.68021C11.5237 4.78227 11.238 4.11109 10.6666 3.66665C10.1042 3.22222 9.31513 3 8.29928 3H6.00001ZM7.2789 7.38085V4.10202H8.29928C8.97954 4.10202 9.46932 4.23353 9.76864 4.49656C10.077 4.75053 10.2312 5.14508 10.2312 5.68021C10.2312 6.2607 10.0543 6.69153 9.70061 6.9727C9.35595 7.2448 8.85256 7.38085 8.19044 7.38085H7.2789Z" fill="#0D0D0F"/>
</svg>
