<svg width="24" height="24" viewBox="0 0 24 24" fill="none" xmlns="http://www.w3.org/2000/svg">
<path fill-rule="evenodd" clip-rule="evenodd" d="M5.01612 18.651C5.24 18.8081 5.64216 19.0167 6.26744 19.225C7.6418 19.6828 9.66832 20 12 20C14.3317 20 16.3582 19.6828 17.7326 19.225C18.3578 19.0167 18.76 18.8081 18.9839 18.651C18.9456 18.2578 18.8431 17.9755 18.7167 17.7624C18.5562 17.4916 18.285 17.2108 17.7963 16.9462C16.7447 16.3768 14.9066 16 12 16C9.09344 16 7.25528 16.3768 6.20374 16.9462C5.71501 17.2108 5.44382 17.4916 5.28326 17.7624C5.15685 17.9755 5.05435 18.2578 5.01612 18.651ZM3 19C3 15.5 6.00375 14 12 14C17.9963 14 21 15.5 21 19C21 20.66 16.9725 22 12 22C7.0275 22 3 20.66 3 19Z" fill="#0D0D0F"/>
<path fill-rule="evenodd" clip-rule="evenodd" d="M12 11.0044C13.1883 11.0044 15 9.71899 15 7.00439C15 5.5582 14.482 4.73993 13.933 4.25954C13.3247 3.7273 12.5529 3.50439 12 3.50439C11.4472 3.50439 10.6753 3.7273 10.067 4.25955C9.51799 4.73994 9 5.55821 9 7.00439C9 9.71897 10.8117 11.0044 12 11.0044ZM17 7.00439C17 10.6044 14.5 13.0044 12 13.0044C9.50002 13.0044 7 10.6044 7 7.00439C7 3.00439 10 1.50439 12 1.50439C14 1.50439 17 3.00439 17 7.00439Z" fill="#0D0D0F"/>
</svg>
