<svg width="24" height="24" viewBox="0 0 24 24" fill="none" xmlns="http://www.w3.org/2000/svg">
<path fill-rule="evenodd" clip-rule="evenodd" d="M19 21C19 21.5523 18.5523 22 18 22H6C5.44771 22 5 21.5523 5 21V4C5 3.44771 5.44772 3 6 3H12L12 9C12 9.55228 12.4477 10 13 10H19V21ZM14 3V8H19L14 3ZM7 14C7 13.4477 7.47533 13 8 13H16C16.5247 13 17 13.4477 17 14C17 14.5523 16.5247 15 16 15H8C7.47533 15 7 14.5523 7 14ZM8 17C7.47533 17 7 17.4477 7 18C7 18.5523 7.47533 19 8 19H16C16.5247 19 17 18.5523 17 18C17 17.4477 16.5247 17 16 17H8Z" fill="#0D0D0F"/>
</svg>
