<svg width="24" height="24" viewBox="0 0 24 24" fill="none" xmlns="http://www.w3.org/2000/svg">
<path d="M12 2C14.8 2 16.2 2.00013 17.2695 2.54492C18.2103 3.02429 18.9757 3.78966 19.4551 4.73047C19.9999 5.79998 20 7.20005 20 10V13C20 15.8 19.9999 17.2 19.4551 18.2695C18.9757 19.2103 18.2103 19.9757 17.2695 20.4551C16.2 20.9999 14.8 21 12 21C9.20005 21 7.79998 20.9999 6.73047 20.4551C5.78966 19.9757 5.02429 19.2103 4.54492 18.2695C4.00013 17.2 4 15.8 4 13V10C4 7.20005 4.00013 5.79998 4.54492 4.73047C5.02429 3.78966 5.78966 3.02429 6.73047 2.54492C7.79998 2.00013 9.20005 2 12 2ZM8 11C7.44772 11 7 11.4477 7 12C7 12.5523 7.44772 13 8 13H12C12.5523 13 13 12.5523 13 12C13 11.4477 12.5523 11 12 11H8ZM8 7C7.44772 7 7 7.44772 7 8C7 8.55228 7.44772 9 8 9H16C16.5523 9 17 8.55228 17 8C17 7.44772 16.5523 7 16 7H8Z" fill="#0D0D0F"/>
</svg>
