<svg width="24" height="24" viewBox="0 0 24 24" fill="none" xmlns="http://www.w3.org/2000/svg">
<path fill-rule="evenodd" clip-rule="evenodd" d="M17.9 13V10C17.9 8.56522 17.8984 7.61543 17.8389 6.88702C17.7813 6.18312 17.6804 5.87282 17.5839 5.68343C17.3059 5.13776 16.8622 4.69411 16.3166 4.41608C16.1272 4.31958 15.8169 4.21866 15.113 4.16115C14.3846 4.10163 13.4348 4.1 12 4.1C10.5652 4.1 9.61543 4.10163 8.88702 4.16115C8.18312 4.21866 7.87282 4.31958 7.68343 4.41608C7.13776 4.69411 6.69411 5.13776 6.41608 5.68343C6.31958 5.87282 6.21866 6.18312 6.16115 6.88702C6.10163 7.61543 6.1 8.56522 6.1 10V13C6.1 14.4348 6.10163 15.3846 6.16115 16.113C6.21866 16.8169 6.31958 17.1272 6.41608 17.3166C6.69411 17.8622 7.13776 18.3059 7.68343 18.5839C7.87282 18.6804 8.18312 18.7813 8.88702 18.8389C9.61543 18.8984 10.5652 18.9 12 18.9C13.4348 18.9 14.3846 18.8984 15.113 18.8389C15.8169 18.7813 16.1272 18.6804 16.3166 18.5839C16.8622 18.3059 17.3059 17.8622 17.5839 17.3166C17.6804 17.1272 17.7813 16.8169 17.8389 16.113C17.8984 15.3846 17.9 14.4348 17.9 13ZM4.54497 4.73005C4 5.79961 4 7.19974 4 10V13C4 15.8003 4 17.2004 4.54497 18.27C5.02433 19.2108 5.78924 19.9757 6.73005 20.455C7.79961 21 9.19974 21 12 21C14.8003 21 16.2004 21 17.27 20.455C18.2108 19.9757 18.9757 19.2108 19.455 18.27C20 17.2004 20 15.8003 20 13V10C20 7.19974 20 5.79961 19.455 4.73005C18.9757 3.78924 18.2108 3.02433 17.27 2.54497C16.2004 2 14.8003 2 12 2C9.19974 2 7.79961 2 6.73005 2.54497C5.78924 3.02433 5.02433 3.78924 4.54497 4.73005ZM8 8C8 7.44772 8.44772 7 9 7H15C15.5523 7 16 7.44772 16 8C16 8.55228 15.5523 9 15 9H9C8.44772 9 8 8.55228 8 8ZM9 11C8.44772 11 8 11.4477 8 12C8 12.5523 8.44772 13 9 13H11C11.5523 13 12 12.5523 12 12C12 11.4477 11.5523 11 11 11H9Z" fill="#0D0D0F"/>
</svg>
