<svg width="24" height="24" viewBox="0 0 24 24" fill="none" xmlns="http://www.w3.org/2000/svg">
<path d="M6.62842 5.88613L9.92254 9.03612C10.1014 9.20712 10.3423 9.29982 10.588 9.29982C10.6642 9.29982 10.7414 9.29172 10.8185 9.27282C11.1395 9.19542 11.3945 8.96232 11.4896 8.65902L12.9014 4.15904C13.0011 3.84134 12.9098 3.49844 12.6651 3.26354C12.4214 3.02954 12.0637 2.94314 11.7296 3.03764L7.02372 4.38764C6.70654 4.47943 6.46278 4.72333 6.38184 5.03023C6.30089 5.33713 6.39407 5.66203 6.62842 5.88613Z" fill="#0D0D0F"/>
<path d="M5.37326 8.54147C3.7662 9.89226 3.53704 12.2925 4.85843 13.9123C6.18875 15.5429 8.61419 15.8084 10.2763 14.5045L14.8695 10.9011C15.7385 10.2194 17.0114 10.3591 17.7074 11.2123C18.4121 12.0761 18.2879 13.372 17.4313 14.0919L16.4501 14.9167C16.0652 15.2402 16.0207 15.8083 16.3505 16.1857C16.6804 16.5631 17.2598 16.6068 17.6446 16.2833L18.6259 15.4586C20.2337 14.1071 20.4636 11.7093 19.1407 10.0878C17.8119 8.45897 15.384 8.19236 13.7229 9.49555L9.1296 13.099C8.25945 13.7816 6.98906 13.6425 6.29176 12.7878C5.58835 11.9256 5.71231 10.6272 6.56782 9.90813L7.07765 9.53398C7.4625 9.2105 7.51105 8.64237 7.18118 8.26498C6.85131 7.88759 6.2672 7.8425 5.88235 8.16598L5.37326 8.54147Z" fill="#0D0D0F"/>
<path d="M10.1176 18.3C10.1176 16.8088 11.3818 15.6 12.9412 15.6C14.5006 15.6 15.7647 16.8088 15.7647 18.3C15.7647 19.7912 14.5006 21 12.9412 21C11.3818 21 10.1176 19.7912 10.1176 18.3Z" fill="#0D0D0F"/>
</svg>
