<svg width="24" height="24" viewBox="0 0 24 24" fill="none" xmlns="http://www.w3.org/2000/svg">
<path d="M19.293 2.647C17.744 1.899 15.214 1 12 1C8.786 1 6.255 1.9 4.706 2.648C3.664 3.151 3 4.199 3 5.356V13.574C3 16.013 4.269 18.275 6.35 19.547L12 23L17.65 19.547C19.731 18.275 21 16.013 21 13.574V5.355C21 4.198 20.336 3.15 19.293 2.647ZM19.5 13.574C19.5 15.477 18.491 17.275 16.868 18.267L12 21.242L7.132 18.267C5.509 17.275 4.5 15.477 4.5 13.574V5.356C4.5 4.774 4.829 4.254 5.359 3.999C6.774 3.315 9.075 2.5 12 2.5C14.925 2.5 17.226 3.314 18.641 3.997C19.171 4.253 19.5 4.773 19.5 5.355V13.574ZM15.939 7.939L17 9L11 15L7.5 11.5L8.561 10.439L11 12.879L15.939 7.939Z" fill="#0D0D0F"/>
</svg>
