<svg width="24" height="24" viewBox="0 0 24 24" fill="none" xmlns="http://www.w3.org/2000/svg">
<path fill-rule="evenodd" clip-rule="evenodd" d="M12.2236 2.11143C12.0826 2.04147 11.9172 2.04147 11.7762 2.11143C9.46868 3.25651 6.65919 4.50134 3.81832 4.51423C3.51678 4.5156 3.2694 4.76638 3.2914 5.06712L3.87491 13.043C3.87491 14.9229 4.81793 16.6846 6.40133 17.7627L11.6982 21.7716C11.8766 21.9067 12.1232 21.9067 12.3017 21.7716L17.5985 17.7627C19.1819 16.6846 20.1249 14.9229 20.1249 13.043L20.7084 5.06712C20.7304 4.76638 20.483 4.5156 20.1815 4.51423C17.3406 4.50134 14.5311 3.25651 12.2236 2.11143Z" fill="#0D0D0F"/>
</svg>
