<svg width="24" height="24" viewBox="0 0 24 24" fill="none" xmlns="http://www.w3.org/2000/svg">
<path fill-rule="evenodd" clip-rule="evenodd" d="M15.0107 5.99721C15.0005 6.22127 15 6.51689 15 7C15 7.48311 15.0005 7.77873 15.0107 8.00279C15.0204 8.2161 15.0361 8.26629 15.0341 8.25882C15.1265 8.60391 15.3961 8.87346 15.7412 8.96593C15.7482 8.96761 15.8097 8.98074 15.9972 8.9893C16.2213 8.99952 16.5169 9 17 9C17.4831 9 17.7787 8.99952 18.0028 8.9893C18.2161 8.97957 18.2663 8.96392 18.2588 8.96593C18.6039 8.87347 18.8734 8.60398 18.9659 8.25895C18.9676 8.25193 18.9807 8.19035 18.9893 8.00279C18.9995 7.77873 19 7.48311 19 7C19 6.51689 18.9995 6.22127 18.9893 5.99721C18.9796 5.7839 18.9639 5.73371 18.9659 5.74118C18.8735 5.39609 18.6039 5.12654 18.2588 5.03407C18.2518 5.03239 18.1904 5.01926 18.0028 5.0107C17.7787 5.00048 17.4831 5 17 5C16.5169 5 16.2213 5.00048 15.9972 5.0107C15.7839 5.02043 15.7337 5.03608 15.7412 5.03407C15.3961 5.12654 15.1265 5.39609 15.0341 5.74118C15.0361 5.73371 15.0204 5.7839 15.0107 5.99721ZM17.4065 10.9996C18.0744 10.9975 18.4551 10.9839 18.7765 10.8978C19.8117 10.6204 20.6204 9.81173 20.8978 8.77646C21 8.39496 21 7.92997 21 7C21 6.07003 21 5.60504 20.8978 5.22354C20.6204 4.18827 19.8117 3.37962 18.7765 3.10222C18.395 3 17.93 3 17 3C16.07 3 15.605 3 15.2235 3.10222C14.1883 3.37962 13.3796 4.18827 13.1022 5.22354C13.0161 5.54495 13.0025 5.92561 13.0004 6.59365C13 6.71856 13 6.85351 13 7C13 7.14649 13 7.28144 13.0004 7.40635C13.0025 8.07439 13.0161 8.45505 13.1022 8.77646C13.3796 9.81173 14.1883 10.6204 15.2235 10.8978C15.5449 10.9839 15.9256 10.9975 16.5935 10.9996C16.7185 11 16.8535 11 17 11C17.1465 11 17.2815 11 17.4065 10.9996ZM10.9996 7.40647C11 7.28153 11 7.14654 11 7C11 6.85346 11 6.71847 10.9996 6.59353C10.9975 5.92556 10.9839 5.54493 10.8978 5.22354C10.6204 4.18827 9.81173 3.37962 8.77646 3.10222C8.39496 3 7.92997 3 7 3C6.07003 3 5.60504 3 5.22354 3.10222C4.18827 3.37962 3.37962 4.18827 3.10222 5.22354C3 5.60504 3 6.07003 3 7C3 7.92997 3 8.39496 3.10222 8.77646C3.37962 9.81173 4.18827 10.6204 5.22354 10.8978C5.54493 10.9839 5.92556 10.9975 6.59353 10.9996C6.71847 11 6.85346 11 7 11C7.14654 11 7.28153 11 7.40647 10.9996C8.07443 10.9975 8.45507 10.9839 8.77646 10.8978C9.81173 10.6204 10.6204 9.81173 10.8978 8.77646C10.9839 8.45507 10.9975 8.07443 10.9996 7.40647ZM7.40635 13.0004C7.28144 13 7.14649 13 7 13C6.85351 13 6.71856 13 6.59365 13.0004C5.92561 13.0025 5.54495 13.0161 5.22354 13.1022C4.18827 13.3796 3.37962 14.1883 3.10222 15.2235C3 15.605 3 16.07 3 17C3 17.93 3 18.395 3.10222 18.7765C3.37962 19.8117 4.18827 20.6204 5.22354 20.8978C5.60504 21 6.07003 21 7 21C7.92997 21 8.39496 21 8.77646 20.8978C9.81173 20.6204 10.6204 19.8117 10.8978 18.7765C10.9839 18.4551 10.9975 18.0744 10.9996 17.4065C11 17.2815 11 17.1465 11 17C11 16.8535 11 16.7185 10.9996 16.5935C10.9975 15.9256 10.9839 15.5449 10.8978 15.2235C10.6204 14.1883 9.81173 13.3796 8.77646 13.1022C8.45505 13.0161 8.07439 13.0025 7.40635 13.0004ZM13.0004 16.5937C13 16.7186 13 16.8535 13 17C13 17.1465 13 17.2814 13.0004 17.4063C13.0025 18.0744 13.0161 18.4551 13.1022 18.7765C13.3796 19.8117 14.1883 20.6204 15.2235 20.8978C15.605 21 16.07 21 17 21C17.93 21 18.395 21 18.7765 20.8978C19.8117 20.6204 20.6204 19.8117 20.8978 18.7765C21 18.395 21 17.93 21 17C21 16.07 21 15.605 20.8978 15.2235C20.6204 14.1883 19.8117 13.3796 18.7765 13.1022C18.4551 13.0161 18.0744 13.0025 17.4063 13.0004C17.2814 13 17.1465 13 17 13C16.8535 13 16.7186 13 16.5937 13.0004C15.9256 13.0025 15.5449 13.0161 15.2235 13.1022C14.1883 13.3796 13.3796 14.1883 13.1022 15.2235C13.0161 15.5449 13.0025 15.9256 13.0004 16.5937ZM15.0107 15.9972C15.0005 16.2213 15 16.5169 15 17C15 17.4831 15.0005 17.7787 15.0107 18.0028C15.0193 18.1903 15.0324 18.2518 15.0341 18.2588C15.1265 18.6039 15.3961 18.8735 15.7412 18.9659C15.7337 18.9639 15.7839 18.9796 15.9972 18.9893C16.2213 18.9995 16.5169 19 17 19C17.4831 19 17.7787 18.9995 18.0028 18.9893C18.2161 18.9796 18.2663 18.9639 18.2588 18.9659C18.6039 18.8735 18.8735 18.6039 18.9659 18.2588C18.9639 18.2663 18.9796 18.2161 18.9893 18.0028C18.9995 17.7787 19 17.4831 19 17C19 16.5169 18.9995 16.2213 18.9893 15.9972C18.9796 15.7839 18.9639 15.7337 18.9659 15.7412C18.8735 15.3961 18.6039 15.1265 18.2588 15.0341C18.2518 15.0324 18.1903 15.0193 18.0028 15.0107C17.7787 15.0005 17.4831 15 17 15C16.5169 15 16.2213 15.0005 15.9972 15.0107C15.7839 15.0204 15.7337 15.0361 15.7412 15.0341C15.3961 15.1265 15.1265 15.3961 15.0341 15.7412C15.0361 15.7337 15.0204 15.7839 15.0107 15.9972ZM5.0107 15.9972C5.00048 16.2213 5 16.5169 5 17C5 17.4831 5.00048 17.7787 5.0107 18.0028C5.02043 18.2161 5.03608 18.2663 5.03407 18.2588C5.12654 18.6039 5.39609 18.8735 5.74118 18.9659C5.73371 18.9639 5.7839 18.9796 5.99721 18.9893C6.22127 18.9995 6.51689 19 7 19C7.48311 19 7.77873 18.9995 8.00279 18.9893C8.19036 18.9807 8.25181 18.9676 8.25882 18.9659C8.60391 18.8735 8.87346 18.6039 8.96593 18.2588C8.96392 18.2663 8.97957 18.2161 8.9893 18.0028C8.99952 17.7787 9 17.4831 9 17C9 16.5169 8.99952 16.2213 8.9893 15.9972C8.98075 15.8096 8.96761 15.7482 8.96593 15.7412C8.87346 15.3961 8.60391 15.1265 8.25882 15.0341C8.26629 15.0361 8.2161 15.0204 8.00279 15.0107C7.77873 15.0005 7.48311 15 7 15C6.51689 15 6.22127 15.0005 5.99721 15.0107C5.80965 15.0193 5.7482 15.0324 5.74118 15.0341C5.39609 15.1265 5.12654 15.3961 5.03407 15.7412M5.0107 15.9972C5.01926 15.8096 5.03239 15.7482 5.03407 15.7412L5.0107 15.9972ZM5.0107 5.99721C5.00048 6.22127 5 6.51689 5 7C5 7.48311 5.00048 7.77873 5.0107 8.00279C5.02043 8.2161 5.03608 8.26629 5.03407 8.25882C5.12654 8.60391 5.39609 8.87346 5.74118 8.96593C5.73371 8.96392 5.7839 8.97957 5.99721 8.9893C6.22127 8.99952 6.51689 9 7 9C7.48311 9 7.77873 8.99952 8.00279 8.9893C8.2161 8.97957 8.26629 8.96392 8.25882 8.96593C8.60391 8.87346 8.87346 8.60391 8.96593 8.25882C8.96392 8.26629 8.97957 8.2161 8.9893 8.00279C8.99952 7.77873 9 7.48311 9 7C9 6.51689 8.99952 6.22127 8.9893 5.99721C8.98074 5.80965 8.96761 5.7482 8.96593 5.74118C8.87346 5.39609 8.60391 5.12654 8.25882 5.03407C8.26629 5.03608 8.2161 5.02043 8.00279 5.0107C7.77873 5.00048 7.48311 5 7 5C6.51689 5 6.22127 5.00048 5.99721 5.0107C5.7839 5.02043 5.73371 5.03608 5.74118 5.03407C5.39609 5.12654 5.12654 5.39609 5.03407 5.74118C5.03608 5.73371 5.02043 5.7839 5.0107 5.99721Z" fill="#0D0D0F"/>
</svg>
