<svg preserveAspectRatio="none" width="100%" height="100%" overflow="visible" style="display: block;" viewBox="0 0 19.5 16.5" fill="none" xmlns="http://www.w3.org/2000/svg">
<path id="Share_arrow_outline (Stroke)" fill-rule="evenodd" clip-rule="evenodd" d="M9.75 4.46875C5.25717 5.1819 1.72926 8.5042 0.324154 13.6882C0.285889 13.8294 0.251101 13.9869 0.219323 14.1545C0.12281 14.6635 0.0540621 15.2662 0 15.7909H1.5C1.5541 15.7358 1.60849 15.6811 1.66316 15.627C3.49075 13.8166 5.63803 12.5281 8.11364 12.1298C8.64313 12.0446 9.18764 12.0001 9.74726 12H9.75L9.75 16.5H11.25L19.5 8.25L11.25 0H9.75L9.75 4.46875ZM11.3864 2.45053L11.3864 5.86586L10.0065 6.08488C6.57135 6.63015 3.70769 8.99044 2.27416 12.9417C4.38466 11.3695 6.8776 10.3636 9.75 10.3636H11.3864L11.3864 14.0495L17.1858 8.25L11.3864 2.45053Z" fill="var(--fill-0, #9D9B98)"/>
</svg>
