<svg width="12" height="12" viewBox="0 0 12 12" fill="none" xmlns="http://www.w3.org/2000/svg">
<path d="M7.49157 6L3.1918 2.06082C3.06734 1.94277 2.99847 1.78465 3.00003 1.62052C3.00158 1.4564 3.07344 1.2994 3.20012 1.18334C3.32681 1.06728 3.49818 1.00145 3.67733 1.00002C3.85648 0.998597 4.02907 1.06169 4.15793 1.17571L8.69958 5.33586C8.79482 5.42305 8.87037 5.52659 8.92192 5.64054C8.97347 5.7545 9 5.87665 9 6C9 6.12335 8.97347 6.2455 8.92192 6.35946C8.87037 6.47341 8.79482 6.57695 8.69958 6.66415L4.15793 10.8243C4.02907 10.9383 3.85648 11.0014 3.67733 11C3.49818 10.9986 3.32681 10.9327 3.20012 10.8167C3.07344 10.7006 3.00158 10.5436 3.00003 10.3795C2.99847 10.2154 3.06734 10.0572 3.1918 9.93918L7.49157 6Z" fill="#0D0D0F"/>
</svg>
