<svg width="12" height="12" viewBox="0 0 12 12" fill="none" xmlns="http://www.w3.org/2000/svg">
<path d="M4.50842 6L8.8082 9.93918C8.93266 10.0572 9.00153 10.2154 8.99997 10.3795C8.99842 10.5436 8.92656 10.7006 8.79988 10.8167C8.67319 10.9327 8.50182 10.9986 8.32267 11C8.14352 11.0014 7.97093 10.9383 7.84207 10.8243L3.30042 6.66415C3.20518 6.57695 3.12962 6.47342 3.07808 6.35946C3.02653 6.2455 3 6.12336 3 6C3 5.87665 3.02653 5.7545 3.07808 5.64055C3.12962 5.52659 3.20518 5.42305 3.30042 5.33586L7.84206 1.17571C7.97093 1.06169 8.14352 0.998597 8.32267 1.00002C8.50182 1.00145 8.67319 1.06728 8.79987 1.18334C8.92656 1.2994 8.99841 1.4564 8.99997 1.62052C9.00153 1.78465 8.93266 1.94277 8.8082 2.06083L4.50842 6Z" fill="#0D0D0F"/>
</svg>
