<svg width="12" height="12" viewBox="0 0 12 12" fill="none" xmlns="http://www.w3.org/2000/svg">
<path d="M6 7.49157L9.93918 3.1918C10.0572 3.06734 10.2154 2.99847 10.3795 3.00003C10.5436 3.00158 10.7006 3.07344 10.8167 3.20012C10.9327 3.32681 10.9985 3.49818 11 3.67733C11.0014 3.85648 10.9383 4.02907 10.8243 4.15793L6.66414 8.69958C6.57695 8.79482 6.47341 8.87038 6.35946 8.92192C6.2455 8.97347 6.12335 9 6 9C5.87665 9 5.7545 8.97347 5.64054 8.92192C5.52659 8.87038 5.42305 8.79482 5.33585 8.69958L1.17571 4.15794C1.06169 4.02907 0.998596 3.85648 1.00002 3.67733C1.00145 3.49818 1.06728 3.32681 1.18334 3.20012C1.2994 3.07344 1.4564 3.00158 1.62052 3.00003C1.78465 2.99847 1.94277 3.06734 2.06082 3.1918L6 7.49157Z" fill="#0D0D0F"/>
</svg>
