<svg width="12" height="12" viewBox="0 0 12 12" fill="none" xmlns="http://www.w3.org/2000/svg">
<path d="M6 4.50843L2.06082 8.8082C1.94277 8.93266 1.78465 9.00153 1.62052 8.99997C1.4564 8.99842 1.2994 8.92656 1.18334 8.79988C1.06728 8.67319 1.00145 8.50182 1.00002 8.32267C0.998597 8.14352 1.06169 7.97093 1.17572 7.84207L5.33586 3.30042C5.42305 3.20518 5.52659 3.12963 5.64054 3.07808C5.7545 3.02653 5.87665 3 6 3C6.12335 3 6.2455 3.02653 6.35946 3.07808C6.47341 3.12963 6.57695 3.20518 6.66415 3.30042L10.8243 7.84207C10.9383 7.97093 11.0014 8.14352 11 8.32267C10.9986 8.50182 10.9327 8.67319 10.8167 8.79988C10.7006 8.92656 10.5436 8.99842 10.3795 8.99997C10.2154 9.00153 10.0572 8.93266 9.93918 8.8082L6 4.50843Z" fill="#0D0D0F"/>
</svg>
