<svg width="24" height="24" viewBox="0 0 24 24" fill="none" xmlns="http://www.w3.org/2000/svg">
<path d="M21.1318 11.496C21.8198 10.5 22.7628 9.13598 20.9528 6.99998L19.8118 7.97098C20.8778 9.22898 20.5308 9.73098 19.9018 10.642C19.2368 11.605 18.3248 12.913 19.7678 15L20.9978 14.156C20.1448 12.924 20.5158 12.387 21.1318 11.496ZM20.9998 18.465L17.4638 22L16.4028 20.939L19.9388 17.404L20.9998 18.465ZM13.2228 15.636L14.6368 14.222L13.3868 12.972L14.4478 11.911L16.7578 14.221L13.2228 17.756L10.9128 15.446L11.9738 14.385L13.2228 15.636ZM8.79079 13.326L1.21879 20.897L2.27979 21.958L21.2198 3.01998L20.1598 1.95898L12.3268 9.79098L5.12179 2.58498C4.73079 2.19498 4.21879 1.99998 3.70679 1.99998C3.19479 1.99998 2.68279 2.19498 2.29279 2.58598L1.58579 3.29298C0.804789 4.07398 0.804789 5.33998 1.58579 6.12098L8.79079 13.326ZM11.2658 10.852L9.85179 12.266L2.64679 5.06098C2.43779 4.85198 2.46579 4.53498 2.64679 4.35398L3.35379 3.64698C3.53479 3.46598 3.85279 3.43898 4.06079 3.64698L11.2658 10.852ZM18.8788 16.344L15.3428 19.879L14.2818 18.818L17.8178 15.283L18.8788 16.344Z" fill="#0D0D0F"/>
</svg>
