<svg width="24" height="24" viewBox="0 0 24 24" fill="none" xmlns="http://www.w3.org/2000/svg">
<path d="M21.1317 11.496C21.8197 10.5 22.7627 9.136 20.9527 7L19.8117 7.971C20.8777 9.229 20.5307 9.731 19.9017 10.642C19.2367 11.605 18.3247 12.913 19.7677 15L20.9977 14.156C20.1447 12.924 20.5157 12.387 21.1317 11.496ZM17.9977 11.156L16.7687 12C15.3257 9.913 16.2367 8.605 16.9017 7.642C17.5317 6.73 17.8787 6.229 16.8127 4.971L17.9527 4C19.7627 6.136 18.8197 7.5 18.1317 8.496C17.5167 9.387 17.1447 9.924 17.9977 11.156ZM1.58575 6.121L13.2227 17.758L16.7577 14.223L5.12075 2.586C4.73075 2.195 4.21875 2 3.70675 2C3.19475 2 2.68275 2.195 2.29275 2.586L1.58575 3.293C0.80475 4.074 0.80475 5.34 1.58575 6.121ZM2.64575 4.354L3.35275 3.647C3.53375 3.466 3.85175 3.439 4.05975 3.647L14.6357 14.223L13.2217 15.637L2.64575 5.061C2.43775 4.852 2.46475 4.535 2.64575 4.354ZM20.9997 18.465L17.4637 22L16.4027 20.939L19.9387 17.404L20.9997 18.465ZM18.8787 16.344L15.3427 19.879L14.2817 18.818L17.8177 15.283L18.8787 16.344Z" fill="#0D0D0F"/>
</svg>
