<svg width="24" height="24" viewBox="0 0 24 24" fill="none" xmlns="http://www.w3.org/2000/svg">
<path fill-rule="evenodd" clip-rule="evenodd" d="M17.1282 19.7951C17.1272 19.7967 17.1263 19.7982 17.1254 19.7997C17.0843 19.866 17.0409 19.9298 16.9957 19.9912C17.0787 19.9941 17.1623 19.9963 17.2463 19.9978M2.84416 18.0082L2.81661 18.1514L2.9445 18.2214C3.12878 18.3223 3.39584 18.442 3.76257 18.5637C4.89176 18.9381 6.56649 19.2 8.49995 19.2C10.4334 19.2 12.1081 18.9381 13.2373 18.5637C13.6041 18.442 13.8711 18.3223 14.0554 18.2214L14.1833 18.1514L14.1557 18.0082C14.1402 17.9275 14.1205 17.8502 14.0966 17.7759L14.3376 18.0187L14.3446 18.027L14.3456 18.0267L14.3595 18.0136L14.3672 18.0047L14.087 17.721L14.0861 17.7217L14.0851 17.7226L14.0828 17.7246L14.0801 17.7271C13.9301 17.3028 13.6363 16.9791 13.1844 16.7026C12.3442 16.1886 10.8575 15.8 8.49995 15.8C6.14245 15.8 4.6557 16.1886 3.81554 16.7026C3.26864 17.0372 2.95332 17.441 2.84416 18.0082ZM14.3456 18.0267L14.3376 18.0187L14.2761 17.9456L14.3531 18.0192L14.3503 18.0219L14.3479 18.0242L14.3463 18.0255L14.3456 18.0267ZM17.6999 18.5117C17.6999 18.4064 17.6975 18.302 17.6925 18.1986C18.9636 18.1793 20.0349 17.9707 20.739 17.6978C20.861 17.6505 20.9619 17.6052 21.0444 17.5639L21.1828 17.4947L21.1505 17.3434C21.0595 16.9162 20.8484 16.6586 20.577 16.4646C20.0941 16.1192 19.1538 15.8 17.4999 15.8C17.3419 15.8 17.1905 15.8029 17.0455 15.8085C16.7421 15.2497 16.3358 14.7486 15.8323 14.3141C16.3346 14.2387 16.8903 14.2 17.4999 14.2C19.3123 14.2 20.639 14.5419 21.5077 15.1631C22.3654 15.7765 22.7999 16.6787 22.7999 17.8671C22.7999 18.0872 22.686 18.3185 22.4327 18.5509C22.1792 18.7835 21.8012 19.0021 21.3172 19.1897C20.3505 19.5643 19.0011 19.8 17.4999 19.8C17.4524 19.8 17.405 19.7998 17.3578 19.7993C17.5619 19.4366 17.6999 19.007 17.6999 18.5117ZM5.70002 4.26589C6.55681 3.52085 7.62243 3.20001 8.49996 3.20001C9.3775 3.20001 10.4431 3.52085 11.2999 4.26589C12.1807 5.03184 12.8 6.21146 12.8 7.8261C12.8 10.6908 10.7691 12.8 8.49996 12.8C6.23088 12.8 4.19995 10.6908 4.19995 7.8261C4.19995 6.21146 4.81917 5.03184 5.70002 4.26589ZM6.7499 5.47326C6.2308 5.92465 5.79995 6.65804 5.79995 7.8261C5.79995 9.97359 7.27223 11.2 8.49996 11.2C9.72769 11.2 11.2 9.97359 11.2 7.8261C11.2 6.65804 10.7691 5.92465 10.25 5.47326C9.7069 5.00098 9.02255 4.80001 8.49996 4.80001C7.97738 4.80001 7.29302 5.00098 6.7499 5.47326ZM1.19995 18.5117C1.19995 17.1295 1.78972 16.0664 2.9805 15.3378C4.18531 14.6007 6.01717 14.2 8.49995 14.2C10.9827 14.2 12.8146 14.6007 14.0194 15.3378C15.2102 16.0664 15.8 17.1295 15.8 18.5117C15.8 18.7681 15.6439 19.0441 15.2873 19.324C14.933 19.6022 14.4078 19.8612 13.7409 20.0823C12.4092 20.5239 10.5564 20.8 8.49995 20.8C6.44346 20.8 4.59071 20.5239 3.25899 20.0823C2.59208 19.8612 2.06692 19.6022 1.71261 19.324C1.35601 19.0441 1.19995 18.7681 1.19995 18.5117ZM15.3335 6.06769C15.9887 5.46541 16.8099 5.20001 17.5 5.20001C18.19 5.20001 19.0112 5.46541 19.6664 6.0677C20.3425 6.68928 20.7999 7.63066 20.7999 8.88921C20.7999 11.1124 19.294 12.8 17.4999 12.8C15.7058 12.8 14.2 11.1124 14.2 8.88921C14.2 7.63065 14.6574 6.68928 15.3335 6.06769ZM16.4164 7.2456C16.0927 7.54317 15.8 8.04632 15.8 8.88921C15.8 10.4552 16.8002 11.2 17.4999 11.2C18.1997 11.2 19.2 10.4552 19.2 8.88921C19.2 8.04632 18.9072 7.54317 18.5835 7.2456C18.2388 6.92869 17.81 6.80001 17.5 6.80001C17.1899 6.80001 16.7611 6.92869 16.4164 7.2456Z" fill="#0D0D0F"/>
</svg>
