<svg preserveAspectRatio="none" width="100%" height="100%" overflow="visible" style="display: block;" viewBox="0 0 16 12" fill="none" xmlns="http://www.w3.org/2000/svg">
<path id="Rectangle 18" d="M7 10C7.55228 10 8 10.4477 8 11C8 11.5523 7.55228 12 7 12H1C0.447715 12 0 11.5523 0 11C0 10.4477 0.447715 10 1 10H7ZM11 5C11.5523 5 12 5.44772 12 6C12 6.55228 11.5523 7 11 7H1C0.447715 7 0 6.55228 0 6C0 5.44772 0.447715 5 1 5H11ZM15 0C15.5523 0 16 0.447715 16 1C16 1.55228 15.5523 2 15 2H1C0.447715 2 0 1.55228 0 1C0 0.447715 0.447715 0 1 0H15Z" fill="var(--fill-0, #0D0D0D)"/>
</svg>
