<svg width="12" height="12" viewBox="0 0 12 12" fill="none" xmlns="http://www.w3.org/2000/svg">
<path fill-rule="evenodd" clip-rule="evenodd" d="M6 12C9.31371 12 12 9.31371 12 6C12 2.68629 9.31371 0 6 0C2.68629 0 0 2.68629 0 6C0 9.31371 2.68629 12 6 12ZM6.84558 9.60608H8.0991V2.40608H6.27579C4.44212 2.40608 3.47867 3.34881 3.47867 4.73702C3.47867 5.8455 4.00702 6.49817 4.94975 7.17155L3.31291 9.60608H4.67004L6.49335 6.88148L5.8614 6.45673C5.09479 5.93874 4.72184 5.53471 4.72184 4.6645C4.72184 3.89788 5.26054 3.37989 6.28615 3.37989H6.84558V9.60608Z" fill="#0D0D0F"/>
</svg>
