<svg width="24" height="24" viewBox="0 0 24 24" fill="none" xmlns="http://www.w3.org/2000/svg">
<path fill-rule="evenodd" clip-rule="evenodd" d="M11.9867 1.91019L9.03596 9.11036L1.84712 9.73102C1.84612 9.735 1.84559 9.74049 1.8463 9.74664C1.84704 9.75296 1.84969 9.75888 1.84969 9.75888L7.38762 14.2678L5.50275 22.1208L11.9747 17.9825L18.4706 22.1255L16.5889 14.2662L22.1482 9.76016L22.1491 9.75869C22.1504 9.75604 22.152 9.7516 22.1525 9.74556C22.153 9.73897 22.1524 9.7345 22.1516 9.7315L14.9148 9.11053L11.9867 1.91019ZM10.3067 1.14134C10.6888 0.208967 11.7582 -0.266209 12.7108 0.154281C13.1507 0.348452 13.4906 0.707769 13.6688 1.14601L16.199 7.36787L22.331 7.89404C23.3619 7.98251 24.0714 8.90521 23.9928 9.89216C23.9526 10.3967 23.7105 10.8702 23.3118 11.1934L18.6551 14.9677L20.2683 21.7058C20.4986 22.6675 19.9419 23.6866 18.9465 23.9432C18.4625 24.0681 17.9522 23.9845 17.5332 23.7173L11.976 20.1729L6.44183 23.7116C5.56737 24.2707 4.43439 23.9741 3.91583 23.1006C3.66544 22.6788 3.59127 22.175 3.70522 21.7002L5.32149 14.9662L0.683804 11.1904C-0.0971603 10.5546 -0.223144 9.40539 0.378006 8.61008C0.685582 8.20316 1.15062 7.93822 1.66678 7.89366L7.75491 7.36803L10.3067 1.14134Z" fill="#0D0D0F"/>
</svg>
