<svg width="24" height="24" viewBox="0 0 24 24" fill="none" xmlns="http://www.w3.org/2000/svg">
<path fill-rule="evenodd" clip-rule="evenodd" d="M11.974 19.6673L5.44037 23.845C4.98312 24.1374 4.38406 23.9897 4.10235 23.5152C3.96513 23.284 3.92343 23.0053 3.98666 22.7418L5.88453 14.8346L0.372284 10.3468C-0.0502815 10.0028 -0.124114 9.36836 0.207373 8.9298C0.374312 8.70895 0.622336 8.57022 0.891877 8.54695L8.09558 7.92501L11.0915 0.614501C11.3017 0.101574 11.8728 -0.137385 12.367 0.0807721C12.5993 0.18333 12.7841 0.375653 12.8823 0.61707L15.8542 7.92501L23.1076 8.54741C23.6429 8.59334 24.0409 9.08089 23.9966 9.63639C23.9743 9.91707 23.8399 10.1753 23.6261 10.3486L18.0915 14.8346L19.986 22.7474C20.1155 23.2883 19.7979 23.8358 19.2767 23.9702C19.0234 24.0355 18.7554 23.9924 18.5331 23.8506L11.974 19.6673Z" fill="#0D0D0F"/>
</svg>
