<svg width="24" height="24" viewBox="0 0 24 24" fill="none" xmlns="http://www.w3.org/2000/svg">
<path fill-rule="evenodd" clip-rule="evenodd" d="M19.714 3.811C19.085 3.574 18.115 3.261 16.872 3H17C17 1.895 16.105 1 15 1H9C7.895 1 7 1.895 7 3H7.128C5.886 3.261 4.916 3.574 4.288 3.811C3.518 4.1 3 4.851 3 5.68V14.151C3 15.274 3.242 16.262 3.718 17.087C4.512 18.464 5.83 19.421 7.394 19.808L5 23H8L9.687 20H14.312L16 23H19L16.605 19.807C18.171 19.42 19.489 18.462 20.283 17.083C20.759 16.257 21 15.271 21 14.15V5.68C21 4.851 20.482 4.1 19.714 3.811ZM7.998 16H5V14H6.998C7.548 14 7.998 14.45 7.998 15V16ZM11 12C8.103 11.914 6.208 11.457 5 11.108V5.68C6.057 5.283 8.158 4.653 11 4.527V12ZM19 16H16.011V15C16.011 14.448 16.459 14 17.011 14H19V16ZM19 11.108C17.792 11.457 15.898 11.914 13 12V4.527C15.849 4.654 17.954 5.286 19 5.68V11.108Z" fill="#0D0D0F"/>
</svg>
