<svg width="24" height="24" viewBox="0 0 24 24" fill="none" xmlns="http://www.w3.org/2000/svg">
<path d="M19.091 2.998C18.489 2.853 17.771 2.697 17 2.55V2.5C17 1.672 16.328 1 15.5 1H8.5C7.672 1 7 1.672 7 2.5V2.55C6.229 2.697 5.511 2.853 4.909 2.998C3.786 3.266 3 4.273 3 5.427V14.15C3 15.273 3.242 16.26 3.718 17.087C4.512 18.464 5.83 19.42 7.394 19.807L5 23H7.25L8.939 19.997C8.955 19.997 8.971 20 8.987 20H15.013C15.029 20 15.045 19.997 15.061 19.997L16.75 23H19L16.605 19.807C18.171 19.42 19.49 18.462 20.284 17.083C20.759 16.257 21 15.27 21 14.15V5.427C21 4.273 20.214 3.266 19.091 2.998ZM19.5 5.427V9.471C18.285 9.843 16.202 10.408 12.75 10.484V3.52C14.835 3.614 17.116 4.067 18.742 4.456C19.188 4.563 19.5 4.962 19.5 5.427ZM5.258 4.456C6.884 4.067 9.166 3.614 11.25 3.52V10.484C7.799 10.408 5.716 9.843 4.5 9.471V5.427C4.5 4.962 4.812 4.563 5.258 4.456ZM18.984 16.334C18.203 17.69 16.718 18.5 15.013 18.5H8.987C7.283 18.5 5.799 17.692 5.018 16.337C4.674 15.742 4.5 15.006 4.5 14.15V11.034C5.905 11.44 8.295 12 12 12C15.706 12 18.096 11.44 19.5 11.034V14.15C19.5 15.004 19.326 15.739 18.984 16.334ZM8.998 15V16H6V14H7.998C8.551 14 8.998 14.448 8.998 15ZM16.002 14H18V16H15.002V15C15.002 14.448 15.449 14 16.002 14Z" fill="#0D0D0F"/>
</svg>
