<svg width="24" height="24" viewBox="0 0 24 24" fill="none" xmlns="http://www.w3.org/2000/svg">
<path fill-rule="evenodd" clip-rule="evenodd" d="M16.275 3.67805C16.1914 3.61537 16.0921 3.57721 15.988 3.56782C15.884 3.55844 15.7794 3.57822 15.6859 3.62494C15.5925 3.67165 15.5139 3.74347 15.459 3.83233C15.4041 3.92119 15.375 4.02359 15.375 4.12805V6.37805L4.125 6.37805C3.82663 6.37805 3.54048 6.49658 3.3295 6.70756C3.11853 6.91854 3 7.20468 3 7.50305C3 7.80142 3.11853 8.08757 3.3295 8.29855C3.54048 8.50953 3.82663 8.62805 4.125 8.62805L15.375 8.62805L15.375 10.8781C15.375 10.9825 15.4041 11.0849 15.459 11.1738C15.5139 11.2626 15.5925 11.3344 15.6859 11.3812C15.7794 11.4279 15.884 11.4477 15.988 11.4383C16.0921 11.4289 16.1914 11.3907 16.275 11.3281L20.7716 7.95305C20.8415 7.90066 20.8982 7.83272 20.9372 7.75461C20.9763 7.6765 20.9966 7.59038 20.9966 7.50305C20.9966 7.41573 20.9763 7.3296 20.9372 7.25149C20.8982 7.17339 20.8415 7.10545 20.7716 7.05305L16.275 3.67805ZM8.625 17.6281V19.8781C8.625 19.9825 8.59591 20.0849 8.54099 20.1738C8.48607 20.2626 8.40749 20.3344 8.31406 20.3812C8.22062 20.4279 8.11602 20.4477 8.01198 20.4383C7.90794 20.4289 7.80857 20.3907 7.725 20.3281L3.22837 16.9531C3.15851 16.9007 3.10181 16.8327 3.06276 16.7546C3.02371 16.6765 3.00338 16.5904 3.00338 16.5031C3.00338 16.4157 3.02371 16.3296 3.06276 16.2515C3.10181 16.1734 3.15851 16.1054 3.22837 16.0531L7.725 12.6781C7.80857 12.6154 7.90794 12.5772 8.01198 12.5678C8.11602 12.5584 8.22062 12.5782 8.31406 12.6249C8.40749 12.6717 8.48607 12.7435 8.54099 12.8323C8.59591 12.9212 8.625 13.0236 8.625 13.1281V15.3781L19.875 15.3781C20.1734 15.3781 20.4595 15.4966 20.6705 15.7076C20.8815 15.9185 21 16.2047 21 16.5031C21 16.8014 20.8815 17.0876 20.6705 17.2985C20.4595 17.5095 20.1734 17.6281 19.875 17.6281L8.625 17.6281Z" fill="#0D0D0F"/>
</svg>
