<svg width="24" height="24" viewBox="0 0 24 24" fill="none" xmlns="http://www.w3.org/2000/svg">
<path d="M17.868 10.882C18.632 12.389 18.57 14.907 17.505 16.351L12.249 11.5L4.49105 14.517C3.35105 11.666 4.07305 8.73899 7.97205 6.99999L4.98105 2.92599C7.69805 0.819988 11.996 2.55199 13.693 5.63899C16.831 5.12299 19.767 5.69199 22 9.92599L17.868 10.882ZM12.677 13.927L12.582 13.84C12.194 13.484 11.638 13.378 11.146 13.568L10.513 13.812C9.82105 14.079 9.34605 14.708 9.24505 15.443C8.93905 17.681 8.93405 19.991 9.00905 22H15.009C13.626 19.2 13.17 16.824 13.125 14.945C13.115 14.558 12.962 14.189 12.677 13.927Z" fill="#0D0D0F"/>
</svg>
