<svg width="24" height="24" viewBox="0 0 24 24" fill="none" xmlns="http://www.w3.org/2000/svg">
<path d="M22 9.653L21.396 8.545C19.881 5.786 17.871 4.399 15.393 4.399C14.708 4.399 13.987 4.505 13.231 4.718C11.773 2.923 9.89297 2 7.85897 2C6.49397 2 5.05797 2.416 3.63497 3.264L2.65597 3.847L5.47097 7.251C1.57897 9.226 1.72897 12.296 2.30797 14.048L2.64797 15.035L7.61697 12.994C6.79497 15.754 6.43297 18.692 6.99997 22H15C13.763 19.288 13.571 16.535 13.76 14.241L16.991 17.024L17.722 16.328C19.244 14.727 19.615 12.597 18.792 10.551L22 9.653ZM12.848 20.5H8.30997C7.99997 17.388 8.57497 14.66 9.42397 12.252L10.796 11.688L12.381 13.053C12.092 15.181 12.061 17.789 12.848 20.5ZM17.4 11.11C17.961 12.506 17.785 13.863 16.911 14.976L11.079 9.951L3.58497 13.029C3.29297 11.626 3.61397 9.876 6.14997 8.589L7.82197 7.741L4.93997 4.256C5.92997 3.754 6.90997 3.5 7.85897 3.5C9.46197 3.5 10.916 4.248 12.066 5.663L12.687 6.428L13.636 6.161C14.256 5.987 14.847 5.898 15.393 5.898C17.144 5.898 18.579 6.824 19.762 8.721L16.775 9.557L17.4 11.11Z" fill="#0D0D0F"/>
</svg>
