<svg width="24" height="24" viewBox="0 0 24 24" fill="none" xmlns="http://www.w3.org/2000/svg">
<path fill-rule="evenodd" clip-rule="evenodd" d="M20.3334 21.3602C20.3334 21.7135 20.0201 22 19.6668 22H17.4461C17.1674 22 16.9072 21.8607 16.7527 21.6289L15.3334 19.5H8.6667L7.24742 21.6289C7.09286 21.8607 6.83267 22 6.55404 22H4.33335C3.97999 22 3.66668 21.7135 3.66668 21.3602V10.3318L2.1223 9.622C2.044 9.54384 2 9.43775 2 9.32711V6.58324C2 5.33323 3.20644 5.33323 3.66668 5.33323V4.98479C3.66668 3.90152 4.25397 2.9415 5.33335 2.60697C6.68005 2.18959 8.40582 1.99988 12.0001 1.99988C15.5943 1.99988 17.3201 2.18959 18.6668 2.60697C19.7461 2.9415 20.3334 3.90152 20.3334 4.98479V5.33323C20.7937 5.33323 22.0001 5.33323 22.0001 6.58324V9.32996C22.0001 9.43891 21.9574 9.54352 21.8812 9.62139L20.3334 10.3514V21.3602ZM12.0001 4.49989C8.68689 4.49989 6.60864 4.73165 5.7653 5.19518C5.49889 5.34161 5.33336 5.62148 5.33336 5.92547L5.33335 11.3749C5.33335 11.7201 5.58208 11.9999 5.88891 11.9999H18.1112C18.418 11.9999 18.6668 11.7201 18.6668 11.3749V5.75198C18.6647 4.91656 16.4424 4.49989 12.0001 4.49989ZM17.0001 17.8333C17.9206 17.8333 18.6668 17.0871 18.6668 16.1666C18.6668 15.2461 17.9206 14.4999 17.0001 14.4999C16.0796 14.4999 15.3334 15.2461 15.3334 16.1666C15.3334 17.0871 16.0796 17.8333 17.0001 17.8333ZM7.00003 17.8333C7.92051 17.8333 8.6667 17.0871 8.6667 16.1666C8.6667 15.2461 7.92051 14.4999 7.00003 14.4999C6.07955 14.4999 5.33335 15.2461 5.33335 16.1666C5.33335 17.0871 6.07955 17.8333 7.00003 17.8333Z" fill="#0D0D0F"/>
</svg>
