<svg width="24" height="24" viewBox="0 0 24 24" fill="none" xmlns="http://www.w3.org/2000/svg">
<path d="M8.5 10H10.5V17H8.5V10Z" fill="#0D0D0F"/>
<path d="M13.5 17V10H15.5V17H13.5Z" fill="#0D0D0F"/>
<path fill-rule="evenodd" clip-rule="evenodd" d="M7.5 4V5H3V7H4V18.2222C4 20.3086 5.68552 22 7.76471 22H16.2353C18.3145 22 20 20.3086 20 18.2222V7H21V5H16.5V4C16.5 2.89543 15.6046 2 14.5 2H9.5C8.39543 2 7.5 2.89543 7.5 4ZM14.9 5V4C14.9 3.77909 14.7209 3.6 14.5 3.6L9.5 3.6C9.27909 3.6 9.1 3.77909 9.1 4L9.1 5H14.9ZM5.88235 18.2222V7H18.1176V18.2222C18.1176 19.2654 17.2749 20.1111 16.2353 20.1111H7.76471C6.72511 20.1111 5.88235 19.2654 5.88235 18.2222Z" fill="#0D0D0F"/>
</svg>
