<svg width="24" height="24" viewBox="0 0 24 24" fill="none" xmlns="http://www.w3.org/2000/svg">
<path fill-rule="evenodd" clip-rule="evenodd" d="M13.8 8.447C13.8 9.13626 13.5252 9.76629 13.1206 10.2157C12.7008 10.6819 12.2627 10.8334 12 10.8334C11.7373 10.8334 11.2992 10.6819 10.8794 10.2157C10.4748 9.76628 10.2 9.13626 10.2 8.447C10.2 7.60578 10.5052 7.27953 10.7525 7.1047C11.0912 6.86522 11.5849 6.75001 12 6.75001C12.4151 6.75001 12.9089 6.86522 13.2475 7.1047C13.4948 7.27952 13.8 7.60577 13.8 8.447ZM12 12.5834C13.8 12.5834 15.6 10.722 15.6 8.447C15.6 5.6894 13.35 5 12 5C10.65 5 8.4 5.6894 8.4 8.447C8.4 10.722 10.2 12.5834 12 12.5834ZM8.37987 16.7004C8.15095 16.6183 7.97474 16.5395 7.84454 16.4719C7.906 16.2089 8.02786 16.0955 8.18977 15.9919C8.62911 15.7107 9.67693 15.3833 12 15.3833C14.3231 15.3833 15.3709 15.7107 15.8102 15.9919C15.9721 16.0955 16.094 16.2089 16.1555 16.4719C16.0253 16.5395 15.849 16.6183 15.6201 16.7004C14.7613 17.0085 13.4761 17.25 12 17.25C10.5239 17.25 9.23875 17.0085 8.37987 16.7004ZM12 13.6333C7.2 13.6333 6 14.9166 6 16.9583C6 17.9267 8.685 19 12 19C15.315 19 18 17.9267 18 16.9583C18 14.9166 16.8 13.6333 12 13.6333Z" fill="#0D0D0F"/>
</svg>
