<svg width="24" height="24" viewBox="0 0 24 24" fill="none" xmlns="http://www.w3.org/2000/svg">
  <path d="M19 7H5C3.89543 7 3 7.89543 3 9V18C3 19.1046 3.89543 20 5 20H19C20.1046 20 21 19.1046 21 18V9C21 7.89543 20.1046 7 19 7Z" stroke="currentColor" stroke-width="1.5" stroke-linecap="round" stroke-linejoin="round"/>
  <path d="M16 14C16.5523 14 17 13.5523 17 13C17 12.4477 16.5523 12 16 12C15.4477 12 15 12.4477 15 13C15 13.5523 15.4477 14 16 14Z" fill="currentColor"/>
  <path d="M3 9V6C3 4.89543 3.89543 4 5 4H17C18.1046 4 19 4.89543 19 6V7" stroke="currentColor" stroke-width="1.5" stroke-linecap="round" stroke-linejoin="round"/>
</svg>
