<svg width="24" height="24" viewBox="0 0 24 24" fill="none" xmlns="http://www.w3.org/2000/svg">
<path fill-rule="evenodd" clip-rule="evenodd" d="M0.306668 6.67063C0 7.81513 0 9.21008 0 12C0 14.7899 0 16.1849 0.306668 17.3294C1.13887 20.4352 3.5648 22.8611 6.67063 23.6933C7.81513 24 9.21008 24 12 24C14.7899 24 16.1849 24 17.3294 23.6933C20.4352 22.8611 22.8611 20.4352 23.6933 17.3294C24 16.1849 24 14.7899 24 12C24 9.21008 24 7.81513 23.6933 6.67063C22.8611 3.5648 20.4352 1.13887 17.3294 0.306668C16.1849 0 14.7899 0 12 0C9.21008 0 7.81513 0 6.67063 0.306668C3.5648 1.13887 1.13887 3.5648 0.306668 6.67063ZM10.1997 17.6892C10.1997 16.6488 10.9905 15.9 11.9889 15.9C13.0089 15.9 13.7997 16.6488 13.7997 17.6892C13.7997 18.7296 13.0089 19.5 11.9889 19.5C10.9905 19.5 10.1997 18.7296 10.1997 17.6892ZM11.0061 4.5C10.9251 4.50008 10.845 4.51655 10.7706 4.54842C10.6962 4.58028 10.629 4.62687 10.573 4.6854C10.5171 4.74392 10.4735 4.81317 10.4451 4.88896C10.4166 4.96475 10.4037 5.04552 10.4073 5.1264L10.7745 13.5264C10.7813 13.6809 10.8475 13.8268 10.9593 13.9337C11.0711 14.0406 11.2198 14.1002 11.3745 14.1H12.6261C12.7808 14.1002 12.9295 14.0406 13.0413 13.9337C13.1531 13.8268 13.2193 13.6809 13.2261 13.5264L13.5921 5.1264C13.5957 5.04541 13.5828 4.96455 13.5542 4.88868C13.5257 4.81281 13.4821 4.74351 13.426 4.68497C13.3699 4.62642 13.3026 4.57985 13.228 4.54806C13.1534 4.51627 13.0732 4.49992 12.9921 4.5H11.0061Z" fill="#0D0D0F"/>
</svg>
