<svg width="24" height="24" viewBox="0 0 24 24" fill="none" xmlns="http://www.w3.org/2000/svg">
<path fill-rule="evenodd" clip-rule="evenodd" d="M10.7797 2.25936C9.88922 2.65583 9.20714 3.83722 7.84299 6.2L3.16645 14.3C1.8023 16.6628 1.12023 17.8442 1.22212 18.8136C1.31099 19.6592 1.75448 20.4273 2.44233 20.9271C3.23092 21.5 4.59507 21.5 7.32337 21.5H16.6764C19.4048 21.5 20.7689 21.5 21.5575 20.9271C22.2453 20.4273 22.6888 19.6592 22.7777 18.8136C22.8796 17.8442 22.1975 16.6628 20.8334 14.3L16.1568 6.2C14.7927 3.83722 14.1106 2.65583 13.2201 2.25936C12.4434 1.91355 11.5564 1.91355 10.7797 2.25936ZM12.7628 14.8639L13.0007 7.96191H11.0127L11.2367 14.8639H12.7628ZM11.5028 17.9999C11.6614 18.0652 11.8294 18.0979 12.0068 18.0979C12.1841 18.0979 12.3474 18.0652 12.4967 17.9999C12.6554 17.9346 12.7908 17.8459 12.9028 17.7339C13.0241 17.6126 13.1174 17.4772 13.1828 17.3279C13.2481 17.1786 13.2808 17.0199 13.2808 16.8519C13.2808 16.6839 13.2481 16.5252 13.1828 16.3759C13.1174 16.2266 13.0241 16.0959 12.9028 15.9839C12.7908 15.8719 12.6554 15.7832 12.4967 15.7179C12.3474 15.6526 12.1841 15.6199 12.0068 15.6199C11.8294 15.6199 11.6614 15.6526 11.5028 15.7179C11.3441 15.7832 11.2041 15.8719 11.0828 15.9839C10.9707 16.0959 10.8821 16.2266 10.8167 16.3759C10.7514 16.5252 10.7188 16.6839 10.7188 16.8519C10.7188 17.0199 10.7514 17.1786 10.8167 17.3279C10.8821 17.4772 10.9707 17.6126 11.0828 17.7339C11.2041 17.8459 11.3441 17.9346 11.5028 17.9999Z" fill="#0D0D0F"/>
</svg>
