<svg width="24" height="24" viewBox="0 0 24 24" fill="none" xmlns="http://www.w3.org/2000/svg">
<path d="M15.7784 15.1963C15.9635 15.1223 16.112 14.9779 16.1902 14.7956C16.2289 14.7051 16.2495 14.6077 16.2507 14.5092C16.2518 14.4107 16.2336 14.313 16.1969 14.2215C16.1603 14.1301 16.106 14.0467 16.0372 13.9763C15.9683 13.9058 15.886 13.8495 15.7955 13.8108L12.75 12.5048V7C12.75 6.80109 12.671 6.61032 12.5303 6.46967C12.3897 6.32902 12.1989 6.25 12 6.25C11.8011 6.25 11.6103 6.32902 11.4697 6.46967C11.329 6.61032 11.25 6.80109 11.25 7V12.67C11.25 13.17 11.5486 13.6226 12.0085 13.8192L15.2045 15.1892C15.3873 15.2676 15.5937 15.2701 15.7784 15.1963Z" fill="#0D0D0F"/>
<path fill-rule="evenodd" clip-rule="evenodd" d="M21.75 12C21.75 17.3849 17.3849 21.75 12 21.75C6.61507 21.75 2.25 17.3849 2.25 12C2.25 6.61507 6.61507 2.25 12 2.25C17.3849 2.25 21.75 6.61507 21.75 12ZM12 20.25C14.188 20.25 16.2865 19.3808 17.8336 17.8336C19.3808 16.2865 20.25 14.188 20.25 12C20.25 9.81196 19.3808 7.71354 17.8336 6.16637C16.2865 4.61919 14.188 3.75 12 3.75C9.81196 3.75 7.71354 4.61919 6.16637 6.16637C4.61919 7.71354 3.75 9.81196 3.75 12C3.75 14.188 4.61919 16.2865 6.16637 17.8336C7.71354 19.3808 9.81196 20.25 12 20.25Z" fill="#0D0D0F"/>
</svg>
