<svg width="24" height="24" viewBox="0 0 24 24" fill="none" xmlns="http://www.w3.org/2000/svg">
<path fill-rule="evenodd" clip-rule="evenodd" d="M12 2C6.47715 2 2 6.47715 2 12C2 17.5228 6.47715 22 12 22C17.5228 22 22 17.5228 22 12C22 6.47715 17.5228 2 12 2ZM16.42 14.894C16.4717 14.7733 16.4991 14.6435 16.5006 14.5122C16.5022 14.3808 16.4778 14.2505 16.429 14.1285C16.3801 14.0066 16.3078 13.8955 16.216 13.8015C16.1242 13.7076 16.0148 13.6327 15.894 13.581L13 12.34V7C13 6.73478 12.8946 6.48043 12.7071 6.29289C12.5196 6.10536 12.2652 6 12 6C11.7348 6 11.4804 6.10536 11.2929 6.29289C11.1054 6.48043 11 6.73478 11 7V12.67C11 13.27 11.358 13.813 11.91 14.049L15.106 15.419C15.3497 15.5235 15.625 15.5268 15.8712 15.4284C16.1174 15.3299 16.3155 15.1377 16.42 14.894Z" fill="#0D0D0F"/>
</svg>
