<svg width="16" height="16" viewBox="0 0 16 16" fill="none" xmlns="http://www.w3.org/2000/svg">
<path d="M10.521 6.17429L10.4448 6.07267C14.3318 2.99863 13.8999 2.54134 13.8999 2.54134C13.5188 2.13486 13.1124 1.77918 12.6805 1.47432C12.0708 1.04243 11.4102 0.686758 10.6989 0.458111C7.75186 -0.608908 4.24594 0.229464 2.13731 2.54134C-0.682669 5.56456 -0.733479 10.3661 2.11191 13.4402C5.10972 16.6666 10.2162 16.8699 13.4426 13.8975L13.4934 13.8467L13.5443 13.7959L13.5697 13.7704C13.6205 13.7196 13.6713 13.6688 13.6967 13.618C14.6113 12.4494 13.2394 9.27372 10.521 6.17429ZM13.0107 13.0337C12.8075 13.2369 11.9437 13.2623 10.5464 12.5256C9.25077 11.8397 7.80267 10.671 6.43079 9.24832C6.20215 9.42616 10.0129 6.42834 9.83509 6.58077C11.0291 7.95265 12.0453 9.45156 12.5789 10.6964C13.214 12.1445 13.1886 12.8559 13.0107 13.0337Z" fill="#0D0D0F"/>
</svg>
