<svg preserveAspectRatio="none" width="100%" height="100%" overflow="visible" style="display: block;" viewBox="0 0 33.3333 25.8333" fill="none" xmlns="http://www.w3.org/2000/svg">
<g id="Group">
<path id="Vector" opacity="0.32" d="M28.3333 17.5C31.095 17.5 33.3333 15.2617 33.3333 12.5C33.3333 9.73833 31.095 7.5 28.3333 7.5H28.2817C28.315 7.22667 28.3333 6.94833 28.3333 6.66667C28.3333 2.985 25.3483 0 21.6667 0C18.75 0 16.27 1.87333 15.3667 4.48167C14.725 4.27667 14.0433 4.16667 13.3333 4.16667C9.65167 4.16667 6.66667 7.15167 6.66667 10.8333C6.66667 14.515 9.65167 17.5 13.3333 17.5C13.9083 17.5 14.4667 17.4267 15 17.29V17.5H28.3333Z" fill="var(--fill-0, #73A5E6)"/>
<path id="Vector_2" d="M6.66667 25.8333C2.985 25.8333 7.94729e-08 22.8483 7.94729e-08 19.1667C7.94729e-08 15.485 2.985 12.5 6.66667 12.5C7.36167 12.5 8.03 12.6067 8.66 12.8033C9.59833 9.73333 12.455 7.5 15.8333 7.5C19.975 7.5 23.3333 10.8583 23.3333 15C23.3333 15.3917 23.3033 15.775 23.245 16.15C23.7917 15.945 24.3817 15.8333 25 15.8333C27.7617 15.8333 30 18.0717 30 20.8333C30 23.595 27.7617 25.8333 25 25.8333H6.66667Z" fill="url(#paint0_linear_3596_181528)"/>
<path id="Vector_3" d="M8.33333 15C8.33333 19.1417 11.6917 22.5 15.8333 22.5C19.585 22.5 22.6917 19.7467 23.245 16.15C23.7917 15.945 24.3817 15.8333 25 15.8333C27.7617 15.8333 30 18.0717 30 20.8333C30 23.595 27.7617 25.8333 25 25.8333H6.66667C2.985 25.8333 7.94729e-08 22.8483 7.94729e-08 19.1667C7.94729e-08 15.485 2.985 12.5 6.66667 12.5C7.36167 12.5 8.03 12.6067 8.66 12.8033C8.44667 13.4983 8.33333 14.235 8.33333 15Z" fill="url(#paint1_radial_3596_181528)"/>
</g>
<defs>
<linearGradient id="paint0_linear_3596_181528" x1="1500" y1="7.5" x2="1500" y2="1840.83" gradientUnits="userSpaceOnUse">
<stop stop-color="#9FC7FF"/>
<stop offset="1" stop-color="#9BC1F5"/>
</linearGradient>
<radialGradient id="paint1_radial_3596_181528" cx="0" cy="0" r="1" gradientUnits="userSpaceOnUse" gradientTransform="translate(107.316 -1675.62) rotate(-90) scale(1746.45 558.088)">
<stop stop-color="#486DA8" stop-opacity="0.4"/>
<stop offset="1" stop-color="#486DA8" stop-opacity="0"/>
</radialGradient>
</defs>
</svg>
