<svg preserveAspectRatio="none" width="100%" height="100%" overflow="visible" style="display: block;" viewBox="0 0 14 19.0001" fill="none" xmlns="http://www.w3.org/2000/svg">
<g id="Icons / 24 / WithoutLuggage">
<path id="Subtract" d="M11.3809 4C12.8033 4.00012 14 5.15597 14 6.57812V16.2783C13.9997 17.2206 13.2138 18.3102 12.3457 18.8271C12.1259 18.9579 11.8681 19 11.6123 19H2.39551C2.13443 19 1.87137 18.9561 1.64844 18.8203C0.79628 18.3005 0.000262074 17.2163 0 16.2783V6.57812C0 5.15597 1.19665 4.00012 2.61914 4H11.3809ZM10.376 7.74902C10.1275 7.50055 9.72509 7.50064 9.47656 7.74902L7.0625 10.1631L4.64844 7.74902C4.39991 7.50064 3.99749 7.50055 3.74902 7.74902C3.50055 7.99749 3.50064 8.39991 3.74902 8.64844L6.16309 11.0625L3.74902 13.4766C3.50064 13.7251 3.50055 14.1275 3.74902 14.376C3.99751 14.6242 4.39998 14.6243 4.64844 14.376L7.0625 11.9619L9.47656 14.376C9.7251 14.6242 10.1276 14.6244 10.376 14.376C10.6244 14.1276 10.6242 13.7251 10.376 13.4766L7.96191 11.0625L10.376 8.64844C10.6243 8.39998 10.6242 7.99751 10.376 7.74902ZM9.89062 0C10.2066 0.000141411 10.4711 0.221225 10.5322 0.514648L10.5449 0.644531V3H9.5V1H4.5V3H3.47754V0.644531C3.47754 0.289114 3.77074 0.000224597 4.13184 0H9.89062Z" fill="var(--fill-0, #0D0D0D)"/>
</g>
</svg>
