<svg width="50" height="16" viewBox="0 0 50 16" fill="none" xmlns="http://www.w3.org/2000/svg">
<path d="M8.28803 12.9999H10.224V1.87988H7.40803C4.57603 1.87988 3.08803 3.33589 3.08803 5.47989C3.08803 7.19189 3.90403 8.19989 5.36003 9.23989L2.83203 12.9999H4.92803L7.74403 8.79189L6.76803 8.13589C5.58403 7.33589 5.00803 6.71189 5.00803 5.36789C5.00803 4.18389 5.84003 3.38389 7.42403 3.38389H8.28803V12.9999ZM45.616 13.1599C46.496 13.1599 47.12 12.9999 47.584 12.6639V11.1119C47.104 11.4479 46.528 11.6559 45.728 11.6559C44.368 11.6559 43.808 10.5999 43.808 8.93589C43.808 7.19189 44.496 6.29589 45.744 6.29589C46.48 6.29589 47.2 6.55189 47.584 6.79189V5.17589C47.184 4.95189 46.48 4.79189 45.536 4.79189C43.104 4.79189 41.84 6.53589 41.84 8.98389C41.84 11.6719 43.072 13.1599 45.616 13.1599ZM33.712 12.4559V10.9039C33.12 11.3039 32.128 11.6559 31.2 11.6559C29.808 11.6559 29.28 10.9999 29.2 9.65589H33.792V8.64789C33.792 5.84789 32.56 4.79189 30.656 4.79189C28.336 4.79189 27.232 6.56789 27.232 8.99989C27.232 11.7999 28.608 13.1599 31.04 13.1599C32.256 13.1599 33.152 12.8399 33.712 12.4559ZM16.272 4.95189V8.13589H13.728V4.95189H11.824V12.9999H13.728V9.63989H16.272V12.9999H18.176V4.95189H16.272ZM26.768 11.4959H25.92V4.95189H20.368V5.63989C20.368 7.60789 20.24 10.1519 19.568 11.4959H18.976V14.8399H20.736V12.9999H25.008V14.8399H26.768V11.4959ZM39.792 12.9999H41.952L38.896 8.66389L41.584 4.95189H39.664L36.976 8.66389V4.95189H35.072V12.9999H36.976V9.04789L39.792 12.9999ZM30.624 6.29589C31.568 6.29589 31.856 7.07989 31.856 8.08789V8.24789H29.2C29.248 6.96789 29.712 6.29589 30.624 6.29589ZM24.016 11.4959H21.328C21.856 10.2799 22 8.08789 22 6.69589V6.45589H24.016V11.4959Z" fill="#0D0D0F"/>
</svg>
