<svg width="24" height="24" viewBox="0 0 24 24" fill="none" xmlns="http://www.w3.org/2000/svg">
<path fill-rule="evenodd" clip-rule="evenodd" d="M12 22C17.5228 22 22 17.5228 22 12C22 11.9898 22 11.9796 22 11.9694V11.9688C21.9999 11.9361 21.9996 11.9034 21.9992 11.8708C21.9965 11.6563 21.987 11.4436 21.971 11.2326C21.9392 10.814 21.8817 10.4026 21.8 9.99997H21.8C21.1633 6.86342 19.0585 4.25997 16.2342 2.93803L16.2342 2.93788C15.5784 2.63093 14.8838 2.39307 14.1598 2.23367L14.1598 2.23383C13.4642 2.08071 12.7415 2 12 2C6.47715 2 2 6.47715 2 12C2 17.5228 6.47715 22 12 22ZM13.7425 4.19031C13.1815 4.06571 12.5984 4 12 4C7.58172 4 4 7.58172 4 12C4 16.4183 7.58172 20 12 20C16.4183 20 20 16.4183 20 12C20 12 20 12 20 12L14.3013 12L13.2273 17.0356H11.0026L12.0767 12L7.07735 12L7.49995 9.99997H12.5033L13.7425 4.19031ZM15.8029 4.95994L14.7279 9.99997H19.748C19.1878 7.82367 17.7349 6.00577 15.8029 4.95994Z" fill="#0D0D0F"/>
</svg>
